<svg width="45" height="32" viewBox="0 0 45 32" fill="none" xmlns="http://www.w3.org/2000/svg">
<path d="M23.2669 31.035C25.4681 31.1443 27.1051 29.2088 27.1051 27.0049V27.0049C27.1051 24.2612 29.703 22.2037 31.7721 24.0055C33.5415 25.5463 34.8542 27.5971 36.4322 29.4538C37.2217 30.3827 38.407 30.8461 39.6261 30.8461V30.8461C42.9454 30.8461 45.192 27.4895 43.4707 24.6515C42.366 22.8302 41.1291 21.1127 39.7719 19.5169C38.2159 17.6873 37.8852 15.0596 39.1826 13.0385C40.7287 10.6298 42.2128 8.13814 43.4094 5.24934C44.4885 2.6443 42.4009 0 39.5812 0V0C38.031 0 36.5874 0.816407 35.8813 2.19646C34.9806 3.95686 34.1623 5.76844 33.2663 7.53348C31.3763 11.2567 27.1051 9.57427 27.1051 5.39882V4.43219C27.1051 1.98436 25.1207 0 22.6729 0H22.1016C19.9693 0 18.2407 1.72859 18.2407 3.8609V3.8609V11.9484C18.2407 14.9547 15.6148 16.6819 13.9293 14.1926C11.9426 11.2586 10.2036 6.85361 8.44452 2.56493C7.8051 1.00605 6.28296 0 4.59804 0V0C1.79794 0 -0.24277 2.68936 0.604117 5.35833C3.91055 15.7786 10.0628 30.3792 23.2669 31.035Z" fill="#F2F1F1"/>
</svg>
