<svg width="457" height="454" viewBox="0 0 457 454" fill="none" xmlns="http://www.w3.org/2000/svg">
<path d="M406.537 229.246L428.719 232.428L428.289 235.428L408.726 232.621L406.78 246.184L426.343 248.991L425.912 251.991L403.73 248.808L406.537 229.246ZM398.255 248.798L403.875 249.605L403.512 250.329L404.161 245.808L406.78 246.184L405.834 252.775L397.849 251.629L398.255 248.798Z" fill="white"/>
<path d="M398.077 280.228L418.584 289.264L414.59 298.326C413.569 300.643 412.323 302.271 410.853 303.209C409.371 304.173 407.77 304.276 406.052 303.519C404.385 302.785 403.377 301.579 403.028 299.901C402.705 298.235 403.003 296.36 403.921 294.277L404.5 295.185C403.421 297.633 402.174 299.229 400.757 299.973C399.341 300.717 397.774 300.711 396.055 299.953C394.284 299.173 393.191 297.914 392.775 296.176C392.374 294.475 392.77 292.271 393.964 289.563L398.077 280.228ZM399.077 283.887L396.203 290.41C395.434 292.154 395.128 293.59 395.284 294.716C395.456 295.88 396.166 296.737 397.416 297.288C398.666 297.839 399.755 297.837 400.684 297.282C401.613 296.727 402.461 295.578 403.23 293.833L406.225 287.036L399.077 283.887ZM408.295 287.949L405.576 294.12C404.876 295.709 404.641 297.051 404.873 298.149C405.093 299.272 405.776 300.086 406.922 300.591C408.068 301.096 409.117 301.045 410.068 300.438C411.008 299.857 411.828 298.772 412.528 297.184L415.248 291.013L408.295 287.949Z" fill="white"/>
<path d="M372.936 328.887C374.39 327.062 376.044 325.761 377.901 324.984C379.779 324.225 381.696 323.987 383.652 324.272C385.63 324.575 387.487 325.418 389.223 326.801C390.959 328.183 392.203 329.774 392.953 331.572C393.686 333.393 393.916 335.25 393.644 337.144C393.377 339.078 392.597 340.857 391.302 342.482C389.99 344.129 388.451 345.285 386.683 345.951C384.92 346.657 383.068 346.836 381.125 346.489C379.204 346.16 377.365 345.295 375.607 343.894C375.495 343.805 375.382 343.697 375.266 343.568C375.155 343.479 375.032 343.382 374.899 343.276L387.053 328.018L388.822 329.428L377.679 343.416L377.722 341.923C378.991 342.934 380.337 343.551 381.759 343.775C383.186 344.038 384.55 343.924 385.852 343.433C387.153 342.941 388.291 342.083 389.266 340.859C390.223 339.657 390.805 338.356 391.011 336.956C391.217 335.556 391.032 334.189 390.456 332.857C389.88 331.525 388.946 330.345 387.655 329.317L387.288 329.024C385.953 327.961 384.543 327.31 383.058 327.073C381.577 326.876 380.131 327.07 378.719 327.656C377.312 328.281 376.067 329.272 374.986 330.63C374.135 331.698 373.535 332.839 373.186 334.053C372.82 335.289 372.761 336.552 373.008 337.84L370.408 337.952C370.094 336.428 370.162 334.882 370.612 333.312C371.044 331.765 371.819 330.29 372.936 328.887Z" fill="white"/>
<path d="M346.684 358.893L359.385 375.078L358.28 374.915L365.566 369.197L367.2 371.278L351.452 383.637L349.818 381.555L357.105 375.837L357.001 376.949L344.3 360.764L346.684 358.893Z" fill="white"/>
<path d="M306.925 385.572L308.972 390.08L309.424 390.766L312.848 398.306C313.636 400.041 314.735 401.152 316.143 401.638C317.525 402.135 319.175 401.949 321.092 401.078C322.413 400.478 323.57 399.687 324.562 398.706C325.554 397.724 326.299 396.682 326.799 395.58L328.978 397.075C328.342 398.427 327.404 399.665 326.165 400.79C324.937 401.942 323.521 402.882 321.914 403.611C319.271 404.811 316.937 405.074 314.912 404.4C312.873 403.763 311.248 402.111 310.036 399.442L304.283 386.772L306.925 385.572ZM313.872 382.183C315.4 381.489 316.846 381.129 318.21 381.104C319.559 381.116 320.732 381.428 321.728 382.038C322.736 382.674 323.504 383.575 324.034 384.741C324.516 385.804 324.705 386.874 324.601 387.953C324.483 389.069 323.972 390.145 323.067 391.181C322.148 392.254 320.717 393.232 318.774 394.115L311.739 397.309L310.804 395.249L317.761 392.09C319.73 391.196 320.944 390.223 321.404 389.17C321.838 388.129 321.819 387.091 321.349 386.054C320.819 384.888 319.942 384.162 318.718 383.874C317.493 383.586 316.065 383.813 314.432 384.554C312.878 385.26 311.702 386.216 310.906 387.421C310.095 388.664 309.737 390.077 309.83 391.66L308.344 390.038C308.25 388.455 308.669 386.968 309.599 385.577C310.504 384.197 311.928 383.066 313.872 382.183Z" fill="white"/>
<path d="M253.256 403.642L253.429 426.05L250.399 426.073L250.246 406.311L236.545 406.417L236.698 426.179L233.667 426.203L233.494 403.794L253.256 403.642ZM232.684 398.38L232.728 404.056L231.958 403.806L236.525 403.771L236.545 406.417L229.887 406.469L229.824 398.402L232.684 398.38Z" fill="white"/>
<path d="M200.753 402.838L194.809 424.445L185.261 421.818C182.819 421.147 181.027 420.152 179.885 418.834C178.714 417.509 178.378 415.941 178.876 414.13C179.36 412.374 180.405 411.201 182.014 410.61C183.615 410.047 185.513 410.068 187.708 410.671L186.894 411.377C184.315 410.668 182.554 409.667 181.611 408.374C180.668 407.082 180.445 405.53 180.943 403.72C181.456 401.854 182.542 400.588 184.201 399.923C185.825 399.278 188.063 399.348 190.917 400.133L200.753 402.838ZM197.279 404.362L190.406 402.471C188.568 401.966 187.103 401.872 186.012 402.192C184.885 402.532 184.141 403.36 183.779 404.677C183.417 405.994 183.578 407.071 184.262 407.909C184.947 408.746 186.208 409.418 188.046 409.923L195.207 411.893L197.279 404.362ZM194.607 414.074L188.105 412.286C186.431 411.825 185.069 411.79 184.017 412.179C182.938 412.561 182.232 413.356 181.9 414.563C181.568 415.771 181.772 416.8 182.511 417.653C183.223 418.498 184.416 419.151 186.09 419.611L192.592 421.4L194.607 414.074Z" fill="white"/>
<path d="M149.266 385.252C151.288 386.416 152.822 387.858 153.868 389.577C154.9 391.32 155.421 393.18 155.432 395.157C155.429 397.158 154.873 399.12 153.766 401.044C152.658 402.967 151.271 404.434 149.605 405.445C147.915 406.442 146.113 406.948 144.2 406.962C142.248 406.987 140.372 406.482 138.572 405.445C136.747 404.394 135.373 403.045 134.451 401.397C133.489 399.759 133.035 397.954 133.087 395.981C133.126 394.033 133.706 392.085 134.828 390.137C134.899 390.014 134.989 389.885 135.099 389.751C135.17 389.628 135.248 389.492 135.333 389.344L152.237 399.08L151.108 401.04L135.61 392.114L137.093 391.934C136.283 393.34 135.875 394.762 135.866 396.202C135.819 397.653 136.135 398.985 136.816 400.198C137.497 401.411 138.515 402.408 139.871 403.189C141.203 403.956 142.576 404.336 143.992 404.33C145.407 404.324 146.73 403.937 147.961 403.168C149.192 402.4 150.219 401.3 151.043 399.87L151.277 399.463C152.129 397.984 152.562 396.492 152.574 394.988C152.547 393.495 152.139 392.094 151.349 390.786C150.521 389.488 149.354 388.406 147.85 387.539C146.666 386.858 145.448 386.435 144.196 386.272C142.919 386.095 141.662 386.225 140.425 386.662L139.925 384.108C141.385 383.569 142.924 383.405 144.544 383.615C146.138 383.811 147.713 384.357 149.266 385.252Z" fill="white"/>
<path d="M115.652 363.73L101.479 378.643L101.48 377.526L108.194 383.907L106.371 385.825L91.8604 372.035L93.6835 370.116L100.397 376.497L99.2818 376.556L113.455 361.643L115.652 363.73Z" fill="white"/>
<path d="M83.5574 328.49L79.4094 331.194L78.8 331.744L71.8629 336.266C70.2657 337.307 69.3333 338.56 69.0656 340.025C68.7823 341.467 69.2156 343.069 70.3655 344.833C71.158 346.049 72.1143 347.073 73.2343 347.906C74.3544 348.738 75.4967 349.318 76.6615 349.646L75.5122 352.026C74.0801 351.6 72.7144 350.86 71.4151 349.805C70.092 348.765 68.9488 347.506 67.9854 346.028C66.4004 343.597 65.7885 341.329 66.1496 339.225C66.4714 337.114 67.8599 335.257 70.3153 333.657L81.9724 326.058L83.5574 328.49ZM87.955 334.846C88.8718 336.252 89.4456 337.627 89.6763 338.971C89.8677 340.307 89.7369 341.514 89.2838 342.59C88.8068 343.682 88.032 344.578 86.9592 345.277C85.9818 345.914 84.9522 346.263 83.8703 346.323C82.749 346.374 81.6081 346.031 80.4476 345.293C79.2477 344.546 78.0651 343.279 76.8997 341.491L72.6809 335.019L74.576 333.784L78.7482 340.184C79.9292 341.996 81.0746 343.05 82.1844 343.345C83.2787 343.617 84.3026 343.442 85.2561 342.821C86.3288 342.122 86.9151 341.145 87.0149 339.891C87.1147 338.637 86.6751 337.259 85.6961 335.757C84.7638 334.327 83.6417 333.309 82.3299 332.704C80.9787 332.09 79.5279 331.949 77.9775 332.28L79.3567 330.566C80.9071 330.234 82.4403 330.424 83.9562 331.134C85.4566 331.82 86.7896 333.058 87.955 334.846Z" fill="white"/>
<path d="M57.6655 278.421L35.5351 281.943L35.0587 278.95L54.5756 275.844L52.4217 262.313L32.9048 265.419L32.4284 262.426L54.5588 258.904L57.6655 278.421ZM59.7915 257.293L54.1851 258.185L54.3173 257.386L55.0352 261.897L52.4217 262.313L51.375 255.737L59.342 254.469L59.7915 257.293Z" fill="white"/>
<path d="M50.6303 226.639L28.3709 224.054L29.5134 214.217C29.8056 211.701 30.5159 209.779 31.6444 208.449C32.7762 207.09 34.2748 206.52 36.1404 206.736C37.9494 206.946 39.2681 207.801 40.0965 209.301C40.8967 210.798 41.1655 212.677 40.9028 214.938L40.0814 214.241C40.39 211.584 41.1112 209.691 42.2449 208.563C43.3787 207.434 44.8784 206.978 46.7439 207.194C48.666 207.418 50.082 208.298 50.992 209.836C51.8769 211.343 52.1487 213.566 51.8073 216.506L50.6303 226.639ZM48.5957 223.438L49.4182 216.357C49.6381 214.463 49.5071 213.001 49.0252 211.971C48.5182 210.91 47.5864 210.3 46.2296 210.143C44.8728 209.985 43.8326 210.308 43.109 211.112C42.3854 211.916 41.9136 213.265 41.6936 215.159L40.8368 222.536L48.5957 223.438ZM38.5896 222.275L39.3677 215.576C39.568 213.852 39.3956 212.5 38.8505 211.52C38.3087 210.512 37.416 209.935 36.1723 209.791C34.9286 209.647 33.9417 210.005 33.2115 210.865C32.4846 211.697 32.021 212.976 31.8207 214.7L31.0426 221.399L38.5896 222.275Z" fill="white"/>
<path d="M60.2462 172.645C59.3938 174.817 58.195 176.548 56.6499 177.837C55.0782 179.115 53.3158 179.906 51.3626 180.21C49.383 180.503 47.3601 180.244 45.2939 179.433C43.2277 178.622 41.5715 177.468 40.3252 175.97C39.0893 174.446 38.3224 172.738 38.0247 170.849C37.7109 168.922 37.9334 166.992 38.6923 165.058C39.4615 163.098 40.5927 161.54 42.0859 160.383C43.563 159.19 45.2809 158.473 47.2398 158.233C49.1722 157.983 51.1847 158.268 53.2774 159.089C53.4098 159.141 53.5503 159.212 53.6989 159.3C53.8313 159.352 53.977 159.41 54.1359 159.472L47.01 177.63L44.9042 176.804L51.4375 160.155L51.8353 161.595C50.3254 161.003 48.8578 160.809 47.4324 161.014C45.9909 161.182 44.7207 161.692 43.6219 162.545C42.5231 163.398 41.6878 164.552 41.1161 166.009C40.5547 167.44 40.3817 168.854 40.5969 170.253C40.8121 171.652 41.391 172.903 42.3336 174.007C43.2761 175.11 44.5155 175.964 46.0519 176.567L46.489 176.738C48.0784 177.362 49.6174 177.568 51.1062 177.358C52.5789 177.11 53.9039 176.499 55.0812 175.525C56.2424 174.513 57.14 173.199 57.7741 171.583C58.2731 170.312 58.5105 169.045 58.4864 167.782C58.4727 166.493 58.1582 165.269 57.5429 164.11L59.9944 163.238C60.7431 164.602 61.1334 166.1 61.1652 167.733C61.2074 169.339 60.9011 170.976 60.2462 172.645Z" fill="white"/>
<path d="M76.4015 136.317L59.5457 124.521L60.6506 124.357L55.3398 131.945L53.1716 130.428L64.6499 114.027L66.818 115.544L61.5072 123.133L61.2833 122.038L78.1391 133.834L76.4015 136.317Z" fill="white"/>
<path d="M106.869 98.9009L103.591 95.1903L102.958 94.6674L97.4755 88.4617C96.2132 87.0329 94.8377 86.2926 93.3491 86.2408C91.8818 86.1702 90.3591 86.832 88.781 88.2262C87.6934 89.1871 86.8193 90.2821 86.1586 91.5113C85.4979 92.7405 85.0901 93.9551 84.9353 95.1552L82.4138 94.3641C82.6263 92.8855 83.16 91.4266 84.0151 89.9877C84.8514 88.5275 85.9306 87.2133 87.2527 86.0452C89.4279 84.1234 91.5824 83.1882 93.7162 83.2396C95.8524 83.2508 97.8908 84.3546 99.8314 86.5511L109.044 96.9792L106.869 98.9009ZM101.221 104.176C99.9626 105.288 98.6853 106.055 97.3891 106.479C96.0952 106.863 94.8828 106.909 93.7518 106.617C92.6018 106.304 91.603 105.668 90.7552 104.708C89.9827 103.834 89.4882 102.866 89.2716 101.804C89.0575 100.702 89.2313 99.5234 89.7928 98.2679C90.3567 96.9723 91.4384 95.6179 93.0378 94.2049L98.8277 89.0896L100.325 90.785L94.5996 95.8437C92.9789 97.2756 92.103 98.5621 91.972 99.7031C91.8622 100.825 92.1842 101.813 92.9378 102.666C93.7856 103.625 94.8371 104.063 96.0922 103.98C97.3472 103.896 98.6465 103.261 99.99 102.074C101.27 100.943 102.113 99.6853 102.522 98.2994C102.933 96.8733 102.861 95.4174 102.308 93.9316L104.205 95.0469C104.758 96.5326 104.793 98.077 104.311 99.6801C103.85 101.264 102.82 102.763 101.221 104.176Z" fill="white"/>
<path d="M152.34 65.9736L145.583 44.6073L148.473 43.6936L154.432 62.5366L167.495 58.4056L161.537 39.5626L164.426 38.6488L171.183 60.0151L152.34 65.9736ZM173.55 64.952L171.838 59.5393L172.648 59.5518L168.293 60.9288L167.495 58.4056L173.844 56.3979L176.277 64.0898L173.55 64.952Z" fill="white"/>
<path d="M201.482 51.4278L200.704 29.0323L210.601 28.6884C213.132 28.6004 215.139 29.0147 216.623 29.9312C218.136 30.8468 218.925 32.243 218.99 34.12C219.053 35.94 218.405 37.372 217.046 38.4157C215.686 39.4311 213.869 39.9783 211.594 40.0573L212.16 39.1408C214.833 39.0479 216.813 39.4774 218.099 40.4292C219.385 41.3811 220.06 42.7955 220.125 44.6725C220.192 46.6063 219.534 48.1383 218.15 49.2684C216.793 50.369 214.635 50.9707 211.678 51.0735L201.482 51.4278ZM204.343 48.9367L211.467 48.6891C213.372 48.6229 214.798 48.2744 215.744 47.6436C216.718 46.9833 217.181 45.9707 217.133 44.6056C217.086 43.2406 216.61 42.2605 215.707 41.6655C214.804 41.0705 213.399 40.8061 211.494 40.8723L204.072 41.1302L204.343 48.9367ZM203.993 38.8693L210.733 38.6351C212.468 38.5748 213.779 38.2018 214.666 37.5161C215.582 36.8294 216.018 35.8604 215.974 34.6091C215.931 33.3578 215.429 32.4356 214.469 31.8426C213.537 31.2486 212.204 30.9817 210.469 31.042L203.729 31.2762L203.993 38.8693Z" fill="white"/>
<path d="M256.895 52.7601C254.619 52.2445 252.728 51.3199 251.221 49.9865C249.72 48.6253 248.673 47.0021 248.079 45.1168C247.491 43.2039 247.443 41.165 247.933 39.0003C248.424 36.8356 249.315 35.0245 250.608 33.5668C251.929 32.1155 253.501 31.1004 255.325 30.5215C257.182 29.9212 259.124 29.8505 261.15 30.3096C263.204 30.7749 264.915 31.6586 266.283 32.9606C267.685 34.2411 268.652 35.8316 269.184 37.732C269.723 39.6047 269.744 41.6372 269.247 43.8297C269.215 43.9684 269.167 44.1179 269.102 44.2781C269.07 44.4169 269.036 44.5695 268.998 44.7361L249.973 40.4255L250.473 38.2192L267.916 42.1713L266.552 42.7814C266.911 41.1995 266.881 39.7194 266.464 38.3411C266.081 36.9413 265.385 35.7625 264.377 34.8046C263.368 33.8467 262.101 33.1948 260.575 32.8489C259.076 32.5094 257.651 32.5513 256.301 32.9747C254.95 33.3981 253.801 34.1588 252.851 35.2568C251.902 36.3547 251.246 37.7085 250.881 39.3181L250.777 39.776C250.4 41.4412 250.427 42.9938 250.86 44.4339C251.326 45.8526 252.13 47.0704 253.27 48.0875C254.445 49.0832 255.879 49.7728 257.572 50.1564C258.904 50.4582 260.193 50.5021 261.437 50.2882C262.71 50.0805 263.873 49.5853 264.925 48.8026L266.157 51.0948C264.921 52.0403 263.499 52.6517 261.89 52.929C260.308 53.2126 258.643 53.1563 256.895 52.7601Z" fill="white"/>
<path d="M295.052 63.0976L304.18 44.6598L304.509 45.7274L296.208 41.618L297.382 39.2463L315.323 48.128L314.148 50.4997L305.848 46.3903L306.896 46.0043L297.768 64.4422L295.052 63.0976Z" fill="white"/>
<path d="M336.991 87.7839L340.174 83.991L340.597 83.2875L345.92 76.9442C347.146 75.4837 347.674 74.0136 347.504 72.5338C347.356 71.0723 346.475 69.6647 344.862 68.3111C343.75 67.3783 342.538 66.6764 341.224 66.2056C339.91 65.7347 338.649 65.5118 337.439 65.5368L337.847 62.9259C339.341 62.9164 340.863 63.2277 342.413 63.8596C343.981 64.4698 345.441 65.3419 346.792 66.476C349.016 68.3417 350.26 70.3335 350.526 72.4512C350.832 74.5654 350.043 76.7452 348.159 78.9904L339.215 89.6496L336.991 87.7839ZM330.936 82.9812C329.65 81.902 328.701 80.7529 328.09 79.5339C327.518 78.3114 327.293 77.1193 327.413 75.9574C327.552 74.7738 328.033 73.6915 328.856 72.7106C329.606 71.8169 330.49 71.1841 331.508 70.8123C332.566 70.437 333.757 70.4338 335.082 70.8027C336.447 71.168 337.947 72.0366 339.582 73.4085L345.5 78.3747L344.046 80.1076L338.193 75.1963C336.536 73.8062 335.134 73.131 333.986 73.1708C332.86 73.2289 331.931 73.6939 331.2 74.5658C330.377 75.5467 330.1 76.6516 330.369 77.8803C330.638 79.1091 331.459 80.2996 332.832 81.452C334.14 82.5495 335.51 83.1972 336.941 83.3952C338.412 83.5897 339.841 83.3031 341.228 82.5354L340.407 84.5766C339.02 85.3443 337.498 85.6087 335.841 85.3698C334.206 85.1493 332.571 84.3531 330.936 82.9812Z" fill="white"/>
</svg>
