<svg width="463" height="461" viewBox="0 0 463 461" fill="none" xmlns="http://www.w3.org/2000/svg">
<path d="M413.154 232.358L432.926 235.195L432.542 237.869L423.805 236.615L422.016 249.08L430.753 250.334L430.37 253.008L410.598 250.171L410.982 247.497L419.719 248.751L421.508 236.285L412.77 235.032L413.154 232.358Z" fill="white"/>
<path d="M401.012 292.06C401.851 290.157 402.982 288.66 404.405 287.569C405.852 286.488 407.45 285.848 409.201 285.649C410.975 285.461 412.767 285.765 414.577 286.563C416.388 287.361 417.82 288.45 418.875 289.829C419.92 291.232 420.541 292.78 420.737 294.474C420.946 296.202 420.677 297.913 419.93 299.607C419.173 301.324 418.109 302.671 416.736 303.646C415.377 304.655 413.821 305.23 412.068 305.372C410.338 305.524 408.556 305.196 406.722 304.388C406.606 304.337 406.484 304.269 406.355 304.185C406.238 304.134 406.111 304.077 405.972 304.016L412.983 288.106L414.828 288.919L408.4 303.506L408.098 302.209C409.421 302.792 410.721 303.019 411.998 302.888C413.288 302.792 414.438 302.384 415.448 301.665C416.458 300.945 417.244 299.948 417.806 298.671C418.359 297.418 418.565 296.164 418.424 294.91C418.284 293.657 417.814 292.521 417.015 291.504C416.216 290.487 415.143 289.681 413.797 289.088L413.414 288.919C412.022 288.306 410.659 288.065 409.325 288.198C408.004 288.365 406.802 288.86 405.718 289.685C404.647 290.544 403.799 291.681 403.175 293.097C402.684 294.211 402.426 295.33 402.402 296.456C402.367 297.605 402.602 298.706 403.107 299.76L400.892 300.447C400.275 299.205 399.983 297.857 400.014 296.402C400.035 294.97 400.368 293.523 401.012 292.06Z" fill="white"/>
<path d="M387.387 323.853L390.694 337.286L389.677 336.427L402.773 336.596L400.876 338.976L390.08 338.791L390.821 337.922L393.385 348.38L391.536 350.701L388.402 337.844L389.509 338.774L375.629 338.613L377.549 336.202L389.029 336.446L388.246 337.184L385.49 326.233L387.387 323.853Z" fill="white"/>
<path d="M356.245 361.978L368.288 377.913L361.246 383.235C359.445 384.596 357.768 385.322 356.216 385.414C354.644 385.522 353.354 384.907 352.344 383.572C351.366 382.277 351.104 380.9 351.561 379.443C352.032 378.006 353.078 376.675 354.696 375.452L354.753 376.41C352.851 377.848 351.187 378.549 349.762 378.514C348.336 378.478 347.119 377.793 346.109 376.457C345.069 375.081 344.765 373.626 345.196 372.093C345.621 370.595 346.886 369.051 348.991 367.46L356.245 361.978ZM355.435 365.261L350.366 369.091C349.011 370.116 348.149 371.1 347.782 372.045C347.411 373.026 347.592 374.002 348.326 374.973C349.06 375.944 349.909 376.415 350.872 376.387C351.836 376.358 352.996 375.831 354.352 374.806L359.633 370.815L355.435 365.261ZM360.849 372.424L356.053 376.048C354.819 376.981 354.054 377.925 353.758 378.879C353.442 379.849 353.62 380.78 354.293 381.67C354.966 382.56 355.804 382.976 356.809 382.916C357.792 382.872 358.902 382.384 360.136 381.451L364.932 377.827L360.849 372.424Z" fill="white"/>
<path d="M307.639 393.941L309.328 398.019L309.71 398.643L312.534 405.462C313.185 407.032 314.13 408.055 315.37 408.529C316.586 409.014 318.061 408.897 319.795 408.179C320.99 407.684 322.044 407.014 322.957 406.169C323.87 405.324 324.566 404.418 325.044 403.452L326.94 404.849C326.333 406.034 325.461 407.109 324.323 408.074C323.195 409.063 321.905 409.858 320.452 410.46C318.062 411.45 315.975 411.614 314.191 410.953C312.393 410.325 310.995 408.804 309.995 406.39L305.249 394.931L307.639 393.941ZM313.928 391.131C315.311 390.558 316.61 390.281 317.826 390.299C319.027 390.35 320.063 390.663 320.932 391.236C321.81 391.833 322.468 392.659 322.905 393.713C323.303 394.674 323.439 395.633 323.314 396.591C323.176 397.582 322.688 398.525 321.851 399.421C321 400.35 319.696 401.178 317.938 401.906L311.576 404.541L310.805 402.678L317.097 400.072C318.878 399.335 319.988 398.504 320.429 397.58C320.847 396.666 320.862 395.74 320.473 394.803C320.037 393.748 319.277 393.075 318.195 392.782C317.113 392.489 315.833 392.648 314.357 393.259C312.951 393.842 311.875 394.658 311.13 395.708C310.37 396.791 310.009 398.039 310.045 399.452L308.769 397.962C308.733 396.549 309.15 395.237 310.021 394.026C310.869 392.824 312.171 391.859 313.928 391.131Z" fill="white"/>
<path d="M272.305 406.426L275.118 424.547L274.331 423.938L282.489 422.671L282.851 425.002L265.219 427.739L264.857 425.409L273.015 424.142L272.449 424.961L269.636 406.84L272.305 406.426Z" fill="white"/>
<path d="M221.963 410.406L229.313 420.958L226.964 422.095L218.779 410.135L221.963 410.406ZM236.558 411.647L234.865 431.549L232.174 431.32L233.867 411.418L236.558 411.647ZM233.946 420.36L233.75 422.672L227.343 422.127L227.54 419.815L233.946 420.36ZM226.865 420.559L229.335 421.151L220.574 430.334L217.655 430.085L226.865 420.559Z" fill="white"/>
<path d="M179.142 402.998L177.67 407.159L177.536 407.878L175.073 414.836C174.506 416.438 174.525 417.83 175.129 419.013C175.709 420.187 176.883 421.087 178.653 421.713C179.872 422.145 181.104 422.352 182.348 422.335C183.591 422.317 184.714 422.109 185.716 421.711L186.191 424.018C184.947 424.492 183.579 424.708 182.088 424.664C180.588 424.645 179.097 424.372 177.615 423.848C175.176 422.984 173.515 421.71 172.631 420.026C171.715 418.356 171.693 416.29 172.565 413.827L176.703 402.135L179.142 402.998ZM185.697 405.117C187.108 405.616 188.259 406.279 189.15 407.106C190.009 407.948 190.57 408.873 190.832 409.88C191.086 410.912 191.022 411.965 190.641 413.041C190.294 414.022 189.754 414.826 189.02 415.454C188.254 416.098 187.261 416.473 186.04 416.579C184.786 416.7 183.262 416.443 181.469 415.808L174.978 413.511L175.65 411.61L182.07 413.882C183.887 414.525 185.269 414.651 186.215 414.259C187.137 413.859 187.767 413.181 188.105 412.225C188.486 411.149 188.372 410.14 187.764 409.198C187.156 408.256 186.098 407.519 184.592 406.986C183.157 406.478 181.812 406.365 180.555 406.646C179.266 406.944 178.162 407.629 177.244 408.703L177.292 406.743C178.211 405.669 179.399 404.973 180.856 404.654C182.29 404.328 183.904 404.482 185.697 405.117Z" fill="white"/>
<path d="M119.296 371.545C120.755 372.882 121.772 374.399 122.349 376.097C122.89 377.797 122.974 379.508 122.6 381.23C122.209 382.97 121.345 384.57 120.009 386.028C118.655 387.505 117.137 388.505 115.454 389.027C113.771 389.55 112.069 389.606 110.345 389.196C108.603 388.77 107.003 387.888 105.544 386.552C104.291 385.403 103.383 384.124 102.819 382.712C102.254 381.301 102.128 379.843 102.439 378.339L104.851 378.692C104.671 379.903 104.792 381.028 105.214 382.069C105.637 383.11 106.287 384.033 107.166 384.838C108.213 385.798 109.38 386.42 110.667 386.705C111.937 387.009 113.209 386.953 114.484 386.539C115.758 386.124 116.927 385.337 117.989 384.177C119.052 383.018 119.734 381.786 120.036 380.48C120.338 379.174 120.291 377.893 119.895 376.635C119.482 375.397 118.752 374.298 117.705 373.338C116.826 372.533 115.85 371.965 114.776 371.635C113.702 371.304 112.579 371.273 111.406 371.539L110.845 369.167C112.298 368.745 113.761 368.744 115.234 369.164C116.689 369.603 118.043 370.397 119.296 371.545Z" fill="white"/>
<path d="M91.713 346.385L74.7828 356.984L73.3495 354.694L80.831 350.01L74.149 339.336L66.6675 344.02L65.2342 341.73L82.1644 331.132L83.5977 333.421L76.1162 338.105L82.7982 348.779L90.2797 344.096L91.713 346.385Z" fill="white"/>
<path d="M61.1244 289.102L56.8873 290.337L56.2253 290.649L49.1392 292.714C47.5077 293.189 46.3885 294.017 45.7816 295.198C45.1675 296.355 45.1231 297.834 45.6482 299.636C46.0102 300.878 46.5613 301.998 47.3018 302.998C48.0422 303.997 48.8668 304.787 49.7757 305.368L48.1805 307.101C47.0687 306.368 46.095 305.384 45.2592 304.148C44.3991 302.919 43.7491 301.55 43.3091 300.04C42.5852 297.556 42.6491 295.464 43.5007 293.763C44.3208 292.044 45.9849 290.819 48.493 290.088L60.4005 286.618L61.1244 289.102ZM63.2338 295.66C63.6525 297.097 63.7866 298.418 63.6362 299.624C63.4544 300.813 63.0311 301.809 62.3664 302.61C61.6773 303.418 60.7849 303.982 59.6891 304.302C58.6908 304.593 57.7224 304.624 56.784 304.395C55.8141 304.15 54.9295 303.562 54.1303 302.633C53.2995 301.686 52.6181 300.299 52.0858 298.473L50.159 291.862L52.0949 291.298L54.0004 297.836C54.5397 299.686 55.2446 300.881 56.115 301.42C56.9782 301.935 57.8969 302.05 58.8709 301.766C59.9667 301.447 60.7191 300.765 61.1282 299.721C61.5373 298.677 61.5183 297.388 61.0712 295.854C60.6454 294.393 59.9512 293.235 58.9886 292.379C57.9945 291.507 56.7934 291.011 55.3852 290.893L57.0046 289.787C58.4128 289.905 59.6717 290.463 60.7815 291.461C61.8841 292.434 62.7015 293.834 63.2338 295.66Z" fill="white"/>
<path d="M49.978 230.34L30.1854 227.655L30.5485 224.979L39.295 226.165L40.9879 213.686L32.2414 212.5L32.6045 209.823L52.3972 212.508L52.0341 215.185L43.2876 213.998L41.5947 226.477L50.3412 227.664L49.978 230.34Z" fill="white"/>
<path d="M61.8001 170.051C60.9685 171.958 59.8431 173.459 58.4239 174.556C56.9815 175.642 55.3853 176.288 53.6355 176.493C51.8624 176.688 50.0692 176.39 48.2558 175.599C46.4425 174.808 45.0057 173.725 43.9455 172.349C42.8954 170.95 42.2693 169.404 42.067 167.711C41.8517 165.984 42.1142 164.273 42.8545 162.575C43.605 160.855 44.6645 159.505 46.033 158.524C47.3883 157.511 48.9424 156.93 50.6952 156.781C52.4248 156.622 54.2079 156.944 56.0445 157.745C56.1607 157.795 56.2835 157.863 56.4128 157.947C56.5291 157.998 56.6569 158.053 56.7964 158.114L49.8445 174.051L47.9963 173.245L54.3701 158.633L54.6765 159.929C53.3514 159.351 52.0506 159.129 50.7741 159.264C49.4846 159.366 48.3362 159.778 47.3291 160.501C46.322 161.224 45.5395 162.225 44.9817 163.503C44.4341 164.759 44.2328 166.013 44.3779 167.266C44.5231 168.519 44.997 169.653 45.7998 170.668C46.6025 171.682 47.6781 172.483 49.0265 173.071L49.4101 173.239C50.805 173.847 52.169 174.082 53.502 173.944C54.822 173.773 56.0226 173.273 57.1037 172.444C58.1717 171.582 59.015 170.441 59.6336 169.023C60.1204 167.907 60.3741 166.787 60.3946 165.661C60.4254 164.512 60.186 163.412 59.6766 162.359L61.8892 161.664C62.5106 162.904 62.8083 164.251 62.7823 165.706C62.7664 167.138 62.439 168.587 61.8001 170.051Z" fill="white"/>
<path d="M74.9643 138.642L71.5588 125.233L72.5828 126.085L59.486 126.011L61.365 123.617L72.1626 123.724L71.428 124.598L68.7871 114.159L70.6191 111.825L73.847 124.659L72.7331 123.736L86.6142 123.797L84.7117 126.221L73.2303 126.061L74.0077 125.317L76.8433 136.247L74.9643 138.642Z" fill="white"/>
<path d="M105.229 100.691L93.0708 84.8442L100.074 79.4713C101.865 78.0973 103.536 77.3586 105.087 77.2554C106.658 77.1367 107.954 77.7415 108.973 79.0696C109.961 80.3575 110.232 81.7319 109.786 83.1927C109.325 84.6334 108.29 85.9714 106.68 87.2065L106.616 86.2484C108.508 84.7971 110.166 84.084 111.592 84.109C113.018 84.1339 114.24 84.8105 115.259 86.1386C116.309 87.507 116.624 88.9595 116.205 90.4962C115.79 91.9973 114.536 93.5507 112.443 95.1564L105.229 100.691ZM106.015 97.403L111.056 93.5355C112.404 92.501 113.258 91.5101 113.618 90.5625C113.983 89.5795 113.795 88.6049 113.054 87.639C112.313 86.6731 111.46 86.2081 110.497 86.244C109.533 86.2799 108.377 86.8151 107.029 87.8495L101.777 91.8792L106.015 97.403ZM100.55 90.2794L105.319 86.6202C106.546 85.6784 107.304 84.7291 107.593 83.7722C107.902 82.7999 107.717 81.871 107.038 80.9856C106.358 80.1001 105.517 79.6908 104.513 79.7576C103.53 79.809 102.424 80.3055 101.197 81.2473L96.4273 84.9064L100.55 90.2794Z" fill="white"/>
<path d="M153.171 68.3027L151.452 64.2381L151.065 63.6168L148.19 56.819C147.528 55.2538 146.575 54.2385 145.332 53.773C144.112 53.2976 142.638 53.4255 140.909 54.1567C139.718 54.6606 138.669 55.3383 137.762 56.19C136.856 57.0416 136.167 57.9525 135.696 58.9228L133.789 57.5399C134.388 56.3505 135.252 55.2688 136.382 54.295C137.503 53.2979 138.787 52.493 140.235 51.8804C142.618 50.8726 144.704 50.6927 146.493 51.3406C148.295 51.9553 149.705 53.4657 150.722 55.8718L155.554 67.2949L153.171 68.3027ZM146.903 71.1605C145.525 71.7434 144.228 72.0303 143.012 72.0212C141.81 71.9789 140.773 71.6742 139.899 71.1072C139.016 70.5169 138.352 69.6961 137.908 68.6449C137.503 67.6871 137.359 66.729 137.477 65.7703C137.608 64.7785 138.089 63.8316 138.919 62.9296C139.763 61.9945 141.061 61.1563 142.813 60.4153L149.155 57.7328L149.94 59.5899L143.668 62.2428C141.893 62.9937 140.788 63.8327 140.354 64.7599C139.944 65.6771 139.936 66.603 140.331 67.5374C140.776 68.5886 141.54 69.2566 142.625 69.5415C143.709 69.8264 144.987 69.6577 146.459 69.0352C147.86 68.4424 148.93 67.6182 149.668 66.5626C150.419 65.4737 150.771 64.2232 150.725 62.8108L152.011 64.2907C152.058 65.703 151.65 67.0183 150.789 68.2365C149.95 69.4448 148.655 70.4194 146.903 71.1605Z" fill="white"/>
<path d="M188.457 55.2568L185.505 37.158L186.297 37.7612L178.149 39.0902L177.769 36.7622L195.38 33.8897L195.76 36.2178L187.611 37.5468L188.171 36.7232L191.123 54.822L188.457 55.2568Z" fill="white"/>
<path d="M239.047 50.6631L231.616 40.1673L233.957 39.0127L242.234 50.9094L239.047 50.6631ZM224.443 49.5342L225.983 29.6197L228.676 29.8278L227.137 49.7424L224.443 49.5342ZM226.988 40.8017L227.167 38.4878L233.578 38.9833L233.399 41.2972L226.988 40.8017ZM234.067 40.5475L231.593 39.9747L240.283 30.7251L243.204 30.9509L234.067 40.5475Z" fill="white"/>
<path d="M282.014 57.5612L283.455 53.3898L283.583 52.6693L285.993 45.6931C286.548 44.0869 286.519 42.6949 285.907 41.5171C285.318 40.3476 284.136 39.4564 282.362 38.8435C281.14 38.4211 279.907 38.2231 278.663 38.2497C277.419 38.2762 276.298 38.4926 275.299 38.8988L274.807 36.5953C276.047 36.1116 277.413 35.8858 278.905 35.9181C280.405 35.9265 281.898 36.1874 283.384 36.7009C285.83 37.5458 287.5 38.8073 288.396 40.4855C289.325 42.148 289.362 44.2138 288.509 46.6831L284.459 58.406L282.014 57.5612ZM275.443 55.4922C274.028 55.0035 272.873 54.3492 271.975 53.5293C271.11 52.6937 270.542 51.7731 270.273 50.7675C270.011 49.7379 270.067 48.6837 270.439 47.6049C270.779 46.622 271.313 45.8137 272.042 45.18C272.803 44.5305 273.794 44.1483 275.014 44.0333C276.267 43.9025 277.793 44.1478 279.591 44.769L286.099 47.0177L285.441 48.9236L279.004 46.6997C277.182 46.0702 275.8 45.9549 274.857 46.3537C273.938 46.7608 273.313 47.4438 272.982 48.4027C272.609 49.4815 272.73 50.4895 273.346 51.4266C273.961 52.3638 275.024 53.0933 276.534 53.6151C277.973 54.1121 279.319 54.215 280.574 53.9239C281.86 53.6171 282.959 52.9232 283.869 51.8422L283.835 53.803C282.925 54.884 281.743 55.589 280.287 55.918C278.856 56.2553 277.241 56.1134 275.443 55.4922Z" fill="white"/>
<path d="M342.7 88.7163C341.232 87.3903 340.203 85.8803 339.614 84.1863C339.061 82.4905 338.965 80.7804 339.326 79.056C339.704 77.3128 340.556 75.707 341.882 74.2388C343.225 72.7517 344.736 71.741 346.415 71.2065C348.094 70.6721 349.796 70.6034 351.522 71.0003C353.267 71.4143 354.874 72.2843 356.342 73.6102C357.604 74.7492 358.521 76.0224 359.096 77.4298C359.67 78.8372 359.807 80.2938 359.507 81.7996L357.092 81.4646C357.264 80.2527 357.135 79.1279 356.705 78.0903C356.275 77.0526 355.618 76.1343 354.733 75.3354C353.679 74.3834 352.507 73.7696 351.218 73.494C349.946 73.1996 348.675 73.2644 347.403 73.6883C346.132 74.1122 344.969 74.9077 343.915 76.0748C342.861 77.2418 342.188 78.4793 341.895 79.7872C341.603 81.0951 341.659 82.3762 342.064 83.6306C342.486 84.8662 343.224 85.96 344.278 86.9119C345.163 87.7109 346.143 88.2716 347.219 88.5939C348.295 88.9162 349.419 88.9398 350.59 88.6647L351.169 91.0327C349.718 91.4657 348.255 91.4773 346.78 91.0676C345.321 90.639 343.961 89.8552 342.7 88.7163Z" fill="white"/>
<path d="M370.323 113.362L387.175 102.64L388.625 104.919L381.178 109.657L387.938 120.282L395.385 115.544L396.835 117.823L379.983 128.545L378.533 126.266L385.98 121.528L379.22 110.903L371.773 115.642L370.323 113.362Z" fill="white"/>
<path d="M401.565 170.73L405.793 169.463L406.453 169.146L413.523 167.028C415.151 166.54 416.264 165.703 416.862 164.518C417.467 163.357 417.5 161.877 416.961 160.079C416.59 158.84 416.03 157.724 415.282 156.73C414.535 155.736 413.704 154.952 412.791 154.379L414.373 152.634C415.49 153.358 416.471 154.335 417.316 155.564C418.186 156.787 418.846 158.151 419.297 159.657C420.04 162.136 419.992 164.229 419.153 165.936C418.346 167.661 416.691 168.898 414.189 169.648L402.308 173.208L401.565 170.73ZM399.406 164.188C398.977 162.755 398.833 161.434 398.974 160.227C399.147 159.037 399.563 158.038 400.221 157.232C400.904 156.418 401.792 155.848 402.886 155.52C403.882 155.221 404.85 155.183 405.79 155.404C406.762 155.643 407.651 156.223 408.457 157.147C409.295 158.087 409.987 159.469 410.533 161.291L412.51 167.887L410.578 168.466L408.623 161.943C408.07 160.096 407.356 158.907 406.481 158.374C405.614 157.866 404.695 157.758 403.723 158.049C402.63 158.377 401.882 159.064 401.481 160.111C401.08 161.158 401.109 162.447 401.567 163.978C402.004 165.435 402.707 166.588 403.676 167.436C404.677 168.302 405.882 168.788 407.291 168.895L405.68 170.013C404.271 169.906 403.008 169.358 401.89 168.369C400.781 167.404 399.953 166.01 399.406 164.188Z" fill="white"/>
</svg>
