<svg width="55" height="47" viewBox="0 0 55 47" fill="none" xmlns="http://www.w3.org/2000/svg">
<mask id="path-1-inside-1_3172_10034" fill="white">
<path fill-rule="evenodd" clip-rule="evenodd" d="M26.2137 45.9311C26.5458 46.0661 26.9014 46.1346 27.2601 46.1325C27.3419 46.133 27.4235 46.1298 27.5047 46.123L24.3259 39.2114L27.8462 36.1359L23.5537 31.9071L26.6427 27.6782L23.3576 24.193L27.0288 19.5022L21.623 14.8114L25.5125 10.1206L24.2579 4.09297C21.5864 1.47104 17.985 0 14.2315 0C10.4506 0 6.82393 1.49267 4.14663 4.15076C1.49011 6.82333 0 10.4316 0 14.1916C0 17.9517 1.49011 21.56 4.14663 24.2325L25.3249 45.3455C25.5796 45.597 25.8817 45.796 26.2137 45.9311ZM27.5408 46.1197L24.712 39.2114L29.1494 36.1359L25.0982 31.5226L29.1494 28.2148L25.0982 24.193L30.5688 19.5022L25.5125 14.2229L28.5187 10.6901L27.5684 7.03052L30.2038 4.15076C32.8811 1.49267 36.5078 0 40.2887 0C44.0697 0 47.6963 1.49267 50.3736 4.15076C53.0302 6.82333 54.5203 10.4316 54.5203 14.1916C54.5203 17.9517 53.0302 21.56 50.3736 24.2325L29.1954 45.3455C28.9407 45.597 28.6386 45.796 28.3065 45.9311C28.0614 46.0308 27.8034 46.0942 27.5408 46.1197Z"/>
</mask>
<path fill-rule="evenodd" clip-rule="evenodd" d="M26.2137 45.9311C26.5458 46.0661 26.9014 46.1346 27.2601 46.1325C27.3419 46.133 27.4235 46.1298 27.5047 46.123L24.3259 39.2114L27.8462 36.1359L23.5537 31.9071L26.6427 27.6782L23.3576 24.193L27.0288 19.5022L21.623 14.8114L25.5125 10.1206L24.2579 4.09297C21.5864 1.47104 17.985 0 14.2315 0C10.4506 0 6.82393 1.49267 4.14663 4.15076C1.49011 6.82333 0 10.4316 0 14.1916C0 17.9517 1.49011 21.56 4.14663 24.2325L25.3249 45.3455C25.5796 45.597 25.8817 45.796 26.2137 45.9311ZM27.5408 46.1197L24.712 39.2114L29.1494 36.1359L25.0982 31.5226L29.1494 28.2148L25.0982 24.193L30.5688 19.5022L25.5125 14.2229L28.5187 10.6901L27.5684 7.03052L30.2038 4.15076C32.8811 1.49267 36.5078 0 40.2887 0C44.0697 0 47.6963 1.49267 50.3736 4.15076C53.0302 6.82333 54.5203 10.4316 54.5203 14.1916C54.5203 17.9517 53.0302 21.56 50.3736 24.2325L29.1954 45.3455C28.9407 45.597 28.6386 45.796 28.3065 45.9311C28.0614 46.0308 27.8034 46.0942 27.5408 46.1197Z" fill="#F2F1F1"/>
<path d="M27.2601 46.1325L27.2649 45.3095L27.2554 45.3096L27.2601 46.1325ZM26.2137 45.9311L26.5238 45.1687H26.5238L26.2137 45.9311ZM27.5047 46.123L27.5735 46.943L28.7426 46.8449L28.2524 45.7791L27.5047 46.123ZM24.3259 39.2114L23.7845 38.5916L23.3212 38.9964L23.5782 39.5552L24.3259 39.2114ZM27.8462 36.1359L28.3876 36.7556L29.0555 36.1721L28.4237 35.5496L27.8462 36.1359ZM23.5537 31.9071L22.8891 31.4216L22.4703 31.995L22.9761 32.4933L23.5537 31.9071ZM26.6427 27.6782L27.3072 28.1637L27.7106 27.6114L27.2415 27.1138L26.6427 27.6782ZM23.3576 24.193L22.7095 23.6858L22.2736 24.2428L22.7587 24.7575L23.3576 24.193ZM27.0288 19.5022L27.6768 20.0094L28.159 19.3934L27.5681 18.8807L27.0288 19.5022ZM21.623 14.8114L20.9895 14.2861L20.4759 14.9056L21.0837 15.4329L21.623 14.8114ZM25.5125 10.1206L26.146 10.6458L26.3989 10.3408L26.3182 9.95287L25.5125 10.1206ZM24.2579 4.09297L25.0636 3.92527L25.0127 3.68065L24.8343 3.50563L24.2579 4.09297ZM4.14663 4.15076L3.56681 3.56674L3.56297 3.5706L4.14663 4.15076ZM4.14663 24.2325L3.56296 24.8127L3.56562 24.8153L4.14663 24.2325ZM25.3249 45.3455L24.7439 45.9283L24.7467 45.9311L25.3249 45.3455ZM27.5408 46.1197L26.7793 46.4315L27.0112 46.998L27.6205 46.9388L27.5408 46.1197ZM24.712 39.2114L24.2432 38.535L23.7 38.9115L23.9505 39.5232L24.712 39.2114ZM29.1494 36.1359L29.6182 36.8123L30.3769 36.2864L29.7678 35.5928L29.1494 36.1359ZM25.0982 31.5226L24.5777 30.8852L23.9169 31.4247L24.4798 32.0657L25.0982 31.5226ZM29.1494 28.2148L29.6699 28.8523L30.3776 28.2744L29.7292 27.6308L29.1494 28.2148ZM25.0982 24.193L24.5625 23.5683L23.8855 24.1488L24.5184 24.7771L25.0982 24.193ZM30.5688 19.5022L31.1044 20.1269L31.7645 19.5609L31.1631 18.933L30.5688 19.5022ZM25.5125 14.2229L24.8857 13.6896L24.4042 14.2555L24.9182 14.7921L25.5125 14.2229ZM28.5187 10.6901L29.1455 11.2234L29.4228 10.8975L29.3152 10.4832L28.5187 10.6901ZM27.5684 7.03052L26.9613 6.47493L26.6595 6.80469L26.7719 7.23736L27.5684 7.03052ZM30.2038 4.15076L29.624 3.56676L29.61 3.58064L29.5967 3.59517L30.2038 4.15076ZM50.3736 4.15076L50.9573 3.57059L50.9535 3.56676L50.3736 4.15076ZM50.3736 24.2325L50.9547 24.8153L50.9573 24.8127L50.3736 24.2325ZM29.1954 45.3455L29.7736 45.9311L29.7764 45.9283L29.1954 45.3455ZM28.3065 45.9311L27.9965 45.1687L27.9965 45.1687L28.3065 45.9311ZM27.2554 45.3096C27.0045 45.311 26.7558 45.2631 26.5238 45.1687L25.9037 46.6934C26.3358 46.8691 26.7984 46.9581 27.2649 46.9554L27.2554 45.3096ZM27.4359 45.3029C27.3792 45.3077 27.3221 45.3099 27.2649 45.3096L27.2554 46.9554C27.3617 46.956 27.4679 46.9519 27.5735 46.943L27.4359 45.3029ZM23.5782 39.5552L26.7571 46.4668L28.2524 45.7791L25.0736 38.8675L23.5782 39.5552ZM27.3047 35.5161L23.7845 38.5916L24.8674 39.8311L28.3876 36.7556L27.3047 35.5161ZM22.9761 32.4933L27.2686 36.7221L28.4237 35.5496L24.1312 31.3208L22.9761 32.4933ZM25.9781 27.1928L22.8891 31.4216L24.2182 32.3925L27.3072 28.1637L25.9781 27.1928ZM22.7587 24.7575L26.0438 28.2427L27.2415 27.1138L23.9564 23.6286L22.7587 24.7575ZM26.3807 18.995L22.7095 23.6858L24.0057 24.7002L27.6768 20.0094L26.3807 18.995ZM21.0837 15.4329L26.4894 20.1238L27.5681 18.8807L22.1624 14.1898L21.0837 15.4329ZM24.879 9.59529L20.9895 14.2861L22.2566 15.3367L26.146 10.6458L24.879 9.59529ZM23.4522 4.26067L24.7068 10.2883L26.3182 9.95287L25.0636 3.92527L23.4522 4.26067ZM14.2315 0.822948C17.7698 0.822948 21.1642 2.20971 23.6815 4.68031L24.8343 3.50563C22.0086 0.732375 18.2001 -0.822948 14.2315 -0.822948V0.822948ZM4.72644 4.73476C7.24921 2.2301 10.6673 0.822948 14.2315 0.822948V-0.822948C10.2339 -0.822948 6.39865 0.755239 3.56682 3.56676L4.72644 4.73476ZM0.822948 14.1916C0.822948 10.6495 2.22666 7.24967 4.73029 4.73092L3.56297 3.5706C0.753559 6.39698 -0.822948 10.2136 -0.822948 14.1916H0.822948ZM4.73029 23.6524C2.22666 21.1336 0.822948 17.7338 0.822948 14.1916H-0.822948C-0.822948 18.1697 0.753559 21.9863 3.56297 24.8127L4.73029 23.6524ZM25.9059 44.7627L4.72764 23.6497L3.56562 24.8153L24.7439 45.9283L25.9059 44.7627ZM26.5238 45.1687C26.2917 45.0744 26.0808 44.9354 25.9032 44.76L24.7467 45.9311C25.0784 46.2587 25.4716 46.5177 25.9037 46.6934L26.5238 45.1687ZM28.3024 45.8078L25.4736 38.8995L23.9505 39.5232L26.7793 46.4315L28.3024 45.8078ZM25.1808 39.8878L29.6182 36.8123L28.6807 35.4595L24.2432 38.535L25.1808 39.8878ZM29.7678 35.5928L25.7165 30.9796L24.4798 32.0657L28.5311 36.6789L29.7678 35.5928ZM25.6186 32.1601L29.6699 28.8523L28.629 27.5773L24.5777 30.8852L25.6186 32.1601ZM29.7292 27.6308L25.6779 23.609L24.5184 24.7771L28.5697 28.7988L29.7292 27.6308ZM25.6338 24.8178L31.1044 20.1269L30.0331 18.8775L24.5625 23.5683L25.6338 24.8178ZM31.1631 18.933L26.1068 13.6537L24.9182 14.7921L29.9744 20.0714L31.1631 18.933ZM26.1392 14.7562L29.1455 11.2234L27.892 10.1567L24.8857 13.6896L26.1392 14.7562ZM29.3152 10.4832L28.3649 6.82367L26.7719 7.23736L27.7222 10.8969L29.3152 10.4832ZM28.1755 7.58611L30.8109 4.70635L29.5967 3.59517L26.9613 6.47493L28.1755 7.58611ZM30.7837 4.73476C33.3064 2.2301 36.7245 0.822948 40.2887 0.822948V-0.822948C36.2911 -0.822948 32.4559 0.755239 29.624 3.56676L30.7837 4.73476ZM40.2887 0.822948C43.853 0.822948 47.2711 2.2301 49.7938 4.73476L50.9535 3.56676C48.1216 0.75524 44.2864 -0.822948 40.2887 -0.822948V0.822948ZM49.79 4.73092C52.2936 7.24967 53.6973 10.6495 53.6973 14.1916H55.3432C55.3432 10.2136 53.7667 6.39698 50.9573 3.5706L49.79 4.73092ZM53.6973 14.1916C53.6973 17.7338 52.2936 21.1336 49.79 23.6524L50.9573 24.8127C53.7667 21.9863 55.3432 18.1697 55.3432 14.1916H53.6973ZM49.7926 23.6497L28.6143 44.7627L29.7764 45.9283L50.9547 24.8153L49.7926 23.6497ZM28.6171 44.76C28.4395 44.9354 28.2286 45.0744 27.9965 45.1687L28.6165 46.6934C29.0486 46.5177 29.4419 46.2587 29.7736 45.9311L28.6171 44.76ZM27.9965 45.1687C27.8252 45.2384 27.6448 45.2828 27.4612 45.3006L27.6205 46.9388C27.962 46.9056 28.2976 46.8231 28.6166 46.6934L27.9965 45.1687Z" fill="#F2F1F1" mask="url(#path-1-inside-1_3172_10034)"/>
</svg>
