<svg width="587" height="422" viewBox="0 0 587 422" fill="none" xmlns="http://www.w3.org/2000/svg">
<mask id="path-1-outside-1_1328_1309" maskUnits="userSpaceOnUse" x="0" y="0" width="587" height="422" fill="black">
<rect fill="white" width="587" height="422"/>
<path d="M517.938 214.087C448.475 143.81 443.353 28.2967 460.152 15.5188C460.152 15.5188 474.49 -9.5275 509.414 6.17295C544.339 21.8734 585.581 117.142 585.998 213.794C586.416 310.869 531.696 394.601 509.38 413.366C487.064 432.13 461.868 413.57 461.868 413.57C441.06 403.797 453.015 289.267 517.938 214.087Z"/>
<path d="M517.938 214.087C448.475 143.81 443.353 28.2967 460.152 15.5188C460.152 15.5188 474.49 -9.5275 509.414 6.17295C544.339 21.8734 585.581 117.142 585.998 213.794C586.416 310.869 531.696 394.601 509.38 413.366C487.064 432.13 461.868 413.57 461.868 413.57C441.06 403.797 453.015 289.267 517.938 214.087Z"/>
<path d="M69.0615 214.087C138.525 143.811 143.647 28.2967 126.848 15.5188C126.848 15.5188 112.51 -9.52751 77.5857 6.17295C42.6615 21.8734 1.41901 117.142 1.00239 213.794C0.583938 310.869 55.3035 394.601 77.6196 413.366C99.9357 432.13 125.132 413.57 125.132 413.57C145.94 403.797 133.985 289.267 69.0615 214.087Z"/>
<path d="M69.0615 214.087C138.525 143.811 143.647 28.2967 126.848 15.5188C126.848 15.5188 112.51 -9.52751 77.5857 6.17295C42.6615 21.8734 1.41901 117.142 1.00239 213.794C0.583938 310.869 55.3035 394.601 77.6196 413.366C99.9357 432.13 125.132 413.57 125.132 413.57C145.94 403.797 133.985 289.267 69.0615 214.087Z"/>
<path d="M359.944 46.3263C380.024 53.3857 398.881 63.566 415.499 76.9093C415.783 77.1349 416.067 77.3605 416.36 77.5929C425.755 85.0674 434.457 93.5219 440.937 103.708C441.058 103.898 441.18 104.087 441.305 104.282C443.187 107.228 444.837 110.257 446.355 113.407C446.448 113.598 446.541 113.79 446.637 113.987C453.624 128.445 454.493 144.866 449.435 160.094C447.885 164.537 446.024 168.974 443.382 172.881C443.016 173.44 442.651 173.999 442.287 174.559C441.887 175.167 441.487 175.776 441.087 176.384C440.894 176.678 440.701 176.972 440.502 177.275C431.626 190.73 420.727 201.035 404.974 205.544C404.543 205.672 404.112 205.8 403.681 205.928C400.621 206.818 397.541 207.479 394.399 207.996C394.149 208.038 393.9 208.081 393.643 208.124C384.832 209.584 375.699 209.25 367.004 207.246C366.792 207.199 366.58 207.153 366.362 207.105C363.663 206.462 361.07 205.47 358.471 204.512C358.216 204.418 357.962 204.324 357.699 204.228C353.563 202.694 349.605 201.008 345.806 198.746C345.551 198.594 345.295 198.442 345.031 198.286C329.424 188.89 315.589 174.815 306.041 159.292C305.844 158.971 305.646 158.651 305.443 158.321C302.301 152.981 299.478 147.068 297.832 141.08C297.651 140.434 297.455 139.794 297.255 139.153C295.91 134.75 294.918 130.169 294.494 125.577C290.68 128.908 288.786 135.907 288.435 140.789C288.125 148.532 291.741 156.45 296.129 162.658C296.271 162.86 296.414 163.063 296.561 163.271C299.425 167.281 302.716 170.882 306.055 174.494C306.868 175.379 307.665 176.275 308.459 177.176C313.133 182.469 318.115 187.483 323.142 192.436C327.423 196.657 331.557 201.019 335.687 205.388C336.336 206.075 336.987 206.759 337.638 207.444C340.345 210.302 342.94 213.252 345.504 216.239C346.037 216.859 346.572 217.476 347.108 218.093C348.882 220.145 350.546 222.256 352.152 224.442C353.107 225.741 354.086 227.015 355.095 228.273C358.731 232.812 361.976 237.614 364.934 242.624C365.124 242.944 365.315 243.264 365.512 243.593C367.714 247.314 369.802 251.096 371.749 254.958C372.1 255.649 372.455 256.338 372.817 257.023C374.248 259.743 375.54 262.525 376.823 265.317C376.915 265.518 377.008 265.719 377.103 265.925C378.071 268.026 379.008 270.127 379.807 272.298C380.177 273.301 380.591 274.283 381.001 275.269C381.897 277.456 382.692 279.666 383.422 281.915C383.503 282.163 383.584 282.412 383.668 282.668C384.736 285.934 385.724 289.198 386.53 292.54C386.9 294.062 387.332 295.541 387.818 297.03C394.209 316.988 392.909 340.228 386.265 359.936C386.156 360.268 386.047 360.6 385.935 360.942C381.078 374.918 372.06 388.023 358.584 394.704C349.532 398.986 340.953 400.29 330.995 399.769C329.107 399.672 327.222 399.604 325.333 399.565C314.601 399.337 304.231 397.786 293.874 394.951C293.649 394.89 293.424 394.829 293.193 394.765C288.172 393.382 283.293 391.664 278.421 389.834C277.734 389.576 277.046 389.32 276.359 389.064C269.469 386.496 262.668 383.805 256.078 380.53C255.392 380.19 254.705 379.853 254.018 379.517C233.606 369.5 214.301 357.296 196.362 343.327C196.09 343.116 196.09 343.116 195.812 342.9C191.556 339.58 187.435 336.121 183.389 332.548C181.847 331.187 180.287 329.847 178.722 328.513C172.136 322.894 165.567 317.238 159.772 310.78C159.147 310.09 158.513 309.408 157.88 308.725C150.803 301.061 144.754 292.753 139.751 283.595C139.582 283.285 139.412 282.975 139.237 282.656C137.13 278.717 135.269 274.688 133.954 270.41C133.889 270.2 133.823 269.991 133.755 269.775C130.196 258.377 130.01 246.127 135.435 235.246C140.16 226.209 147.636 219.542 156.312 214.416C156.504 214.302 156.696 214.188 156.894 214.071C161.549 211.329 166.426 208.932 171.594 207.344C171.792 207.282 171.99 207.219 172.194 207.154C190.77 201.297 210.399 202.398 229.075 207.035C229.294 207.089 229.514 207.144 229.74 207.2C235.115 208.546 240.359 210.255 245.552 212.181C245.804 212.274 246.056 212.367 246.316 212.464C269.473 221.068 292.402 233.813 306.42 254.808C306.762 255.317 306.762 255.317 307.11 255.836C311.889 263.113 315.67 270.982 318.359 279.264C318.476 279.623 318.476 279.623 318.595 279.989C318.665 280.204 318.734 280.42 318.806 280.642C319.009 281.258 319.009 281.258 319.372 282.014C323.037 272.781 323.188 265.524 319.536 256.307C319.436 256.051 319.337 255.796 319.235 255.533C316.387 248.801 311.237 243.059 306.396 237.732C306.215 237.533 306.035 237.335 305.85 237.13C295.212 225.532 281.188 216.56 266.929 210.101C266.728 210.008 266.527 209.915 266.32 209.819C263.334 208.439 260.265 207.264 257.187 206.109C256.771 205.952 256.355 205.795 255.939 205.637C248.861 202.947 241.532 200.863 234.233 198.862C234.002 198.798 233.771 198.735 233.532 198.67C233.062 198.541 232.592 198.412 232.122 198.283C231.887 198.219 231.653 198.154 231.412 198.088C231.059 197.992 231.06 197.992 230.7 197.893C222.862 195.742 215.095 193.495 207.471 190.667C207.153 190.55 206.835 190.434 206.507 190.313C201.015 188.283 195.632 185.823 190.811 182.463C190.553 182.284 190.294 182.104 190.028 181.92C182.419 176.493 177.019 169.44 172.891 161.134C172.464 160.286 172.016 159.46 171.548 158.635C164.607 145.819 163.653 129.872 167.71 116.027C173.156 98.172 186.297 84.5252 200.52 73.1249C200.78 72.9151 201.04 72.7054 201.308 72.4892C208.351 66.8251 215.862 61.7286 223.717 57.2647C223.9 57.1598 224.083 57.0549 224.271 56.9468C229.158 54.1432 234.183 51.6687 239.289 49.2964C239.488 49.204 239.686 49.1116 239.89 49.0164C242.184 47.9492 244.484 46.9425 246.858 46.0687C247.279 45.9066 247.7 45.744 248.121 45.5808C251.593 44.253 255.109 43.1181 258.672 42.0667C258.949 41.9852 259.225 41.9037 259.509 41.8198C266.301 39.8321 273.139 38.4305 280.115 37.2711C280.367 37.2291 280.619 37.1871 280.878 37.1438C292.152 35.3073 306.476 33.936 317.613 36.9356C319.504 37.4204 321.432 37.5793 323.369 37.7927C335.817 39.2513 348.12 42.1974 359.944 46.3263Z"/>
</mask>
<path d="M517.938 214.087C448.475 143.81 443.353 28.2967 460.152 15.5188C460.152 15.5188 474.49 -9.5275 509.414 6.17295C544.339 21.8734 585.581 117.142 585.998 213.794C586.416 310.869 531.696 394.601 509.38 413.366C487.064 432.13 461.868 413.57 461.868 413.57C441.06 403.797 453.015 289.267 517.938 214.087Z" fill="#7DA6FF"/>
<path d="M517.938 214.087C448.475 143.81 443.353 28.2967 460.152 15.5188C460.152 15.5188 474.49 -9.5275 509.414 6.17295C544.339 21.8734 585.581 117.142 585.998 213.794C586.416 310.869 531.696 394.601 509.38 413.366C487.064 432.13 461.868 413.57 461.868 413.57C441.06 403.797 453.015 289.267 517.938 214.087Z" fill="#7DA6FF"/>
<path d="M69.0615 214.087C138.525 143.811 143.647 28.2967 126.848 15.5188C126.848 15.5188 112.51 -9.52751 77.5857 6.17295C42.6615 21.8734 1.41901 117.142 1.00239 213.794C0.583938 310.869 55.3035 394.601 77.6196 413.366C99.9357 432.13 125.132 413.57 125.132 413.57C145.94 403.797 133.985 289.267 69.0615 214.087Z" fill="#7DA6FF"/>
<path d="M69.0615 214.087C138.525 143.811 143.647 28.2967 126.848 15.5188C126.848 15.5188 112.51 -9.52751 77.5857 6.17295C42.6615 21.8734 1.41901 117.142 1.00239 213.794C0.583938 310.869 55.3035 394.601 77.6196 413.366C99.9357 432.13 125.132 413.57 125.132 413.57C145.94 403.797 133.985 289.267 69.0615 214.087Z" fill="#7DA6FF"/>
<path d="M359.944 46.3263C380.024 53.3857 398.881 63.566 415.499 76.9093C415.783 77.1349 416.067 77.3605 416.36 77.5929C425.755 85.0674 434.457 93.5219 440.937 103.708C441.058 103.898 441.18 104.087 441.305 104.282C443.187 107.228 444.837 110.257 446.355 113.407C446.448 113.598 446.541 113.79 446.637 113.987C453.624 128.445 454.493 144.866 449.435 160.094C447.885 164.537 446.024 168.974 443.382 172.881C443.016 173.44 442.651 173.999 442.287 174.559C441.887 175.167 441.487 175.776 441.087 176.384C440.894 176.678 440.701 176.972 440.502 177.275C431.626 190.73 420.727 201.035 404.974 205.544C404.543 205.672 404.112 205.8 403.681 205.928C400.621 206.818 397.541 207.479 394.399 207.996C394.149 208.038 393.9 208.081 393.643 208.124C384.832 209.584 375.699 209.25 367.004 207.246C366.792 207.199 366.58 207.153 366.362 207.105C363.663 206.462 361.07 205.47 358.471 204.512C358.216 204.418 357.962 204.324 357.699 204.228C353.563 202.694 349.605 201.008 345.806 198.746C345.551 198.594 345.295 198.442 345.031 198.286C329.424 188.89 315.589 174.815 306.041 159.292C305.844 158.971 305.646 158.651 305.443 158.321C302.301 152.981 299.478 147.068 297.832 141.08C297.651 140.434 297.455 139.794 297.255 139.153C295.91 134.75 294.918 130.169 294.494 125.577C290.68 128.908 288.786 135.907 288.435 140.789C288.125 148.532 291.741 156.45 296.129 162.658C296.271 162.86 296.414 163.063 296.561 163.271C299.425 167.281 302.716 170.882 306.055 174.494C306.868 175.379 307.665 176.275 308.459 177.176C313.133 182.469 318.115 187.483 323.142 192.436C327.423 196.657 331.557 201.019 335.687 205.388C336.336 206.075 336.987 206.759 337.638 207.444C340.345 210.302 342.94 213.252 345.504 216.239C346.037 216.859 346.572 217.476 347.108 218.093C348.882 220.145 350.546 222.256 352.152 224.442C353.107 225.741 354.086 227.015 355.095 228.273C358.731 232.812 361.976 237.614 364.934 242.624C365.124 242.944 365.315 243.264 365.512 243.593C367.714 247.314 369.802 251.096 371.749 254.958C372.1 255.649 372.455 256.338 372.817 257.023C374.248 259.743 375.54 262.525 376.823 265.317C376.915 265.518 377.008 265.719 377.103 265.925C378.071 268.026 379.008 270.127 379.807 272.298C380.177 273.301 380.591 274.283 381.001 275.269C381.897 277.456 382.692 279.666 383.422 281.915C383.503 282.163 383.584 282.412 383.668 282.668C384.736 285.934 385.724 289.198 386.53 292.54C386.9 294.062 387.332 295.541 387.818 297.03C394.209 316.988 392.909 340.228 386.265 359.936C386.156 360.268 386.047 360.6 385.935 360.942C381.078 374.918 372.06 388.023 358.584 394.704C349.532 398.986 340.953 400.29 330.995 399.769C329.107 399.672 327.222 399.604 325.333 399.565C314.601 399.337 304.231 397.786 293.874 394.951C293.649 394.89 293.424 394.829 293.193 394.765C288.172 393.382 283.293 391.664 278.421 389.834C277.734 389.576 277.046 389.32 276.359 389.064C269.469 386.496 262.668 383.805 256.078 380.53C255.392 380.19 254.705 379.853 254.018 379.517C233.606 369.5 214.301 357.296 196.362 343.327C196.09 343.116 196.09 343.116 195.812 342.9C191.556 339.58 187.435 336.121 183.389 332.548C181.847 331.187 180.287 329.847 178.722 328.513C172.136 322.894 165.567 317.238 159.772 310.78C159.147 310.09 158.513 309.408 157.88 308.725C150.803 301.061 144.754 292.753 139.751 283.595C139.582 283.285 139.412 282.975 139.237 282.656C137.13 278.717 135.269 274.688 133.954 270.41C133.889 270.2 133.823 269.991 133.755 269.775C130.196 258.377 130.01 246.127 135.435 235.246C140.16 226.209 147.636 219.542 156.312 214.416C156.504 214.302 156.696 214.188 156.894 214.071C161.549 211.329 166.426 208.932 171.594 207.344C171.792 207.282 171.99 207.219 172.194 207.154C190.77 201.297 210.399 202.398 229.075 207.035C229.294 207.089 229.514 207.144 229.74 207.2C235.115 208.546 240.359 210.255 245.552 212.181C245.804 212.274 246.056 212.367 246.316 212.464C269.473 221.068 292.402 233.813 306.42 254.808C306.762 255.317 306.762 255.317 307.11 255.836C311.889 263.113 315.67 270.982 318.359 279.264C318.476 279.623 318.476 279.623 318.595 279.989C318.665 280.204 318.734 280.42 318.806 280.642C319.009 281.258 319.009 281.258 319.372 282.014C323.037 272.781 323.188 265.524 319.536 256.307C319.436 256.051 319.337 255.796 319.235 255.533C316.387 248.801 311.237 243.059 306.396 237.732C306.215 237.533 306.035 237.335 305.85 237.13C295.212 225.532 281.188 216.56 266.929 210.101C266.728 210.008 266.527 209.915 266.32 209.819C263.334 208.439 260.265 207.264 257.187 206.109C256.771 205.952 256.355 205.795 255.939 205.637C248.861 202.947 241.532 200.863 234.233 198.862C234.002 198.798 233.771 198.735 233.532 198.67C233.062 198.541 232.592 198.412 232.122 198.283C231.887 198.219 231.653 198.154 231.412 198.088C231.059 197.992 231.06 197.992 230.7 197.893C222.862 195.742 215.095 193.495 207.471 190.667C207.153 190.55 206.835 190.434 206.507 190.313C201.015 188.283 195.632 185.823 190.811 182.463C190.553 182.284 190.294 182.104 190.028 181.92C182.419 176.493 177.019 169.44 172.891 161.134C172.464 160.286 172.016 159.46 171.548 158.635C164.607 145.819 163.653 129.872 167.71 116.027C173.156 98.172 186.297 84.5252 200.52 73.1249C200.78 72.9151 201.04 72.7054 201.308 72.4892C208.351 66.8251 215.862 61.7286 223.717 57.2647C223.9 57.1598 224.083 57.0549 224.271 56.9468C229.158 54.1432 234.183 51.6687 239.289 49.2964C239.488 49.204 239.686 49.1116 239.89 49.0164C242.184 47.9492 244.484 46.9425 246.858 46.0687C247.279 45.9066 247.7 45.744 248.121 45.5808C251.593 44.253 255.109 43.1181 258.672 42.0667C258.949 41.9852 259.225 41.9037 259.509 41.8198C266.301 39.8321 273.139 38.4305 280.115 37.2711C280.367 37.2291 280.619 37.1871 280.878 37.1438C292.152 35.3073 306.476 33.936 317.613 36.9356C319.504 37.4204 321.432 37.5793 323.369 37.7927C335.817 39.2513 348.12 42.1974 359.944 46.3263Z" fill="#7DA6FF"/>
<path d="M517.938 214.087C448.475 143.81 443.353 28.2967 460.152 15.5188C460.152 15.5188 474.49 -9.5275 509.414 6.17295C544.339 21.8734 585.581 117.142 585.998 213.794C586.416 310.869 531.696 394.601 509.38 413.366C487.064 432.13 461.868 413.57 461.868 413.57C441.06 403.797 453.015 289.267 517.938 214.087Z" stroke="#F2F1F1" stroke-width="0.350195" mask="url(#path-1-outside-1_1328_1309)"/>
<path d="M517.938 214.087C448.475 143.81 443.353 28.2967 460.152 15.5188C460.152 15.5188 474.49 -9.5275 509.414 6.17295C544.339 21.8734 585.581 117.142 585.998 213.794C586.416 310.869 531.696 394.601 509.38 413.366C487.064 432.13 461.868 413.57 461.868 413.57C441.06 403.797 453.015 289.267 517.938 214.087Z" stroke="#F2F1F1" stroke-width="0.350195" mask="url(#path-1-outside-1_1328_1309)"/>
<path d="M69.0615 214.087C138.525 143.811 143.647 28.2967 126.848 15.5188C126.848 15.5188 112.51 -9.52751 77.5857 6.17295C42.6615 21.8734 1.41901 117.142 1.00239 213.794C0.583938 310.869 55.3035 394.601 77.6196 413.366C99.9357 432.13 125.132 413.57 125.132 413.57C145.94 403.797 133.985 289.267 69.0615 214.087Z" stroke="#F2F1F1" stroke-width="0.350195" mask="url(#path-1-outside-1_1328_1309)"/>
<path d="M69.0615 214.087C138.525 143.811 143.647 28.2967 126.848 15.5188C126.848 15.5188 112.51 -9.52751 77.5857 6.17295C42.6615 21.8734 1.41901 117.142 1.00239 213.794C0.583938 310.869 55.3035 394.601 77.6196 413.366C99.9357 432.13 125.132 413.57 125.132 413.57C145.94 403.797 133.985 289.267 69.0615 214.087Z" stroke="#F2F1F1" stroke-width="0.350195" mask="url(#path-1-outside-1_1328_1309)"/>
<path d="M359.944 46.3263C380.024 53.3857 398.881 63.566 415.499 76.9093C415.783 77.1349 416.067 77.3605 416.36 77.5929C425.755 85.0674 434.457 93.5219 440.937 103.708C441.058 103.898 441.18 104.087 441.305 104.282C443.187 107.228 444.837 110.257 446.355 113.407C446.448 113.598 446.541 113.79 446.637 113.987C453.624 128.445 454.493 144.866 449.435 160.094C447.885 164.537 446.024 168.974 443.382 172.881C443.016 173.44 442.651 173.999 442.287 174.559C441.887 175.167 441.487 175.776 441.087 176.384C440.894 176.678 440.701 176.972 440.502 177.275C431.626 190.73 420.727 201.035 404.974 205.544C404.543 205.672 404.112 205.8 403.681 205.928C400.621 206.818 397.541 207.479 394.399 207.996C394.149 208.038 393.9 208.081 393.643 208.124C384.832 209.584 375.699 209.25 367.004 207.246C366.792 207.199 366.58 207.153 366.362 207.105C363.663 206.462 361.07 205.47 358.471 204.512C358.216 204.418 357.962 204.324 357.699 204.228C353.563 202.694 349.605 201.008 345.806 198.746C345.551 198.594 345.295 198.442 345.031 198.286C329.424 188.89 315.589 174.815 306.041 159.292C305.844 158.971 305.646 158.651 305.443 158.321C302.301 152.981 299.478 147.068 297.832 141.08C297.651 140.434 297.455 139.794 297.255 139.153C295.91 134.75 294.918 130.169 294.494 125.577C290.68 128.908 288.786 135.907 288.435 140.789C288.125 148.532 291.741 156.45 296.129 162.658C296.271 162.86 296.414 163.063 296.561 163.271C299.425 167.281 302.716 170.882 306.055 174.494C306.868 175.379 307.665 176.275 308.459 177.176C313.133 182.469 318.115 187.483 323.142 192.436C327.423 196.657 331.557 201.019 335.687 205.388C336.336 206.075 336.987 206.759 337.638 207.444C340.345 210.302 342.94 213.252 345.504 216.239C346.037 216.859 346.572 217.476 347.108 218.093C348.882 220.145 350.546 222.256 352.152 224.442C353.107 225.741 354.086 227.015 355.095 228.273C358.731 232.812 361.976 237.614 364.934 242.624C365.124 242.944 365.315 243.264 365.512 243.593C367.714 247.314 369.802 251.096 371.749 254.958C372.1 255.649 372.455 256.338 372.817 257.023C374.248 259.743 375.54 262.525 376.823 265.317C376.915 265.518 377.008 265.719 377.103 265.925C378.071 268.026 379.008 270.127 379.807 272.298C380.177 273.301 380.591 274.283 381.001 275.269C381.897 277.456 382.692 279.666 383.422 281.915C383.503 282.163 383.584 282.412 383.668 282.668C384.736 285.934 385.724 289.198 386.53 292.54C386.9 294.062 387.332 295.541 387.818 297.03C394.209 316.988 392.909 340.228 386.265 359.936C386.156 360.268 386.047 360.6 385.935 360.942C381.078 374.918 372.06 388.023 358.584 394.704C349.532 398.986 340.953 400.29 330.995 399.769C329.107 399.672 327.222 399.604 325.333 399.565C314.601 399.337 304.231 397.786 293.874 394.951C293.649 394.89 293.424 394.829 293.193 394.765C288.172 393.382 283.293 391.664 278.421 389.834C277.734 389.576 277.046 389.32 276.359 389.064C269.469 386.496 262.668 383.805 256.078 380.53C255.392 380.19 254.705 379.853 254.018 379.517C233.606 369.5 214.301 357.296 196.362 343.327C196.09 343.116 196.09 343.116 195.812 342.9C191.556 339.58 187.435 336.121 183.389 332.548C181.847 331.187 180.287 329.847 178.722 328.513C172.136 322.894 165.567 317.238 159.772 310.78C159.147 310.09 158.513 309.408 157.88 308.725C150.803 301.061 144.754 292.753 139.751 283.595C139.582 283.285 139.412 282.975 139.237 282.656C137.13 278.717 135.269 274.688 133.954 270.41C133.889 270.2 133.823 269.991 133.755 269.775C130.196 258.377 130.01 246.127 135.435 235.246C140.16 226.209 147.636 219.542 156.312 214.416C156.504 214.302 156.696 214.188 156.894 214.071C161.549 211.329 166.426 208.932 171.594 207.344C171.792 207.282 171.99 207.219 172.194 207.154C190.77 201.297 210.399 202.398 229.075 207.035C229.294 207.089 229.514 207.144 229.74 207.2C235.115 208.546 240.359 210.255 245.552 212.181C245.804 212.274 246.056 212.367 246.316 212.464C269.473 221.068 292.402 233.813 306.42 254.808C306.762 255.317 306.762 255.317 307.11 255.836C311.889 263.113 315.67 270.982 318.359 279.264C318.476 279.623 318.476 279.623 318.595 279.989C318.665 280.204 318.734 280.42 318.806 280.642C319.009 281.258 319.009 281.258 319.372 282.014C323.037 272.781 323.188 265.524 319.536 256.307C319.436 256.051 319.337 255.796 319.235 255.533C316.387 248.801 311.237 243.059 306.396 237.732C306.215 237.533 306.035 237.335 305.85 237.13C295.212 225.532 281.188 216.56 266.929 210.101C266.728 210.008 266.527 209.915 266.32 209.819C263.334 208.439 260.265 207.264 257.187 206.109C256.771 205.952 256.355 205.795 255.939 205.637C248.861 202.947 241.532 200.863 234.233 198.862C234.002 198.798 233.771 198.735 233.532 198.67C233.062 198.541 232.592 198.412 232.122 198.283C231.887 198.219 231.653 198.154 231.412 198.088C231.059 197.992 231.06 197.992 230.7 197.893C222.862 195.742 215.095 193.495 207.471 190.667C207.153 190.55 206.835 190.434 206.507 190.313C201.015 188.283 195.632 185.823 190.811 182.463C190.553 182.284 190.294 182.104 190.028 181.92C182.419 176.493 177.019 169.44 172.891 161.134C172.464 160.286 172.016 159.46 171.548 158.635C164.607 145.819 163.653 129.872 167.71 116.027C173.156 98.172 186.297 84.5252 200.52 73.1249C200.78 72.9151 201.04 72.7054 201.308 72.4892C208.351 66.8251 215.862 61.7286 223.717 57.2647C223.9 57.1598 224.083 57.0549 224.271 56.9468C229.158 54.1432 234.183 51.6687 239.289 49.2964C239.488 49.204 239.686 49.1116 239.89 49.0164C242.184 47.9492 244.484 46.9425 246.858 46.0687C247.279 45.9066 247.7 45.744 248.121 45.5808C251.593 44.253 255.109 43.1181 258.672 42.0667C258.949 41.9852 259.225 41.9037 259.509 41.8198C266.301 39.8321 273.139 38.4305 280.115 37.2711C280.367 37.2291 280.619 37.1871 280.878 37.1438C292.152 35.3073 306.476 33.936 317.613 36.9356C319.504 37.4204 321.432 37.5793 323.369 37.7927C335.817 39.2513 348.12 42.1974 359.944 46.3263Z" stroke="#F2F1F1" stroke-width="0.350195" mask="url(#path-1-outside-1_1328_1309)"/>
</svg>
