<svg width="935" height="670" viewBox="0 0 935 670" fill="none" xmlns="http://www.w3.org/2000/svg">
<path d="M826.218 339.312C715.195 227.406 707.009 43.4663 733.858 23.1192C733.858 23.1192 756.775 -16.7636 812.594 8.23721C868.413 33.238 934.33 184.941 934.996 338.845C935.665 493.424 848.207 626.755 812.54 656.635C776.872 686.515 736.6 656.961 736.6 656.961C703.343 641.398 722.451 459.026 826.218 339.312Z" fill="#7DA6FF"/>
<path d="M826.218 339.312C715.195 227.406 707.009 43.4663 733.858 23.1192C733.858 23.1192 756.775 -16.7636 812.594 8.23721C868.413 33.238 934.33 184.941 934.996 338.845C935.665 493.424 848.207 626.755 812.54 656.635C776.872 686.515 736.6 656.961 736.6 656.961C703.343 641.398 722.451 459.026 826.218 339.312Z" fill="#7DA6FF"/>
<path d="M108.782 339.312C219.805 227.406 227.991 43.4663 201.142 23.1192C201.142 23.1192 178.225 -16.7636 122.406 8.23721C66.5871 33.238 0.669696 184.941 0.00381439 338.845C-0.664988 493.424 86.7928 626.755 122.46 656.635C158.128 686.515 198.4 656.961 198.4 656.961C231.657 641.398 212.549 459.026 108.782 339.312Z" fill="#7DA6FF"/>
<path d="M108.782 339.312C219.805 227.406 227.991 43.4663 201.142 23.1192C201.142 23.1192 178.225 -16.7636 122.406 8.23721C66.5871 33.238 0.669696 184.941 0.00381439 338.845C-0.664988 493.424 86.7928 626.755 122.46 656.635C158.128 686.515 198.4 656.961 198.4 656.961C231.657 641.398 212.549 459.026 108.782 339.312Z" fill="#7DA6FF"/>
<path d="M573.697 72.1759C605.79 83.417 635.93 99.6276 662.49 120.875C662.944 121.234 663.398 121.593 663.865 121.964C678.882 133.866 692.79 147.328 703.147 163.549C703.341 163.85 703.535 164.151 703.735 164.462C706.743 169.153 709.38 173.977 711.806 178.992C711.955 179.297 712.104 179.602 712.257 179.916C723.425 202.938 724.813 229.087 716.729 253.336C714.252 260.41 711.278 267.476 707.055 273.697C706.471 274.587 705.887 275.477 705.304 276.368C704.666 277.337 704.027 278.306 703.388 279.274C703.079 279.743 702.771 280.211 702.453 280.693C688.266 302.119 670.846 318.528 645.668 325.708C644.979 325.912 644.29 326.115 643.601 326.319C638.71 327.737 633.788 328.789 628.766 329.612C628.367 329.68 627.968 329.747 627.557 329.817C613.475 332.141 598.878 331.609 584.981 328.418C584.642 328.344 584.304 328.27 583.955 328.193C579.641 327.17 575.496 325.59 571.342 324.065C570.935 323.915 570.528 323.766 570.109 323.612C563.498 321.17 557.173 318.486 551.101 314.883C550.692 314.641 550.283 314.399 549.862 314.15C524.916 299.189 502.804 276.776 487.544 252.058C487.229 251.548 486.913 251.037 486.588 250.511C481.567 242.009 477.055 232.594 474.424 223.058C474.135 222.029 473.821 221.01 473.502 219.989C471.353 212.979 469.766 205.684 469.089 198.372C462.992 203.676 459.965 214.821 459.404 222.594C458.909 234.925 464.688 247.533 471.702 257.418C471.929 257.74 472.157 258.062 472.392 258.394C476.97 264.78 482.23 270.513 487.567 276.266C488.866 277.674 490.14 279.102 491.409 280.536C498.88 288.965 506.841 296.948 514.877 304.835C521.718 311.557 528.326 318.503 534.927 325.46C535.964 326.553 537.005 327.643 538.046 328.734C542.371 333.285 546.52 337.982 550.617 342.738C551.469 343.725 552.325 344.709 553.182 345.691C556.017 348.958 558.676 352.319 561.243 355.801C562.769 357.87 564.334 359.897 565.946 361.9C571.759 369.128 576.945 376.775 581.672 384.752C581.977 385.262 582.281 385.771 582.596 386.296C586.115 392.221 589.453 398.244 592.565 404.393C593.125 405.493 593.693 406.59 594.272 407.681C596.56 412.012 598.623 416.442 600.674 420.889C600.822 421.208 600.97 421.528 601.122 421.857C602.669 425.201 604.167 428.547 605.443 432.005C606.036 433.601 606.697 435.165 607.353 436.735C608.784 440.218 610.054 443.737 611.221 447.318C611.351 447.714 611.481 448.109 611.615 448.517C613.321 453.717 614.901 458.916 616.189 464.237C616.78 466.661 617.47 469.015 618.247 471.386C628.462 503.168 626.384 540.174 615.765 571.555C615.591 572.084 615.417 572.613 615.237 573.157C607.475 595.412 593.061 616.28 571.523 626.919C557.055 633.737 543.343 635.813 527.427 634.985C524.411 634.83 521.398 634.721 518.378 634.659C501.226 634.296 484.651 631.827 468.097 627.313C467.738 627.215 467.379 627.117 467.009 627.017C458.984 624.815 451.186 622.079 443.399 619.164C442.301 618.754 441.202 618.345 440.103 617.938C429.091 613.848 418.221 609.564 407.688 604.349C406.593 603.808 405.494 603.272 404.396 602.736C371.771 586.784 340.917 567.352 312.245 545.109C311.81 544.772 311.81 544.772 311.366 544.428C304.564 539.142 297.977 533.633 291.51 527.944C289.046 525.776 286.553 523.643 284.052 521.519C273.525 512.571 263.027 503.565 253.763 493.282C252.765 492.182 251.752 491.097 250.739 490.01C239.429 477.806 229.761 464.576 221.765 449.993C221.494 449.5 221.223 449.007 220.943 448.498C217.575 442.227 214.601 435.81 212.5 428.998C212.395 428.664 212.289 428.33 212.181 427.986C206.493 409.837 206.196 390.331 214.867 373.004C222.418 358.614 234.368 347.997 248.234 339.835C248.541 339.654 248.847 339.472 249.163 339.285C256.605 334.92 264.398 331.103 272.66 328.575C272.976 328.475 273.292 328.375 273.619 328.272C303.307 318.945 334.68 320.699 364.53 328.082C364.88 328.169 365.231 328.256 365.593 328.345C374.184 330.488 382.565 333.209 390.865 336.276C391.268 336.425 391.671 336.573 392.086 336.726C429.098 350.428 465.746 370.722 488.15 404.154C488.696 404.964 488.696 404.964 489.252 405.79C496.892 417.379 502.935 429.909 507.232 443.096C507.419 443.668 507.419 443.668 507.609 444.251C507.721 444.594 507.832 444.938 507.947 445.291C508.271 446.271 508.271 446.271 508.851 447.477C514.709 432.774 514.95 421.218 509.113 406.541C508.954 406.134 508.795 405.727 508.631 405.308C504.079 394.589 495.848 385.445 488.111 376.963C487.823 376.646 487.535 376.33 487.238 376.004C470.237 357.536 447.822 343.249 425.032 332.964C424.711 332.816 424.389 332.668 424.059 332.515C419.286 330.318 414.381 328.447 409.461 326.607C408.796 326.358 408.131 326.108 407.467 325.856C396.154 321.573 384.439 318.255 372.774 315.068C372.405 314.967 372.035 314.866 371.654 314.761C370.903 314.556 370.151 314.351 369.4 314.146C369.025 314.043 368.651 313.941 368.265 313.836C367.702 313.682 367.702 313.682 367.127 313.525C354.6 310.099 342.187 306.522 330.001 302.019C329.492 301.833 328.984 301.647 328.46 301.455C319.682 298.222 311.079 294.305 303.374 288.955C302.96 288.669 302.547 288.384 302.121 288.089C289.96 279.448 281.329 268.218 274.731 254.991C274.049 253.64 273.334 252.326 272.585 251.012C261.492 230.604 259.967 205.21 266.451 183.165C275.156 154.733 296.158 133.002 318.891 114.849C319.307 114.515 319.723 114.181 320.151 113.837C331.408 104.817 343.412 96.7019 355.967 89.5937C356.259 89.4266 356.551 89.2596 356.852 89.0875C364.663 84.6231 372.694 80.6828 380.856 76.9053C381.172 76.7581 381.489 76.611 381.816 76.4595C385.482 74.7601 389.158 73.1571 392.953 71.7656C393.626 71.5076 394.299 71.2486 394.971 70.9887C400.52 68.8744 406.14 67.0673 411.836 65.393C412.277 65.2632 412.718 65.1335 413.173 64.9998C424.028 61.8348 434.957 59.6029 446.107 57.7567C446.51 57.6898 446.912 57.6229 447.327 57.5539C465.345 54.6297 488.24 52.4459 506.039 57.2225C509.061 57.9945 512.143 58.2475 515.239 58.5873C535.134 60.9099 554.798 65.6011 573.697 72.1759Z" fill="#7DA6FF"/>
</svg>
