<svg width="130" height="130" viewBox="0 0 130 130" fill="none" xmlns="http://www.w3.org/2000/svg">
<path fill-rule="evenodd" clip-rule="evenodd" d="M65 0C29.1015 0 0 29.1015 0 65C0 100.899 29.1015 130 65 130C100.899 130 130 100.899 130 65C130 29.1015 100.899 0 65 0ZM70.3268 84.2464C70.3268 85.2447 69.5797 86.0993 68.5845 86.1792C45.8617 88.0018 37.0309 61.9224 32.677 47.4719C32.2909 46.1904 33.2554 44.9062 34.5939 44.9062H42.0514C42.8463 44.9062 43.5662 45.3763 43.8797 46.1068C44.3727 47.2559 44.8626 48.4229 45.3524 49.5898C48.6228 57.3806 51.8923 65.169 56.0845 67.6225C57.1243 68.231 58.2102 67.308 58.2102 66.1033V50.0483V46.9062C58.2102 45.8017 59.1056 44.9062 60.2102 44.9062H68.3268C69.4314 44.9062 70.3268 45.8017 70.3268 46.9062V61.7998C70.3268 63.4649 72.202 64.342 73.3225 63.1102C76.4454 59.6773 78.4606 55.5887 80.4744 51.5028C81.4093 49.6061 82.3438 47.71 83.3888 45.8803C83.7364 45.2717 84.3886 44.9062 85.0895 44.9062H92.3864C93.6809 44.9062 94.6357 46.1191 94.2609 47.3582C92.125 54.4198 88.6198 59.6341 85.11 64.8554C84.9706 65.0626 84.8313 65.2699 84.6921 65.4773C84.1439 66.2937 84.2793 67.3837 84.9801 68.0735C89.3655 72.3898 92.9992 77.5361 95.7082 83.2614C96.3163 84.5467 95.352 85.9879 93.9302 85.9879H85.6383C85.1278 85.9879 84.6339 85.7952 84.2754 85.4318C83.1 84.2404 82.0632 82.9393 81.0364 81.6508C78.6886 78.7044 76.3931 75.8238 72.6122 74.4699C71.4486 74.0533 70.3268 75.0056 70.3268 76.2416V84.2464Z" fill="#F2F1F1"/>
</svg>
