<svg width="114" height="100" viewBox="0 0 114 100" fill="none" xmlns="http://www.w3.org/2000/svg">
<path d="M112.873 30.0495C114.278 28.7018 114.278 26.5169 112.873 25.1693C111.469 23.8217 109.191 23.8217 107.786 25.1693L112.873 30.0495ZM35.4101 96.0251C35.4101 97.9309 37.0208 99.4759 39.0076 99.4759L71.3842 99.4759C73.371 99.4759 74.9816 97.9309 74.9816 96.0251C74.9816 94.1193 73.371 92.5743 71.3842 92.5743L42.605 92.5743L42.605 64.9678C42.605 63.062 40.9943 61.517 39.0075 61.517C37.0208 61.517 35.4101 63.062 35.4101 64.9678L35.4101 96.0251ZM107.786 25.1693L36.4638 93.585L41.5513 98.4652L112.873 30.0495L107.786 25.1693Z" fill="#7DA6FF"/>
<path d="M1.21504 69.6146C-0.189833 70.9622 -0.189833 73.1472 1.21504 74.4948C2.61991 75.8424 4.89766 75.8424 6.30254 74.4948L1.21504 69.6146ZM78.6783 3.63898C78.6783 1.73315 77.0677 0.188172 75.0809 0.188174L42.7043 0.188175C40.7175 0.188177 39.1069 1.73316 39.1069 3.63898C39.1069 5.54481 40.7175 7.08979 42.7043 7.08979L71.4835 7.08979L71.4835 34.6962C71.4835 36.6021 73.0941 38.147 75.0809 38.147C77.0677 38.1471 78.6783 36.6021 78.6783 34.6962L78.6783 3.63898ZM6.30254 74.4948L77.6246 6.07907L72.5371 1.19889L1.21504 69.6146L6.30254 74.4948Z" fill="#7DA6FF"/>
</svg>
