<svg width="940" height="668" viewBox="0 0 940 668" fill="none" xmlns="http://www.w3.org/2000/svg">
<path d="M830.636 338.299C719.02 226.727 710.79 43.3365 737.782 23.0502C737.782 23.0502 760.822 -16.7136 816.939 8.21262C873.057 33.1388 939.327 184.389 939.996 337.833C940.669 491.951 852.743 624.884 816.885 654.675C781.026 684.466 740.539 655 740.539 655C707.104 639.483 726.314 457.656 830.636 338.299Z" fill="#FFBE3D"/>
<path d="M830.636 338.299C719.02 226.727 710.79 43.3365 737.782 23.0502C737.782 23.0502 760.822 -16.7136 816.939 8.21262C873.057 33.1388 939.327 184.389 939.996 337.833C940.669 491.951 852.743 624.884 816.885 654.675C781.026 684.466 740.539 655 740.539 655C707.104 639.483 726.314 457.656 830.636 338.299Z" fill="#FFBE3D"/>
<path d="M109.364 338.299C220.98 226.727 229.21 43.3365 202.218 23.0502C202.218 23.0502 179.178 -16.7136 123.061 8.21262C66.9432 33.1388 0.673277 184.389 0.00383479 337.833C-0.668544 491.951 87.2569 624.884 123.115 654.675C158.974 684.466 199.461 655 199.461 655C232.896 639.483 213.686 457.656 109.364 338.299Z" fill="#FFBE3D"/>
<path d="M109.364 338.299C220.98 226.727 229.21 43.3365 202.218 23.0502C202.218 23.0502 179.178 -16.7136 123.061 8.21262C66.9432 33.1388 0.673277 184.389 0.00383479 337.833C-0.668544 491.951 87.2569 624.884 123.115 654.675C158.974 684.466 199.461 655 199.461 655C232.896 639.483 213.686 457.656 109.364 338.299Z" fill="#FFBE3D"/>
<path d="M576.765 71.9604C609.029 83.168 639.33 99.3302 666.032 120.514C666.489 120.872 666.945 121.231 667.415 121.6C682.513 133.466 696.495 146.888 706.907 163.061C707.102 163.361 707.297 163.661 707.498 163.971C710.523 168.648 713.174 173.458 715.613 178.458C715.762 178.762 715.912 179.066 716.066 179.379C727.293 202.333 728.689 228.403 720.562 252.58C718.072 259.632 715.082 266.678 710.836 272.88C710.249 273.767 709.662 274.655 709.076 275.543C708.434 276.509 707.792 277.475 707.149 278.441C706.839 278.908 706.529 279.374 706.209 279.855C691.946 301.217 674.434 317.577 649.12 324.736C648.428 324.939 647.735 325.142 647.042 325.345C642.126 326.759 637.177 327.807 632.128 328.628C631.727 328.696 631.326 328.763 630.913 328.832C616.756 331.15 602.081 330.619 588.109 327.438C587.769 327.364 587.428 327.29 587.078 327.213C582.741 326.193 578.574 324.619 574.397 323.097C573.988 322.949 573.579 322.8 573.158 322.646C566.512 320.211 560.152 317.535 554.048 313.943C553.637 313.702 553.226 313.461 552.802 313.212C527.723 298.296 505.493 275.95 490.151 251.306C489.834 250.797 489.517 250.288 489.19 249.763C484.142 241.286 479.606 231.9 476.961 222.393C476.67 221.366 476.355 220.35 476.034 219.333C473.873 212.343 472.278 205.07 471.598 197.779C465.468 203.068 462.425 214.18 461.861 221.93C461.363 234.224 467.173 246.794 474.224 256.65C474.453 256.971 474.682 257.292 474.918 257.623C479.521 263.99 484.809 269.705 490.175 275.441C491.48 276.845 492.761 278.269 494.037 279.699C501.548 288.102 509.552 296.062 517.63 303.925C524.508 310.627 531.151 317.552 537.787 324.489C538.831 325.578 539.877 326.665 540.923 327.753C545.272 332.29 549.442 336.973 553.562 341.715C554.418 342.699 555.278 343.68 556.14 344.659C558.99 347.916 561.664 351.267 564.244 354.739C565.779 356.801 567.352 358.823 568.973 360.82C574.816 368.026 580.031 375.651 584.782 383.604C585.089 384.112 585.395 384.62 585.711 385.143C589.249 391.05 592.605 397.055 595.734 403.185C596.297 404.283 596.868 405.377 597.45 406.464C599.75 410.782 601.824 415.199 603.886 419.632C604.035 419.951 604.184 420.269 604.337 420.598C605.891 423.932 607.398 427.268 608.681 430.716C609.277 432.307 609.941 433.866 610.6 435.432C612.04 438.904 613.316 442.413 614.489 445.983C614.62 446.377 614.751 446.772 614.886 447.178C616.601 452.363 618.189 457.546 619.484 462.851C620.079 465.268 620.772 467.615 621.553 469.979C631.823 501.666 629.734 538.562 619.058 569.849C618.883 570.376 618.708 570.903 618.528 571.446C610.724 593.635 596.233 614.441 574.579 625.047C560.034 631.846 546.248 633.916 530.248 633.089C527.215 632.935 524.186 632.826 521.151 632.765C503.907 632.403 487.242 629.941 470.6 625.44C470.239 625.343 469.878 625.246 469.506 625.145C461.439 622.949 453.599 620.222 445.77 617.316C444.666 616.906 443.561 616.5 442.457 616.093C431.385 612.016 420.458 607.744 409.868 602.545C408.767 602.006 407.663 601.471 406.558 600.937C373.759 585.033 342.74 565.659 313.915 543.482C313.478 543.146 313.478 543.146 313.031 542.803C306.192 537.533 299.57 532.041 293.069 526.368C290.591 524.207 288.086 522.08 285.571 519.962C274.987 511.041 264.433 502.062 255.12 491.81C254.116 490.713 253.098 489.631 252.08 488.547C240.709 476.38 230.99 463.189 222.951 448.65C222.678 448.158 222.406 447.666 222.125 447.16C218.739 440.907 215.749 434.509 213.636 427.718C213.53 427.385 213.424 427.052 213.315 426.709C207.597 408.614 207.298 389.166 216.016 371.891C223.608 357.544 235.621 346.959 249.562 338.821C249.87 338.64 250.178 338.459 250.496 338.273C257.977 333.92 265.812 330.115 274.118 327.594C274.436 327.494 274.754 327.395 275.082 327.292C304.929 317.993 336.47 319.741 366.479 327.103C366.832 327.189 367.184 327.276 367.548 327.365C376.185 329.501 384.611 332.214 392.955 335.272C393.36 335.42 393.765 335.569 394.182 335.721C431.393 349.382 468.236 369.616 490.761 402.948C491.309 403.755 491.309 403.755 491.869 404.579C499.549 416.133 505.624 428.626 509.945 441.773C510.132 442.344 510.132 442.344 510.324 442.925C510.436 443.267 510.548 443.609 510.663 443.962C510.989 444.939 510.989 444.939 511.572 446.141C517.461 431.482 517.704 419.96 511.835 405.327C511.676 404.922 511.516 404.516 511.351 404.098C506.775 393.412 498.5 384.294 490.721 375.837C490.432 375.522 490.142 375.207 489.844 374.882C472.751 356.469 450.217 342.224 427.305 331.97C426.982 331.822 426.659 331.675 426.326 331.522C421.528 329.332 416.597 327.466 411.651 325.632C410.982 325.384 410.314 325.134 409.646 324.883C398.272 320.613 386.495 317.305 374.768 314.127C374.396 314.026 374.025 313.926 373.642 313.822C372.886 313.617 372.131 313.413 371.375 313.208C370.999 313.106 370.622 313.004 370.234 312.899C369.668 312.746 369.668 312.746 369.091 312.589C356.497 309.174 344.017 305.607 331.766 301.117C331.254 300.932 330.743 300.746 330.216 300.555C321.392 297.332 312.743 293.426 304.996 288.092C304.58 287.807 304.165 287.523 303.737 287.229C291.511 278.614 282.834 267.417 276.201 254.23C275.515 252.883 274.796 251.573 274.043 250.263C262.89 229.916 261.357 204.598 267.876 182.618C276.627 154.271 297.742 132.605 320.596 114.506C321.014 114.173 321.432 113.84 321.863 113.497C333.18 104.504 345.248 96.4132 357.871 89.3262C358.164 89.1597 358.458 88.9931 358.76 88.8215C366.613 84.3705 374.687 80.442 382.892 76.6757C383.211 76.529 383.529 76.3823 383.858 76.2312C387.543 74.537 391.239 72.9387 395.054 71.5514C395.731 71.2941 396.407 71.0359 397.083 70.7768C402.662 68.6688 408.311 66.8671 414.038 65.1978C414.482 65.0684 414.925 64.9391 415.383 64.8058C426.296 61.6502 437.283 59.425 448.493 57.5843C448.897 57.5176 449.302 57.4509 449.719 57.3821C467.833 54.4666 490.85 52.2894 508.745 57.0517C511.783 57.8214 514.882 58.0737 517.994 58.4124C537.996 60.7281 557.765 65.4053 576.765 71.9604Z" fill="#FFBE3D"/>
</svg>
