<svg width="474" height="473" viewBox="0 0 474 473" fill="none" xmlns="http://www.w3.org/2000/svg">
<path d="M424.67 248.692C424.763 246.689 425.282 244.912 426.229 243.361C427.2 241.837 428.477 240.661 430.059 239.834C431.666 239.008 433.471 238.641 435.474 238.734C437.502 238.828 439.266 239.36 440.764 240.33C442.263 241.3 443.413 242.588 444.213 244.194C445.012 245.827 445.365 247.644 445.273 249.646C445.193 251.367 444.787 252.904 444.055 254.26C443.324 255.615 442.272 256.66 440.9 257.394L439.608 255.289C440.667 254.643 441.464 253.818 442 252.814C442.535 251.809 442.831 250.704 442.887 249.497C442.953 248.06 442.68 246.748 442.066 245.561C441.477 244.376 440.608 243.423 439.458 242.7C438.308 241.978 436.937 241.58 435.346 241.506C433.754 241.433 432.352 241.702 431.14 242.315C429.928 242.928 428.962 243.796 428.241 244.921C427.545 246.046 427.164 247.328 427.098 248.766C427.042 249.972 427.234 251.1 427.674 252.15C428.114 253.199 428.819 254.094 429.788 254.834L428.307 256.81C427.035 255.954 426.084 254.816 425.455 253.398C424.852 251.98 424.59 250.412 424.67 248.692Z" fill="white"/>
<path d="M418.263 287.811L437.584 293.841L436.768 296.453L428.23 293.789L424.429 305.97L432.967 308.635L432.151 311.247L412.831 305.218L413.646 302.605L422.184 305.27L425.985 293.089L417.448 290.424L418.263 287.811Z" fill="white"/>
<path d="M394.854 338.891C395.89 337.235 397.195 335.975 398.767 335.11C400.348 334.28 402.031 333.893 403.815 333.949C405.621 334.018 407.374 334.585 409.073 335.648C410.794 336.726 412.069 338.055 412.899 339.635C413.729 341.216 414.105 342.892 414.027 344.662C413.95 346.433 413.386 348.157 412.336 349.835C411.272 351.534 409.961 352.805 408.402 353.648C406.83 354.514 405.158 354.907 403.387 354.83C401.603 354.774 399.85 354.208 398.129 353.13C396.43 352.067 395.155 350.738 394.303 349.143C393.46 347.584 393.073 345.902 393.142 344.096C393.233 342.303 393.804 340.568 394.854 338.891ZM396.913 340.18C396.135 341.421 395.719 342.692 395.664 343.991C395.63 345.304 395.944 346.547 396.605 347.719C397.274 348.926 398.273 349.946 399.602 350.778C400.953 351.623 402.306 352.076 403.663 352.137C405.006 352.22 406.25 351.952 407.394 351.335C408.561 350.731 409.526 349.819 410.29 348.599C411.053 347.379 411.452 346.113 411.486 344.799C411.541 343.5 411.245 342.253 410.597 341.06C409.95 339.866 408.951 338.846 407.6 338.001C406.271 337.169 404.918 336.716 403.539 336.641C402.183 336.58 400.921 336.852 399.755 337.456C398.61 338.074 397.663 338.981 396.913 340.18Z" fill="white"/>
<path d="M370.253 369.664L384.195 384.334L377.712 390.496C376.054 392.072 374.449 392.994 372.897 393.264C371.327 393.551 369.957 393.08 368.788 391.85C367.655 390.658 367.235 389.302 367.528 387.783C367.839 386.282 368.74 384.823 370.23 383.407L370.397 384.365C368.646 386.029 367.05 386.925 365.611 387.052C364.172 387.179 362.868 386.628 361.699 385.398C360.495 384.131 360.022 382.701 360.281 381.108C360.539 379.551 361.637 377.852 363.574 376.011L370.253 369.664ZM369.812 373.061L365.145 377.496C363.897 378.682 363.142 379.772 362.88 380.765C362.618 381.795 362.912 382.757 363.761 383.651C364.611 384.545 365.52 384.923 366.487 384.784C367.454 384.645 368.561 383.982 369.81 382.796L374.672 378.175L369.812 373.061ZM376.079 379.656L371.664 383.852C370.528 384.932 369.865 385.97 369.676 386.965C369.469 387.977 369.754 388.894 370.533 389.713C371.312 390.533 372.204 390.856 373.208 390.681C374.194 390.524 375.255 389.906 376.391 388.826L380.807 384.63L376.079 379.656Z" fill="white"/>
<path d="M332.357 399.055L342.002 416.848L339.596 418.153L331.935 404.019L327.7 424.601L325.564 425.758L315.92 407.965L318.326 406.66L326.005 420.827L330.188 400.23L332.357 399.055Z" fill="white"/>
<path d="M268.522 423.7L271.992 439.87L281.528 437.824L280.808 433.365C280.572 432.023 280.38 430.697 280.23 429.389C280.056 428.086 279.991 426.864 280.036 425.724C280.06 424.615 280.239 423.67 280.571 422.889C280.908 422.133 281.443 421.624 282.175 421.362L284.956 421.277C284.172 421.419 283.59 421.833 283.212 422.519C282.839 423.23 282.624 424.13 282.569 425.22C282.514 426.31 282.563 427.521 282.718 428.855C282.878 430.214 283.069 431.592 283.29 432.99L284.442 439.643L269.817 442.782L265.845 424.274L268.522 423.7ZM284.257 413.975L285.785 421.099L262.981 425.993L261.452 418.869L263.978 418.327L265.005 423.114L282.759 419.304L281.731 414.517L284.257 413.975Z" fill="white"/>
<path d="M224.964 424.223C227.07 424.32 228.898 424.842 230.449 425.789C231.999 426.761 233.188 428.039 234.015 429.621C234.841 431.228 235.208 433.034 235.115 435.036C235.022 437.039 234.516 438.79 233.598 440.291C232.653 441.791 231.417 442.943 229.887 443.747C228.331 444.576 226.615 444.946 224.741 444.86C222.842 444.771 221.18 444.257 219.757 443.316C218.307 442.4 217.195 441.139 216.421 439.534C215.645 437.954 215.304 436.15 215.398 434.122C215.404 433.994 215.423 433.853 215.456 433.7C215.462 433.572 215.468 433.431 215.476 433.277L233.075 434.092L232.98 436.133L216.844 435.386L217.96 434.627C217.892 436.09 218.153 437.402 218.743 438.561C219.305 439.745 220.111 440.683 221.159 441.375C222.208 442.066 223.438 442.445 224.85 442.51C226.237 442.575 227.497 442.311 228.63 441.721C229.764 441.13 230.666 440.271 231.335 439.145C232.005 438.018 232.374 436.71 232.443 435.221L232.463 434.797C232.534 433.257 232.264 431.881 231.651 430.669C231.011 429.481 230.104 428.526 228.928 427.803C227.725 427.104 226.341 426.718 224.775 426.645C223.543 426.588 222.39 426.754 221.317 427.141C220.219 427.528 219.264 428.152 218.452 429.015L216.993 427.172C217.942 426.136 219.11 425.367 220.497 424.865C221.858 424.362 223.347 424.148 224.964 424.223Z" fill="white"/>
<path d="M186.398 417.902L180.441 437.245L177.825 436.44L180.457 427.892L168.262 424.137L165.63 432.685L163.014 431.879L168.97 412.536L171.586 413.341L168.954 421.889L181.15 425.645L183.782 417.097L186.398 417.902Z" fill="white"/>
<path d="M142.374 399.296L131.572 416.412L129.257 414.951L137.837 401.356L117.814 407.729L115.76 406.432L126.562 389.317L128.877 390.778L120.277 404.405L140.288 397.979L142.374 399.296Z" fill="white"/>
<path d="M91.2482 355.629L85.8054 360.473L85.9042 359.714L90.4662 364.84C92.192 366.78 93.1194 368.672 93.2486 370.518C93.3778 372.364 92.636 374.005 91.0234 375.44C89.2955 376.978 87.488 377.537 85.601 377.118C83.6948 376.716 81.8703 375.536 80.1275 373.577L74.4634 367.213L89.5823 353.757L91.2482 355.629ZM101.09 366.688L91.5821 367.718L89.6855 365.587L99.1165 364.47L101.09 366.688ZM85.2006 361.011L77.31 368.034L77.5816 367.121L81.8617 371.931C83.109 373.332 84.3517 374.187 85.5898 374.496C86.8109 374.786 88.0261 374.392 89.2356 373.316C91.4819 371.317 91.332 368.887 88.7862 366.026L84.3779 361.073L85.2006 361.011Z" fill="white"/>
<path d="M58.0878 293.723C58.7281 295.623 58.8888 297.467 58.5697 299.256C58.2181 301.029 57.4553 302.588 56.2814 303.933C55.0831 305.286 53.5341 306.283 51.6345 306.923C49.7105 307.572 47.8742 307.716 46.1256 307.356C44.377 306.997 42.8383 306.213 41.5095 305.007C40.1724 303.776 39.1838 302.211 38.5434 300.311C37.9934 298.68 37.8133 297.099 38.0032 295.571C38.1931 294.042 38.794 292.687 39.8059 291.505L41.7737 292.998C41.0212 293.984 40.5778 295.042 40.4434 296.172C40.3091 297.302 40.4348 298.44 40.8207 299.584C41.2804 300.948 42.0116 302.071 43.0142 302.954C43.9925 303.845 45.1486 304.418 46.4823 304.673C47.816 304.929 49.2379 304.802 50.7479 304.293C52.2578 303.784 53.4663 303.024 54.3731 302.013C55.28 301.002 55.8653 299.842 56.1291 298.533C56.3685 297.232 56.2583 295.899 55.7986 294.535C55.4127 293.391 54.8243 292.409 54.0331 291.591C53.242 290.773 52.2607 290.195 51.0893 289.858L51.7517 287.478C53.2483 287.815 54.547 288.529 55.6479 289.623C56.7244 290.725 57.5377 292.091 58.0878 293.723Z" fill="white"/>
<path d="M49.9349 255.295L29.7443 256.699L29.5544 253.969L38.4767 253.348L37.5914 240.619L28.669 241.239L28.4791 238.509L48.6697 237.104L48.8596 239.835L39.9373 240.455L40.8227 253.185L49.745 252.565L49.9349 255.295Z" fill="white"/>
<path d="M53.021 199.238C52.6624 201.158 51.9096 202.808 50.7628 204.189C49.5955 205.539 48.1713 206.515 46.4903 207.116C44.784 207.713 42.9456 207.827 40.975 207.459C38.9792 207.086 37.3059 206.316 35.9553 205.149C34.6046 203.981 33.6413 202.56 33.0655 200.883C32.4896 199.207 32.3834 197.396 32.7467 195.451C33.1148 193.48 33.8699 191.817 35.0119 190.462C36.1588 189.081 37.5703 188.103 39.2466 187.527C40.9276 186.926 42.766 186.812 44.7618 187.185C46.7324 187.553 48.4057 188.323 49.7816 189.495C51.137 190.637 52.1129 192.061 52.7093 193.767C53.2804 195.469 53.3843 197.292 53.021 199.238ZM50.6335 198.792C50.9025 197.352 50.825 196.017 50.401 194.787C49.9518 193.553 49.2051 192.512 48.1609 191.663C47.0962 190.784 45.7933 190.201 44.2522 189.913C42.6858 189.621 41.2602 189.694 39.9754 190.134C38.6953 190.549 37.6357 191.253 36.7964 192.246C35.9319 193.235 35.3676 194.437 35.1033 195.852C34.8391 197.267 34.9316 198.591 35.3808 199.825C35.8048 201.055 36.5365 202.107 37.576 202.981C38.6154 203.855 39.9183 204.438 41.4847 204.73C43.0258 205.018 44.4514 204.945 45.7615 204.51C47.0463 204.07 48.1209 203.355 48.9854 202.366C49.8246 201.373 50.374 200.181 50.6335 198.792Z" fill="white"/>
<path d="M64.6085 161.629L46.3066 152.988L50.1253 144.9C51.1019 142.832 52.2651 141.391 53.6149 140.579C54.9757 139.744 56.423 139.688 57.9569 140.412C59.4443 141.115 60.3258 142.227 60.6016 143.75C60.8541 145.262 60.5414 146.948 59.6635 148.807L59.1619 147.973C60.1934 145.788 61.3572 144.377 62.6535 143.738C63.9497 143.1 65.3648 143.143 66.8986 143.867C68.479 144.613 69.4364 145.776 69.7709 147.355C70.0931 148.9 69.6836 150.88 68.5424 153.297L64.6085 161.629ZM63.792 158.302L66.5408 152.48C67.276 150.923 67.5861 149.634 67.4712 148.614C67.3439 147.559 66.7225 146.768 65.607 146.241C64.4915 145.715 63.508 145.691 62.6565 146.17C61.805 146.649 61.0117 147.667 60.2765 149.224L57.4125 155.29L63.792 158.302ZM55.5649 154.418L58.1655 148.91C58.8349 147.492 59.0779 146.285 58.8945 145.289C58.7221 144.27 58.1246 143.518 57.102 143.036C56.0794 142.553 55.1314 142.574 54.258 143.1C53.3956 143.602 52.6297 144.562 51.9603 145.98L49.3597 151.488L55.5649 154.418Z" fill="white"/>
<path d="M89.52 120.029L74.1111 106.907L75.8858 104.823L88.1249 115.246L84.6591 94.5209L86.2338 92.6718L101.643 105.794L99.868 107.878L87.5996 97.4301L91.1197 118.151L89.52 120.029Z" fill="white"/>
<path d="M139.476 74.2576L130.343 60.4693L122.212 65.8551L124.51 69.7433C125.219 70.9073 125.882 72.0712 126.499 73.2349C127.137 74.3845 127.643 75.498 128.018 76.5755C128.399 77.6173 128.578 78.5623 128.554 79.4105C128.516 80.2373 128.204 80.9064 127.618 81.4178L125.059 82.5114C125.738 82.0929 126.128 81.4953 126.23 80.7187C126.318 79.9206 126.189 79.0042 125.843 77.9696C125.497 76.935 125.008 75.8251 124.377 74.6399C123.732 73.4333 123.052 72.2195 122.335 70.9984L118.835 65.2248L131.306 56.9651L141.758 72.7462L139.476 74.2576ZM128.376 89.0544L124.352 82.9798L143.797 70.1006L147.821 76.1752L145.667 77.6015L142.964 73.5197L127.826 83.5462L130.529 87.6281L128.376 89.0544Z" fill="white"/>
<path d="M179.235 57.9316C177.24 58.6123 175.348 58.7965 173.558 58.4842C171.759 58.1475 170.185 57.3948 168.836 56.2259C167.478 55.0328 166.475 53.4876 165.828 51.5904C165.18 49.6931 165.009 47.8779 165.313 46.1445C165.642 44.4029 166.371 42.8778 167.5 41.5694C168.644 40.2283 170.104 39.2548 171.88 38.6488C173.68 38.0345 175.414 37.9042 177.083 38.2581C178.767 38.5793 180.264 39.3447 181.573 40.5545C182.874 41.74 183.852 43.2935 184.508 45.215C184.55 45.3366 184.583 45.4746 184.609 45.6288C184.65 45.7504 184.696 45.8842 184.746 46.0301L168.072 51.7206L167.412 49.7869L182.699 44.5696L181.939 45.6844C181.466 44.298 180.743 43.1735 179.769 42.3108C178.812 41.4154 177.719 40.8381 176.49 40.5786C175.261 40.3192 173.977 40.4178 172.639 40.8743C171.326 41.3226 170.25 42.0293 169.412 42.9943C168.573 43.9593 168.049 45.0887 167.839 46.3825C167.629 47.6763 167.764 49.0286 168.246 50.4393L168.383 50.8406C168.881 52.3 169.637 53.4812 170.651 54.3843C171.681 55.2547 172.876 55.811 174.235 56.0533C175.61 56.2629 177.04 56.1145 178.523 55.6081C179.691 55.2097 180.703 54.6335 181.559 53.8797C182.439 53.1175 183.099 52.1863 183.538 51.0859L185.57 52.2662C185.068 53.5783 184.263 54.7219 183.157 55.697C182.074 56.6637 180.767 57.4086 179.235 57.9316Z" fill="white"/>
<path d="M217.483 49.5941L216.001 29.409L218.731 29.2086L219.386 38.1285L232.112 37.194L231.457 28.2742L234.187 28.0737L235.669 48.2588L232.939 48.4592L232.284 39.5393L219.558 40.4738L220.213 49.3936L217.483 49.5941Z" fill="white"/>
<path d="M265.37 50.6169L269.162 30.736L271.851 31.2488L268.839 47.04L285.143 33.7841L287.529 34.2391L283.737 54.1201L281.048 53.6072L284.067 37.7782L267.794 51.0792L265.37 50.6169Z" fill="white"/>
<path d="M329.36 72.619L332.689 66.1378L332.87 66.8812L326.767 63.7458C324.458 62.5598 322.91 61.1292 322.123 59.4539C321.337 57.7787 321.437 55.9809 322.423 54.0606C323.48 52.0031 324.964 50.8295 326.876 50.5399C328.799 50.2275 330.926 50.6702 333.258 51.868L340.836 55.7607L331.589 73.7639L329.36 72.619ZM316.192 65.8551L324.688 61.4646L327.225 62.7681L318.832 67.2114L316.192 65.8551ZM333.059 65.4177L337.885 56.0218L337.961 56.9709L332.234 54.0293C330.565 53.172 329.098 52.8228 327.832 52.9814C326.589 53.1518 325.597 53.9571 324.857 55.3974C323.483 58.0721 324.5 60.2844 327.906 62.0341L333.804 65.0637L333.059 65.4177Z" fill="white"/>
<path d="M383.557 118.936C382.274 117.396 381.459 115.734 381.11 113.95C380.798 112.17 380.946 110.441 381.556 108.763C382.184 107.068 383.269 105.579 384.809 104.296C386.369 102.997 388.03 102.199 389.79 101.903C391.551 101.608 393.269 101.782 394.943 102.428C396.635 103.093 398.122 104.196 399.405 105.736C400.507 107.059 401.245 108.467 401.62 109.962C401.995 111.456 401.924 112.936 401.407 114.404L399.033 113.722C399.378 112.531 399.41 111.384 399.127 110.282C398.844 109.179 398.317 108.164 397.543 107.236C396.622 106.13 395.535 105.347 394.281 104.886C393.047 104.408 391.762 104.291 390.426 104.534C389.09 104.778 387.81 105.409 386.586 106.429C385.361 107.449 384.509 108.594 384.028 109.864C383.547 111.134 383.42 112.427 383.647 113.743C383.894 115.043 384.478 116.246 385.399 117.352C386.172 118.28 387.075 118.983 388.108 119.46C389.141 119.938 390.265 120.122 391.479 120.014L391.721 122.472C390.203 122.699 388.734 122.501 387.313 121.879C385.911 121.24 384.659 120.259 383.557 118.936Z" fill="white"/>
<path d="M404.968 151.587L423.27 142.946L424.439 145.421L416.351 149.239L421.799 160.778L429.887 156.96L431.056 159.435L412.754 168.076L411.585 165.601L419.673 161.782L414.225 150.243L406.137 154.062L404.968 151.587Z" fill="white"/>
<path d="M422.359 204.893C422 202.973 422.107 201.162 422.678 199.461C423.279 197.78 424.255 196.355 425.606 195.188C426.981 194.016 428.655 193.246 430.625 192.878C432.621 192.505 434.46 192.619 436.141 193.22C437.822 193.822 439.233 194.8 440.375 196.155C441.517 197.511 442.27 199.161 442.633 201.106C443.001 203.077 442.898 204.9 442.322 206.577C441.751 208.278 440.787 209.7 439.432 210.842C438.081 212.009 436.408 212.779 434.412 213.152C432.442 213.52 430.603 213.406 428.897 212.81C427.221 212.234 425.796 211.258 424.624 209.882C423.478 208.501 422.722 206.838 422.359 204.893ZM424.747 204.447C425.016 205.887 425.57 207.104 426.409 208.098C427.273 209.087 428.346 209.788 429.626 210.203C430.936 210.638 432.361 210.712 433.902 210.424C435.469 210.131 436.772 209.548 437.811 208.674C438.855 207.825 439.589 206.786 440.013 205.557C440.463 204.322 440.555 202.998 440.291 201.583C440.027 200.168 439.462 198.966 438.598 197.977C437.759 196.984 436.697 196.267 435.412 195.827C434.127 195.387 432.701 195.314 431.135 195.606C429.594 195.894 428.291 196.477 427.226 197.356C426.187 198.23 425.442 199.284 424.993 200.518C424.569 201.748 424.487 203.058 424.747 204.447Z" fill="white"/>
</svg>
