<svg width="67" height="67" viewBox="0 0 67 67" fill="none" xmlns="http://www.w3.org/2000/svg">
<rect width="67" height="67" rx="33.5" fill="#F2F1F1"/>
<path d="M34.3529 48.5735C36.0694 48.5946 37.3375 47.096 37.3375 45.3794V43.6566C37.3375 41.5099 39.3579 39.8743 41.0782 41.1583C43.2355 42.7685 44.6462 45.2105 46.4716 47.3289C47.0655 48.0182 47.9481 48.3693 48.8579 48.3693H50.772C53.2054 48.3693 54.8652 45.9197 53.7086 43.7788C52.2756 41.1262 50.569 38.6779 48.6242 36.4876C47.5345 35.2603 47.3082 33.4615 48.1918 32.0783C50.049 29.1709 51.8615 26.2055 53.2083 22.5828C53.9827 20.4999 52.3323 18.4248 50.1101 18.4248H48.8214C47.5852 18.4248 46.4358 19.0817 45.8735 20.1826C44.5316 22.81 43.4031 25.5724 41.9274 28.1204C40.467 30.6419 37.3375 29.3536 37.3375 26.4396V21.8809C37.3375 19.9722 35.7902 18.4248 33.8814 18.4248H32.3633C30.4545 18.4248 28.9071 19.9722 28.9071 21.8809V22.1728V31.5832C28.9071 33.6733 27.025 35.0139 25.6917 33.4043C23.3667 30.5976 21.4251 25.4675 19.4465 20.5568C18.9252 19.263 17.6665 18.4248 16.2716 18.4248H15.1861C12.8912 18.4248 11.2191 20.6231 11.8859 22.819C15.021 33.1425 20.9909 48.4092 34.3529 48.5735Z" fill="#232323"/>
</svg>
