<svg width="937" height="672" viewBox="0 0 937 672" fill="none" xmlns="http://www.w3.org/2000/svg">
<rect x="1" y="1" width="935" height="670" fill="#B7CEFF"/>
<mask id="path-2-outside-1_1598_2" maskUnits="userSpaceOnUse" x="0" y="0" width="937" height="672" fill="black">
<rect fill="white" width="937" height="672"/>
<path d="M827.218 340.312C716.195 228.406 708.009 44.4663 734.858 24.1192C734.858 24.1192 757.775 -15.7636 813.594 9.23721C869.413 34.238 935.33 185.941 935.996 339.845C936.665 494.424 849.207 627.755 813.54 657.635C777.872 687.515 737.6 657.961 737.6 657.961C704.343 642.398 723.451 460.026 827.218 340.312Z"/>
<path d="M827.218 340.312C716.195 228.406 708.009 44.4663 734.858 24.1192C734.858 24.1192 757.775 -15.7636 813.594 9.23721C869.413 34.238 935.33 185.941 935.996 339.845C936.665 494.424 849.207 627.755 813.54 657.635C777.872 687.515 737.6 657.961 737.6 657.961C704.343 642.398 723.451 460.026 827.218 340.312Z"/>
<path d="M109.782 340.312C220.805 228.406 228.991 44.4663 202.142 24.1192C202.142 24.1192 179.225 -15.7636 123.406 9.23721C67.5871 34.238 1.6697 185.941 1.00381 339.845C0.335012 494.424 87.7928 627.755 123.46 657.635C159.128 687.515 199.4 657.961 199.4 657.961C232.657 642.398 213.549 460.026 109.782 340.312Z"/>
<path d="M109.782 340.312C220.805 228.406 228.991 44.4663 202.142 24.1192C202.142 24.1192 179.225 -15.7636 123.406 9.23721C67.5871 34.238 1.6697 185.941 1.00381 339.845C0.335012 494.424 87.7928 627.755 123.46 657.635C159.128 687.515 199.4 657.961 199.4 657.961C232.657 642.398 213.549 460.026 109.782 340.312Z"/>
<path d="M574.697 73.1759C606.79 84.417 636.93 100.628 663.49 121.875C663.944 122.234 664.398 122.593 664.865 122.964C679.882 134.866 693.79 148.328 704.147 164.549C704.341 164.85 704.535 165.151 704.735 165.462C707.743 170.153 710.38 174.977 712.806 179.992C712.955 180.297 713.104 180.602 713.257 180.916C724.425 203.938 725.813 230.087 717.729 254.336C715.252 261.41 712.278 268.476 708.055 274.697C707.471 275.587 706.887 276.477 706.304 277.368C705.666 278.337 705.027 279.306 704.388 280.274C704.079 280.743 703.77 281.211 703.453 281.693C689.266 303.119 671.846 319.528 646.668 326.708C645.979 326.912 645.29 327.115 644.601 327.319C639.71 328.737 634.788 329.789 629.766 330.612C629.367 330.68 628.968 330.747 628.557 330.817C614.475 333.141 599.878 332.609 585.981 329.418C585.642 329.344 585.304 329.27 584.955 329.193C580.641 328.17 576.496 326.59 572.342 325.065C571.935 324.915 571.528 324.766 571.109 324.612C564.498 322.17 558.173 319.486 552.101 315.883C551.692 315.641 551.283 315.399 550.862 315.15C525.916 300.189 503.804 277.776 488.544 253.058C488.229 252.548 487.913 252.037 487.588 251.511C482.567 243.009 478.055 233.594 475.424 224.058C475.135 223.029 474.821 222.01 474.502 220.989C472.353 213.979 470.766 206.684 470.089 199.372C463.992 204.676 460.965 215.821 460.404 223.594C459.909 235.925 465.688 248.533 472.702 258.418C472.929 258.74 473.157 259.062 473.392 259.394C477.97 265.78 483.23 271.513 488.567 277.266C489.866 278.674 491.14 280.102 492.409 281.536C499.88 289.965 507.841 297.948 515.877 305.835C522.718 312.557 529.326 319.503 535.927 326.46C536.964 327.553 538.005 328.643 539.046 329.734C543.371 334.285 547.52 338.982 551.617 343.738C552.469 344.725 553.325 345.709 554.182 346.691C557.017 349.958 559.676 353.319 562.243 356.801C563.769 358.87 565.334 360.897 566.946 362.9C572.759 370.128 577.945 377.775 582.672 385.752C582.976 386.262 583.282 386.771 583.596 387.296C587.115 393.221 590.453 399.244 593.565 405.393C594.125 406.493 594.693 407.59 595.272 408.681C597.56 413.012 599.623 417.442 601.674 421.889C601.822 422.208 601.97 422.528 602.123 422.857C603.669 426.201 605.167 429.547 606.443 433.005C607.036 434.601 607.697 436.165 608.353 437.735C609.784 441.218 611.054 444.737 612.221 448.318C612.351 448.714 612.481 449.109 612.615 449.517C614.321 454.717 615.901 459.916 617.189 465.237C617.78 467.661 618.47 470.015 619.247 472.386C629.462 504.168 627.384 541.174 616.765 572.555C616.591 573.084 616.417 573.613 616.237 574.157C608.475 596.412 594.061 617.28 572.523 627.919C558.055 634.737 544.343 636.813 528.427 635.985C525.411 635.83 522.398 635.721 519.378 635.659C502.226 635.296 485.651 632.827 469.097 628.313C468.738 628.215 468.379 628.118 468.009 628.017C459.984 625.815 452.186 623.079 444.399 620.164C443.301 619.754 442.202 619.345 441.103 618.938C430.091 614.848 419.221 610.564 408.688 605.349C407.593 604.808 406.494 604.272 405.396 603.736C372.771 587.784 341.917 568.352 313.245 546.109C312.81 545.772 312.81 545.772 312.366 545.428C305.564 540.142 298.977 534.633 292.51 528.944C290.045 526.776 287.553 524.643 285.052 522.519C274.525 513.571 264.027 504.565 254.763 494.282C253.765 493.182 252.752 492.097 251.739 491.01C240.429 478.806 230.761 465.576 222.765 450.993C222.494 450.5 222.223 450.007 221.943 449.498C218.575 443.227 215.601 436.81 213.5 429.998C213.395 429.664 213.289 429.33 213.181 428.986C207.493 410.837 207.196 391.331 215.867 374.004C223.418 359.614 235.368 348.997 249.234 340.835C249.541 340.654 249.847 340.472 250.163 340.285C257.605 335.92 265.398 332.103 273.66 329.575C273.976 329.475 274.292 329.375 274.619 329.272C304.307 319.945 335.68 321.699 365.53 329.082C365.88 329.169 366.231 329.256 366.593 329.345C375.184 331.488 383.565 334.209 391.865 337.276C392.268 337.425 392.671 337.573 393.086 337.726C430.098 351.428 466.746 371.722 489.15 405.154C489.696 405.964 489.696 405.964 490.252 406.79C497.892 418.379 503.935 430.909 508.232 444.096C508.419 444.668 508.419 444.668 508.609 445.251C508.721 445.594 508.832 445.938 508.947 446.291C509.271 447.271 509.271 447.271 509.851 448.477C515.709 433.774 515.95 422.218 510.113 407.541C509.954 407.134 509.795 406.727 509.631 406.308C505.079 395.589 496.848 386.445 489.111 377.963C488.823 377.646 488.535 377.33 488.238 377.004C471.237 358.536 448.822 344.249 426.032 333.964C425.711 333.816 425.389 333.668 425.059 333.515C420.286 331.318 415.381 329.447 410.461 327.607C409.796 327.358 409.131 327.108 408.467 326.856C397.154 322.573 385.439 319.255 373.774 316.068C373.405 315.967 373.035 315.866 372.654 315.761C371.903 315.556 371.151 315.351 370.4 315.146C370.025 315.043 369.651 314.941 369.265 314.836C368.702 314.682 368.702 314.682 368.127 314.525C355.6 311.099 343.187 307.522 331.001 303.019C330.492 302.833 329.984 302.647 329.46 302.455C320.682 299.222 312.079 295.305 304.374 289.955C303.96 289.669 303.547 289.384 303.121 289.089C290.96 280.448 282.33 269.218 275.731 255.991C275.05 254.64 274.334 253.326 273.585 252.012C262.492 231.604 260.967 206.21 267.451 184.165C276.156 155.733 297.158 134.002 319.891 115.849C320.307 115.515 320.723 115.181 321.151 114.837C332.408 105.817 344.412 97.7019 356.967 90.5937C357.259 90.4266 357.551 90.2596 357.852 90.0875C365.663 85.6231 373.694 81.6828 381.856 77.9053C382.172 77.7582 382.489 77.611 382.816 77.4595C386.482 75.7601 390.158 74.1571 393.953 72.7656C394.626 72.5076 395.299 72.2486 395.971 71.9887C401.52 69.8744 407.14 68.0673 412.836 66.393C413.277 66.2632 413.718 66.1335 414.173 65.9998C425.028 62.8348 435.957 60.6029 447.107 58.7567C447.51 58.6898 447.912 58.6229 448.327 58.5539C466.345 55.6296 489.24 53.4459 507.039 58.2225C510.061 58.9945 513.143 59.2475 516.239 59.5873C536.134 61.9099 555.798 66.6011 574.697 73.1759Z"/>
</mask>
<path d="M827.218 340.312C716.195 228.406 708.009 44.4663 734.858 24.1192C734.858 24.1192 757.775 -15.7636 813.594 9.23721C869.413 34.238 935.33 185.941 935.996 339.845C936.665 494.424 849.207 627.755 813.54 657.635C777.872 687.515 737.6 657.961 737.6 657.961C704.343 642.398 723.451 460.026 827.218 340.312Z" fill="white"/>
<path d="M827.218 340.312C716.195 228.406 708.009 44.4663 734.858 24.1192C734.858 24.1192 757.775 -15.7636 813.594 9.23721C869.413 34.238 935.33 185.941 935.996 339.845C936.665 494.424 849.207 627.755 813.54 657.635C777.872 687.515 737.6 657.961 737.6 657.961C704.343 642.398 723.451 460.026 827.218 340.312Z" fill="white"/>
<path d="M109.782 340.312C220.805 228.406 228.991 44.4663 202.142 24.1192C202.142 24.1192 179.225 -15.7636 123.406 9.23721C67.5871 34.238 1.6697 185.941 1.00381 339.845C0.335012 494.424 87.7928 627.755 123.46 657.635C159.128 687.515 199.4 657.961 199.4 657.961C232.657 642.398 213.549 460.026 109.782 340.312Z" fill="white"/>
<path d="M109.782 340.312C220.805 228.406 228.991 44.4663 202.142 24.1192C202.142 24.1192 179.225 -15.7636 123.406 9.23721C67.5871 34.238 1.6697 185.941 1.00381 339.845C0.335012 494.424 87.7928 627.755 123.46 657.635C159.128 687.515 199.4 657.961 199.4 657.961C232.657 642.398 213.549 460.026 109.782 340.312Z" fill="white"/>
<path d="M574.697 73.1759C606.79 84.417 636.93 100.628 663.49 121.875C663.944 122.234 664.398 122.593 664.865 122.964C679.882 134.866 693.79 148.328 704.147 164.549C704.341 164.85 704.535 165.151 704.735 165.462C707.743 170.153 710.38 174.977 712.806 179.992C712.955 180.297 713.104 180.602 713.257 180.916C724.425 203.938 725.813 230.087 717.729 254.336C715.252 261.41 712.278 268.476 708.055 274.697C707.471 275.587 706.887 276.477 706.304 277.368C705.666 278.337 705.027 279.306 704.388 280.274C704.079 280.743 703.77 281.211 703.453 281.693C689.266 303.119 671.846 319.528 646.668 326.708C645.979 326.912 645.29 327.115 644.601 327.319C639.71 328.737 634.788 329.789 629.766 330.612C629.367 330.68 628.968 330.747 628.557 330.817C614.475 333.141 599.878 332.609 585.981 329.418C585.642 329.344 585.304 329.27 584.955 329.193C580.641 328.17 576.496 326.59 572.342 325.065C571.935 324.915 571.528 324.766 571.109 324.612C564.498 322.17 558.173 319.486 552.101 315.883C551.692 315.641 551.283 315.399 550.862 315.15C525.916 300.189 503.804 277.776 488.544 253.058C488.229 252.548 487.913 252.037 487.588 251.511C482.567 243.009 478.055 233.594 475.424 224.058C475.135 223.029 474.821 222.01 474.502 220.989C472.353 213.979 470.766 206.684 470.089 199.372C463.992 204.676 460.965 215.821 460.404 223.594C459.909 235.925 465.688 248.533 472.702 258.418C472.929 258.74 473.157 259.062 473.392 259.394C477.97 265.78 483.23 271.513 488.567 277.266C489.866 278.674 491.14 280.102 492.409 281.536C499.88 289.965 507.841 297.948 515.877 305.835C522.718 312.557 529.326 319.503 535.927 326.46C536.964 327.553 538.005 328.643 539.046 329.734C543.371 334.285 547.52 338.982 551.617 343.738C552.469 344.725 553.325 345.709 554.182 346.691C557.017 349.958 559.676 353.319 562.243 356.801C563.769 358.87 565.334 360.897 566.946 362.9C572.759 370.128 577.945 377.775 582.672 385.752C582.976 386.262 583.282 386.771 583.596 387.296C587.115 393.221 590.453 399.244 593.565 405.393C594.125 406.493 594.693 407.59 595.272 408.681C597.56 413.012 599.623 417.442 601.674 421.889C601.822 422.208 601.97 422.528 602.123 422.857C603.669 426.201 605.167 429.547 606.443 433.005C607.036 434.601 607.697 436.165 608.353 437.735C609.784 441.218 611.054 444.737 612.221 448.318C612.351 448.714 612.481 449.109 612.615 449.517C614.321 454.717 615.901 459.916 617.189 465.237C617.78 467.661 618.47 470.015 619.247 472.386C629.462 504.168 627.384 541.174 616.765 572.555C616.591 573.084 616.417 573.613 616.237 574.157C608.475 596.412 594.061 617.28 572.523 627.919C558.055 634.737 544.343 636.813 528.427 635.985C525.411 635.83 522.398 635.721 519.378 635.659C502.226 635.296 485.651 632.827 469.097 628.313C468.738 628.215 468.379 628.118 468.009 628.017C459.984 625.815 452.186 623.079 444.399 620.164C443.301 619.754 442.202 619.345 441.103 618.938C430.091 614.848 419.221 610.564 408.688 605.349C407.593 604.808 406.494 604.272 405.396 603.736C372.771 587.784 341.917 568.352 313.245 546.109C312.81 545.772 312.81 545.772 312.366 545.428C305.564 540.142 298.977 534.633 292.51 528.944C290.045 526.776 287.553 524.643 285.052 522.519C274.525 513.571 264.027 504.565 254.763 494.282C253.765 493.182 252.752 492.097 251.739 491.01C240.429 478.806 230.761 465.576 222.765 450.993C222.494 450.5 222.223 450.007 221.943 449.498C218.575 443.227 215.601 436.81 213.5 429.998C213.395 429.664 213.289 429.33 213.181 428.986C207.493 410.837 207.196 391.331 215.867 374.004C223.418 359.614 235.368 348.997 249.234 340.835C249.541 340.654 249.847 340.472 250.163 340.285C257.605 335.92 265.398 332.103 273.66 329.575C273.976 329.475 274.292 329.375 274.619 329.272C304.307 319.945 335.68 321.699 365.53 329.082C365.88 329.169 366.231 329.256 366.593 329.345C375.184 331.488 383.565 334.209 391.865 337.276C392.268 337.425 392.671 337.573 393.086 337.726C430.098 351.428 466.746 371.722 489.15 405.154C489.696 405.964 489.696 405.964 490.252 406.79C497.892 418.379 503.935 430.909 508.232 444.096C508.419 444.668 508.419 444.668 508.609 445.251C508.721 445.594 508.832 445.938 508.947 446.291C509.271 447.271 509.271 447.271 509.851 448.477C515.709 433.774 515.95 422.218 510.113 407.541C509.954 407.134 509.795 406.727 509.631 406.308C505.079 395.589 496.848 386.445 489.111 377.963C488.823 377.646 488.535 377.33 488.238 377.004C471.237 358.536 448.822 344.249 426.032 333.964C425.711 333.816 425.389 333.668 425.059 333.515C420.286 331.318 415.381 329.447 410.461 327.607C409.796 327.358 409.131 327.108 408.467 326.856C397.154 322.573 385.439 319.255 373.774 316.068C373.405 315.967 373.035 315.866 372.654 315.761C371.903 315.556 371.151 315.351 370.4 315.146C370.025 315.043 369.651 314.941 369.265 314.836C368.702 314.682 368.702 314.682 368.127 314.525C355.6 311.099 343.187 307.522 331.001 303.019C330.492 302.833 329.984 302.647 329.46 302.455C320.682 299.222 312.079 295.305 304.374 289.955C303.96 289.669 303.547 289.384 303.121 289.089C290.96 280.448 282.33 269.218 275.731 255.991C275.05 254.64 274.334 253.326 273.585 252.012C262.492 231.604 260.967 206.21 267.451 184.165C276.156 155.733 297.158 134.002 319.891 115.849C320.307 115.515 320.723 115.181 321.151 114.837C332.408 105.817 344.412 97.7019 356.967 90.5937C357.259 90.4266 357.551 90.2596 357.852 90.0875C365.663 85.6231 373.694 81.6828 381.856 77.9053C382.172 77.7582 382.489 77.611 382.816 77.4595C386.482 75.7601 390.158 74.1571 393.953 72.7656C394.626 72.5076 395.299 72.2486 395.971 71.9887C401.52 69.8744 407.14 68.0673 412.836 66.393C413.277 66.2632 413.718 66.1335 414.173 65.9998C425.028 62.8348 435.957 60.6029 447.107 58.7567C447.51 58.6898 447.912 58.6229 448.327 58.5539C466.345 55.6296 489.24 53.4459 507.039 58.2225C510.061 58.9945 513.143 59.2475 516.239 59.5873C536.134 61.9099 555.798 66.6011 574.697 73.1759Z" fill="white"/>
<path d="M827.218 340.312C716.195 228.406 708.009 44.4663 734.858 24.1192C734.858 24.1192 757.775 -15.7636 813.594 9.23721C869.413 34.238 935.33 185.941 935.996 339.845C936.665 494.424 849.207 627.755 813.54 657.635C777.872 687.515 737.6 657.961 737.6 657.961C704.343 642.398 723.451 460.026 827.218 340.312Z" stroke="white" stroke-width="2.20861" mask="url(#path-2-outside-1_1598_2)"/>
<path d="M827.218 340.312C716.195 228.406 708.009 44.4663 734.858 24.1192C734.858 24.1192 757.775 -15.7636 813.594 9.23721C869.413 34.238 935.33 185.941 935.996 339.845C936.665 494.424 849.207 627.755 813.54 657.635C777.872 687.515 737.6 657.961 737.6 657.961C704.343 642.398 723.451 460.026 827.218 340.312Z" stroke="white" stroke-width="2.20861" mask="url(#path-2-outside-1_1598_2)"/>
<path d="M109.782 340.312C220.805 228.406 228.991 44.4663 202.142 24.1192C202.142 24.1192 179.225 -15.7636 123.406 9.23721C67.5871 34.238 1.6697 185.941 1.00381 339.845C0.335012 494.424 87.7928 627.755 123.46 657.635C159.128 687.515 199.4 657.961 199.4 657.961C232.657 642.398 213.549 460.026 109.782 340.312Z" stroke="white" stroke-width="2.20861" mask="url(#path-2-outside-1_1598_2)"/>
<path d="M109.782 340.312C220.805 228.406 228.991 44.4663 202.142 24.1192C202.142 24.1192 179.225 -15.7636 123.406 9.23721C67.5871 34.238 1.6697 185.941 1.00381 339.845C0.335012 494.424 87.7928 627.755 123.46 657.635C159.128 687.515 199.4 657.961 199.4 657.961C232.657 642.398 213.549 460.026 109.782 340.312Z" stroke="white" stroke-width="2.20861" mask="url(#path-2-outside-1_1598_2)"/>
<path d="M574.697 73.1759C606.79 84.417 636.93 100.628 663.49 121.875C663.944 122.234 664.398 122.593 664.865 122.964C679.882 134.866 693.79 148.328 704.147 164.549C704.341 164.85 704.535 165.151 704.735 165.462C707.743 170.153 710.38 174.977 712.806 179.992C712.955 180.297 713.104 180.602 713.257 180.916C724.425 203.938 725.813 230.087 717.729 254.336C715.252 261.41 712.278 268.476 708.055 274.697C707.471 275.587 706.887 276.477 706.304 277.368C705.666 278.337 705.027 279.306 704.388 280.274C704.079 280.743 703.77 281.211 703.453 281.693C689.266 303.119 671.846 319.528 646.668 326.708C645.979 326.912 645.29 327.115 644.601 327.319C639.71 328.737 634.788 329.789 629.766 330.612C629.367 330.68 628.968 330.747 628.557 330.817C614.475 333.141 599.878 332.609 585.981 329.418C585.642 329.344 585.304 329.27 584.955 329.193C580.641 328.17 576.496 326.59 572.342 325.065C571.935 324.915 571.528 324.766 571.109 324.612C564.498 322.17 558.173 319.486 552.101 315.883C551.692 315.641 551.283 315.399 550.862 315.15C525.916 300.189 503.804 277.776 488.544 253.058C488.229 252.548 487.913 252.037 487.588 251.511C482.567 243.009 478.055 233.594 475.424 224.058C475.135 223.029 474.821 222.01 474.502 220.989C472.353 213.979 470.766 206.684 470.089 199.372C463.992 204.676 460.965 215.821 460.404 223.594C459.909 235.925 465.688 248.533 472.702 258.418C472.929 258.74 473.157 259.062 473.392 259.394C477.97 265.78 483.23 271.513 488.567 277.266C489.866 278.674 491.14 280.102 492.409 281.536C499.88 289.965 507.841 297.948 515.877 305.835C522.718 312.557 529.326 319.503 535.927 326.46C536.964 327.553 538.005 328.643 539.046 329.734C543.371 334.285 547.52 338.982 551.617 343.738C552.469 344.725 553.325 345.709 554.182 346.691C557.017 349.958 559.676 353.319 562.243 356.801C563.769 358.87 565.334 360.897 566.946 362.9C572.759 370.128 577.945 377.775 582.672 385.752C582.976 386.262 583.282 386.771 583.596 387.296C587.115 393.221 590.453 399.244 593.565 405.393C594.125 406.493 594.693 407.59 595.272 408.681C597.56 413.012 599.623 417.442 601.674 421.889C601.822 422.208 601.97 422.528 602.123 422.857C603.669 426.201 605.167 429.547 606.443 433.005C607.036 434.601 607.697 436.165 608.353 437.735C609.784 441.218 611.054 444.737 612.221 448.318C612.351 448.714 612.481 449.109 612.615 449.517C614.321 454.717 615.901 459.916 617.189 465.237C617.78 467.661 618.47 470.015 619.247 472.386C629.462 504.168 627.384 541.174 616.765 572.555C616.591 573.084 616.417 573.613 616.237 574.157C608.475 596.412 594.061 617.28 572.523 627.919C558.055 634.737 544.343 636.813 528.427 635.985C525.411 635.83 522.398 635.721 519.378 635.659C502.226 635.296 485.651 632.827 469.097 628.313C468.738 628.215 468.379 628.118 468.009 628.017C459.984 625.815 452.186 623.079 444.399 620.164C443.301 619.754 442.202 619.345 441.103 618.938C430.091 614.848 419.221 610.564 408.688 605.349C407.593 604.808 406.494 604.272 405.396 603.736C372.771 587.784 341.917 568.352 313.245 546.109C312.81 545.772 312.81 545.772 312.366 545.428C305.564 540.142 298.977 534.633 292.51 528.944C290.045 526.776 287.553 524.643 285.052 522.519C274.525 513.571 264.027 504.565 254.763 494.282C253.765 493.182 252.752 492.097 251.739 491.01C240.429 478.806 230.761 465.576 222.765 450.993C222.494 450.5 222.223 450.007 221.943 449.498C218.575 443.227 215.601 436.81 213.5 429.998C213.395 429.664 213.289 429.33 213.181 428.986C207.493 410.837 207.196 391.331 215.867 374.004C223.418 359.614 235.368 348.997 249.234 340.835C249.541 340.654 249.847 340.472 250.163 340.285C257.605 335.92 265.398 332.103 273.66 329.575C273.976 329.475 274.292 329.375 274.619 329.272C304.307 319.945 335.68 321.699 365.53 329.082C365.88 329.169 366.231 329.256 366.593 329.345C375.184 331.488 383.565 334.209 391.865 337.276C392.268 337.425 392.671 337.573 393.086 337.726C430.098 351.428 466.746 371.722 489.15 405.154C489.696 405.964 489.696 405.964 490.252 406.79C497.892 418.379 503.935 430.909 508.232 444.096C508.419 444.668 508.419 444.668 508.609 445.251C508.721 445.594 508.832 445.938 508.947 446.291C509.271 447.271 509.271 447.271 509.851 448.477C515.709 433.774 515.95 422.218 510.113 407.541C509.954 407.134 509.795 406.727 509.631 406.308C505.079 395.589 496.848 386.445 489.111 377.963C488.823 377.646 488.535 377.33 488.238 377.004C471.237 358.536 448.822 344.249 426.032 333.964C425.711 333.816 425.389 333.668 425.059 333.515C420.286 331.318 415.381 329.447 410.461 327.607C409.796 327.358 409.131 327.108 408.467 326.856C397.154 322.573 385.439 319.255 373.774 316.068C373.405 315.967 373.035 315.866 372.654 315.761C371.903 315.556 371.151 315.351 370.4 315.146C370.025 315.043 369.651 314.941 369.265 314.836C368.702 314.682 368.702 314.682 368.127 314.525C355.6 311.099 343.187 307.522 331.001 303.019C330.492 302.833 329.984 302.647 329.46 302.455C320.682 299.222 312.079 295.305 304.374 289.955C303.96 289.669 303.547 289.384 303.121 289.089C290.96 280.448 282.33 269.218 275.731 255.991C275.05 254.64 274.334 253.326 273.585 252.012C262.492 231.604 260.967 206.21 267.451 184.165C276.156 155.733 297.158 134.002 319.891 115.849C320.307 115.515 320.723 115.181 321.151 114.837C332.408 105.817 344.412 97.7019 356.967 90.5937C357.259 90.4266 357.551 90.2596 357.852 90.0875C365.663 85.6231 373.694 81.6828 381.856 77.9053C382.172 77.7582 382.489 77.611 382.816 77.4595C386.482 75.7601 390.158 74.1571 393.953 72.7656C394.626 72.5076 395.299 72.2486 395.971 71.9887C401.52 69.8744 407.14 68.0673 412.836 66.393C413.277 66.2632 413.718 66.1335 414.173 65.9998C425.028 62.8348 435.957 60.6029 447.107 58.7567C447.51 58.6898 447.912 58.6229 448.327 58.5539C466.345 55.6296 489.24 53.4459 507.039 58.2225C510.061 58.9945 513.143 59.2475 516.239 59.5873C536.134 61.9099 555.798 66.6011 574.697 73.1759Z" stroke="white" stroke-width="2.20861" mask="url(#path-2-outside-1_1598_2)"/>
</svg>
