<svg width="450" height="454" viewBox="0 0 450 454" fill="none" xmlns="http://www.w3.org/2000/svg">
<path d="M377.497 143.526C376.645 141.603 376.307 139.679 376.483 137.755C376.696 135.844 377.366 134.11 378.491 132.552C379.642 130.983 381.205 129.761 383.178 128.886C385.177 128.001 387.132 127.665 389.042 127.877C390.952 128.09 392.674 128.765 394.207 129.902C395.74 131.039 396.938 132.582 397.801 134.53C398.675 136.503 399.018 138.44 398.831 140.339C398.654 142.263 397.998 143.992 396.861 145.525C395.735 147.083 394.173 148.305 392.174 149.19C390.2 150.065 388.246 150.401 386.31 150.199C384.411 150.012 382.677 149.342 381.107 148.191C379.563 147.029 378.36 145.474 377.497 143.526ZM379.888 142.466C380.527 143.909 381.409 145.046 382.535 145.879C383.686 146.701 384.983 147.17 386.427 147.287C387.908 147.418 389.42 147.142 390.963 146.458C392.532 145.763 393.753 144.829 394.625 143.655C395.509 142.507 396.02 141.236 396.159 139.843C396.324 138.438 396.092 137.027 395.465 135.61C394.837 134.194 393.947 133.074 392.796 132.252C391.671 131.419 390.38 130.932 388.925 130.79C387.469 130.647 385.957 130.924 384.389 131.619C382.845 132.303 381.625 133.237 380.727 134.422C379.855 135.595 379.336 136.884 379.172 138.289C379.032 139.682 379.271 141.075 379.888 142.466Z" fill="white"/>
<path d="M395.247 192.2C395.024 190.443 395.115 188.842 395.517 187.396C395.924 185.978 396.656 184.713 397.715 183.603C398.774 182.493 400.137 181.581 401.804 180.868C403.499 180.152 405.499 179.647 407.805 179.355C409.864 179.095 411.687 179.059 413.273 179.249C414.886 179.436 416.299 179.801 417.512 180.345C418.724 180.888 419.772 181.565 420.656 182.373C421.57 183.206 422.328 184.128 422.93 185.14C423.564 186.176 424.077 187.254 424.47 188.376L427.965 197.808L425.309 198.646L422.093 189.765C421.883 189.206 421.602 188.53 421.251 187.737C420.903 186.973 420.428 186.196 419.826 185.407C419.228 184.646 418.444 183.964 417.475 183.362C416.506 182.759 415.294 182.327 413.838 182.065C412.414 181.827 410.672 181.838 408.613 182.098C408.173 182.154 407.818 182.213 407.547 182.275C407.303 182.334 407.032 182.396 406.734 182.462C406.466 182.551 406.06 182.645 405.514 182.742L406.423 181.33C408.136 181.42 409.669 181.853 411.023 182.63C412.404 183.404 413.526 184.447 414.39 185.761C415.284 187.098 415.841 188.631 416.06 190.361C416.314 192.365 416.1 194.205 415.42 195.881C414.767 197.554 413.727 198.927 412.301 200C410.878 201.1 409.151 201.779 407.119 202.036C405.115 202.29 403.258 202.051 401.547 201.319C399.84 200.614 398.428 199.482 397.31 197.922C396.219 196.359 395.532 194.451 395.247 192.2ZM397.718 192.222C397.913 193.759 398.428 195.075 399.264 196.169C400.127 197.259 401.204 198.057 402.495 198.563C403.79 199.096 405.193 199.268 406.703 199.076C408.185 198.889 409.46 198.379 410.526 197.547C411.595 196.742 412.385 195.707 412.895 194.444C413.432 193.176 413.601 191.76 413.403 190.195C413.208 188.658 412.707 187.34 411.899 186.243C411.118 185.143 410.107 184.322 408.867 183.782C407.631 183.269 406.258 183.108 404.748 183.299C403.238 183.49 401.921 183.991 400.796 184.803C399.675 185.642 398.832 186.697 398.268 187.968C397.707 189.267 397.524 190.685 397.718 192.222Z" fill="white"/>
<path d="M391.381 233.214C391.534 232.202 391.844 231.255 392.313 230.374C392.777 229.521 393.387 228.815 394.143 228.257L396.114 229.939C395.512 230.408 395.026 230.937 394.658 231.525C394.258 232.136 393.998 232.839 393.879 233.632C393.735 234.59 393.885 235.452 394.329 236.219C394.742 237.009 395.571 237.819 396.817 238.651L399.767 240.522L400.17 240.919L418.824 252.795L418.391 255.669L395.882 241.238C394.577 240.426 393.569 239.589 392.86 238.726C392.146 237.891 391.689 237.025 391.488 236.127C391.26 235.225 391.225 234.254 391.381 233.214ZM398.068 240.098L421.73 233.504L421.272 236.541L400.165 242.345L398.068 240.098Z" fill="white"/>
<path d="M395.392 294.686C395.379 293.298 395.473 291.941 395.674 290.613C395.89 289.323 396.247 288.091 396.743 286.919C397.747 284.549 399.075 282.903 400.728 281.98C402.407 281.068 404.38 281.092 406.648 282.053L413.222 284.837L412.089 287.513L405.667 284.793C404.138 284.146 402.781 284.157 401.596 284.827C400.411 285.497 399.462 286.673 398.75 288.355C398.318 289.374 397.992 290.498 397.772 291.727C397.578 292.967 397.492 294.268 397.516 295.631L395.392 294.686ZM387.004 290.863L407.071 299.362L405.921 302.076L385.854 293.577L387.004 290.863Z" fill="white"/>
<path d="M368.253 326.819C369.637 325.021 371.225 323.729 373.017 322.943C374.831 322.174 376.691 321.913 378.598 322.158C380.526 322.42 382.346 323.209 384.056 324.526C385.767 325.843 387.001 327.369 387.76 329.105C388.502 330.864 388.756 332.666 388.523 334.512C388.294 336.396 387.564 338.139 386.332 339.74C385.083 341.363 383.604 342.512 381.897 343.188C380.194 343.903 378.395 344.107 376.501 343.801C374.628 343.512 372.825 342.701 371.093 341.368C370.983 341.283 370.871 341.179 370.756 341.056C370.647 340.972 370.526 340.879 370.395 340.778L381.965 325.745L383.709 327.087L373.1 340.87L373.118 339.417C374.368 340.379 375.687 340.957 377.074 341.152C378.465 341.385 379.79 341.252 381.047 340.753C382.304 340.254 383.397 339.401 384.325 338.195C385.237 337.011 385.781 335.737 385.959 334.372C386.137 333.007 385.935 331.681 385.353 330.396C384.771 329.11 383.844 327.977 382.572 326.998L382.211 326.72C380.895 325.707 379.513 325.097 378.066 324.891C376.623 324.724 375.22 324.936 373.857 325.528C372.498 326.158 371.304 327.142 370.274 328.48C369.464 329.533 368.899 330.652 368.58 331.838C368.244 333.046 368.207 334.274 368.468 335.523L365.942 335.674C365.612 334.198 365.653 332.692 366.065 331.159C366.46 329.647 367.189 328.201 368.253 326.819Z" fill="white"/>
<path d="M346.586 354.853L359.61 372.325L357.247 374.087L351.492 366.366L340.476 374.577L346.232 382.298L343.869 384.06L330.844 366.588L333.207 364.826L338.963 372.547L349.979 364.336L344.223 356.615L346.586 354.853Z" fill="white"/>
<path d="M304.286 385.368L311.722 405.853L308.952 406.858L303.045 390.588L295.256 411.83L292.798 412.722L285.362 392.237L288.132 391.231L294.053 407.541L301.789 386.274L304.286 385.368Z" fill="white"/>
<path d="M246.143 402.293C248.406 402.126 250.427 402.448 252.208 403.259C253.991 404.098 255.426 405.31 256.515 406.894C257.605 408.506 258.231 410.388 258.39 412.541C258.549 414.694 258.235 416.632 257.447 418.355C256.632 420.08 255.458 421.471 253.927 422.528C252.37 423.615 250.585 424.233 248.57 424.382C246.528 424.533 244.686 424.198 243.043 423.376C241.375 422.584 240.023 421.38 238.988 419.764C237.954 418.176 237.357 416.292 237.195 414.111C237.185 413.973 237.187 413.821 237.203 413.653C237.193 413.515 237.181 413.363 237.169 413.198L256.087 411.796L256.25 413.99L238.905 415.275L239.999 414.32C240.116 415.893 240.564 417.261 241.344 418.424C242.098 419.617 243.081 420.515 244.291 421.119C245.501 421.724 246.865 421.969 248.383 421.857C249.873 421.746 251.186 421.302 252.322 420.524C253.457 419.747 254.31 418.712 254.881 417.421C255.451 416.13 255.677 414.684 255.558 413.084L255.524 412.628C255.402 410.973 254.935 409.537 254.123 408.32C253.286 407.134 252.192 406.229 250.842 405.608C249.466 405.016 247.937 404.783 246.253 404.907C244.928 405.006 243.718 405.331 242.621 405.884C241.497 406.439 240.556 407.23 239.8 408.258L238.003 406.476C238.883 405.245 240.032 404.272 241.45 403.557C242.84 402.843 244.404 402.422 246.143 402.293Z" fill="white"/>
<path d="M98.3442 344.606C99.6486 346.256 100.455 348.035 100.764 349.943C101.034 351.846 100.818 353.692 100.117 355.482C99.3932 357.288 98.1849 358.861 96.4917 360.2C94.7768 361.556 92.9677 362.369 91.0646 362.639C89.1614 362.909 87.3259 362.684 85.558 361.965C83.7902 361.247 82.2454 360.051 80.9239 358.38C79.5851 356.687 78.7699 354.897 78.4781 353.011C78.1692 351.103 78.3742 349.266 79.0931 347.498C79.7949 345.708 81.0032 344.135 82.7181 342.78C84.4113 341.441 86.2203 340.628 88.1452 340.341C90.0312 340.049 91.8776 340.265 93.6843 340.988C95.4693 341.729 97.0226 342.935 98.3442 344.606ZM96.2928 346.228C95.3145 344.991 94.1764 344.109 92.8786 343.583C91.559 343.074 90.1854 342.943 88.7577 343.19C87.2912 343.432 85.8959 344.077 84.5717 345.124C83.2259 346.188 82.2768 347.397 81.7245 348.751C81.155 350.083 80.9765 351.441 81.189 352.826C81.3798 354.227 81.9558 355.536 82.9169 356.751C83.8781 357.967 85.0184 358.829 86.338 359.338C87.6359 359.864 89.0072 360.014 90.452 359.789C91.8968 359.564 93.2922 358.92 94.638 357.855C95.9622 356.808 96.9113 355.599 97.4853 354.228C98.0376 352.874 98.2184 351.497 98.0276 350.095C97.8151 348.711 97.2368 347.422 96.2928 346.228Z" fill="white"/>
<path d="M69.0599 301.925C69.713 303.571 70.0247 305.145 69.9948 306.645C69.9547 308.12 69.5602 309.527 68.8113 310.866C68.0625 312.205 66.9696 313.428 65.5328 314.533C64.0703 315.65 62.2587 316.636 60.098 317.494C58.1688 318.259 56.4125 318.747 54.8292 318.959C53.2201 319.18 51.7607 319.179 50.4509 318.954C49.1412 318.73 47.9578 318.336 46.9008 317.773C45.8078 317.194 44.8437 316.49 44.0084 315.66C43.1372 314.815 42.3715 313.898 41.7114 312.91L35.9765 304.646L38.3393 303.173L43.667 310.973C44.0099 311.462 44.4502 312.046 44.9879 312.726C45.5153 313.38 46.1687 314.014 46.9481 314.628C47.7173 315.216 48.6461 315.681 49.7346 316.023C50.823 316.365 52.1048 316.482 53.58 316.373C55.0192 316.249 56.7034 315.804 58.6326 315.038C59.0441 314.875 59.3734 314.73 59.6204 314.602C59.8417 314.484 60.0888 314.356 60.3615 314.218C60.5983 314.065 60.9688 313.873 61.4731 313.643L60.9445 315.238C59.2631 315.577 57.6702 315.539 56.1657 315.124C54.6355 314.719 53.2886 313.988 52.1251 312.931C50.9256 311.859 50.0044 310.513 49.3614 308.892C48.6164 307.014 48.3646 305.179 48.606 303.386C48.8217 301.604 49.4865 300.015 50.6003 298.621C51.704 297.2 53.2076 296.112 55.111 295.357C56.9888 294.612 58.8471 294.381 60.686 294.664C62.5147 294.921 64.1647 295.665 65.6361 296.897C67.0818 298.14 68.223 299.816 69.0599 301.925ZM66.661 302.52C66.0895 301.079 65.2628 299.933 64.1809 299.083C63.0732 298.242 61.8311 297.737 60.4543 297.569C59.0674 297.375 57.6666 297.559 56.2518 298.12C54.8628 298.671 53.7557 299.482 52.9305 300.554C52.0951 301.6 51.5881 302.799 51.4096 304.15C51.2054 305.511 51.3942 306.925 51.9759 308.391C52.5474 309.831 53.3612 310.982 54.4174 311.843C55.4479 312.714 56.6309 313.257 57.9663 313.472C59.2916 313.66 60.6616 313.474 62.0764 312.913C63.4911 312.352 64.6419 311.538 65.5288 310.471C66.4054 309.379 66.9587 308.147 67.1886 306.776C67.4084 305.379 67.2325 303.96 66.661 302.52Z" fill="white"/>
<path d="M62.7206 261.776C62.827 262.794 62.764 263.788 62.5314 264.759C62.296 265.701 61.8826 266.538 61.291 267.267L58.9606 266.133C59.426 265.528 59.7633 264.895 59.9724 264.233C60.2061 263.541 60.2813 262.796 60.1979 261.997C60.0973 261.034 59.7358 260.237 59.1134 259.607C58.5157 258.946 57.5095 258.369 56.0947 257.877L52.7691 256.805L52.2805 256.523L31.2431 249.705L30.9412 246.816L56.3511 255.137C57.818 255.596 59.0032 256.154 59.9065 256.811C60.807 257.44 61.4669 258.164 61.8863 258.983C62.3333 259.799 62.6114 260.73 62.7206 261.776ZM54.5204 256.789L33.2702 269.109L32.9511 266.054L51.9274 255.14L54.5204 256.789Z" fill="white"/>
<path d="M43.4989 202.228C43.8505 203.571 44.0906 204.91 44.2192 206.246C44.3248 207.551 44.2799 208.832 44.0846 210.09C43.6898 212.633 42.8035 214.554 41.4257 215.852C40.0206 217.146 38.1012 217.605 35.6674 217.227L28.6123 216.131L29.058 213.26L35.9491 214.33C37.5898 214.585 38.9032 214.243 39.8891 213.303C40.875 212.364 41.5081 210.992 41.7883 209.188C41.9581 208.094 41.9997 206.924 41.913 205.678C41.799 204.428 41.5641 203.146 41.2082 201.83L43.4989 202.228ZM52.5667 203.888L31.0321 200.544L31.4843 197.632L53.0189 200.975L52.5667 203.888Z" fill="white"/>
<path d="M61.9439 164.289C61.0365 166.369 59.8087 168.007 58.2603 169.203C56.6865 170.389 54.945 171.093 53.0359 171.317C51.1013 171.53 49.1448 171.205 47.1664 170.342C45.1879 169.479 43.6203 168.297 42.4636 166.796C41.3179 165.269 40.6348 163.583 40.4141 161.735C40.1792 159.851 40.4656 157.984 41.2733 156.132C42.0921 154.255 43.248 152.782 44.7411 151.712C46.2199 150.606 47.9155 149.972 49.8279 149.81C51.7149 149.637 53.6603 149.987 55.6642 150.862C55.791 150.917 55.925 150.99 56.0661 151.082C56.1929 151.138 56.3324 151.198 56.4846 151.265L48.8997 168.652L46.8832 167.773L53.8374 151.831L54.1717 153.245C52.7259 152.614 51.3067 152.372 49.914 152.52C48.507 152.63 47.2541 153.08 46.1553 153.869C45.0564 154.658 44.2027 155.75 43.5942 157.145C42.9967 158.514 42.7771 159.883 42.9354 161.25C43.0937 162.617 43.6108 163.854 44.4867 164.961C45.3626 166.068 46.5361 166.942 48.0072 167.584L48.4257 167.766C49.9476 168.43 51.4358 168.687 52.8903 168.536C54.3304 168.349 55.6403 167.804 56.8198 166.899C57.985 165.958 58.9051 164.714 59.5801 163.167C60.1112 161.95 60.388 160.727 60.4104 159.499C60.4439 158.245 60.1828 157.044 59.627 155.896L62.041 155.138C62.7191 156.49 63.0439 157.96 63.0155 159.548C62.9982 161.111 62.6409 162.691 61.9439 164.289Z" fill="white"/>
<path d="M75.9485 131.926L59.0525 118.163L60.9139 115.878L68.3803 121.96L77.0581 111.307L69.5917 105.225L71.453 102.94L88.349 116.704L86.4877 118.989L79.0212 112.907L70.3435 123.559L77.8099 129.642L75.9485 131.926Z" fill="white"/>
<path d="M108.405 92.7902L96.1064 74.7996L98.5394 73.1364L108.308 87.4261L110.567 64.9139L112.726 63.4381L125.025 81.4286L122.592 83.0919L112.8 68.768L110.598 91.291L108.405 92.7902Z" fill="white"/>
<path d="M160.662 61.5774C158.511 62.3022 156.473 62.4929 154.547 62.1494C152.611 61.7796 150.92 60.9627 149.472 59.6987C148.014 58.4085 146.941 56.7406 146.252 54.6952C145.562 52.6498 145.385 50.6945 145.72 48.8294C146.081 46.9555 146.872 45.3164 148.092 43.9121C149.33 42.4727 150.906 41.4304 152.821 40.7851C154.761 40.131 156.629 39.9978 158.424 40.3855C160.237 40.7382 161.846 41.5685 163.25 42.8764C164.646 44.1581 165.693 45.8348 166.391 47.9064C166.435 48.0375 166.471 48.1862 166.498 48.3524C166.542 48.4835 166.591 48.6277 166.644 48.785L148.668 54.8446L147.965 52.7598L164.446 47.2041L163.623 48.4014C163.119 46.9067 162.345 45.6929 161.301 44.7601C160.273 43.7922 159.099 43.1661 157.776 42.8818C156.454 42.5974 155.072 42.6984 153.629 43.1845C152.213 43.6619 151.052 44.4184 150.145 45.4541C149.239 46.4898 148.67 47.7037 148.438 49.0959C148.207 50.4881 148.347 51.9447 148.86 53.4656L149.006 53.8983C149.536 55.4717 150.345 56.7466 151.434 57.7231C152.54 58.6645 153.824 59.2683 155.286 59.5347C156.766 59.766 158.305 59.612 159.905 59.0728C161.164 58.6485 162.256 58.0322 163.18 57.224C164.132 56.4069 164.846 55.4069 165.323 54.2239L167.506 55.5029C166.96 56.9137 166.089 58.1418 164.894 59.1872C163.724 60.2238 162.314 61.0205 160.662 61.5774Z" fill="white"/>
</svg>
