<svg width="484" height="483" viewBox="0 0 484 483" fill="none" xmlns="http://www.w3.org/2000/svg">
<path d="M425.564 256.199C425.948 253.103 426.698 250.436 427.813 248.199C428.925 245.996 430.337 244.32 432.052 243.17C433.762 242.055 435.692 241.56 437.842 241.687L437.036 248.189C435.317 248.256 433.911 249.024 432.821 250.496C431.76 252.007 431.061 254.121 430.725 256.839C430.4 259.453 430.491 261.543 430.996 263.107C431.535 264.676 432.544 265.552 434.023 265.736C435.227 265.885 436.199 265.377 436.937 264.211C437.671 263.079 438.202 261.189 438.531 258.54L439.247 252.76L443.891 253.336L443.194 258.96C442.9 261.334 443.044 263.134 443.626 264.359C444.203 265.618 445.025 266.314 446.092 266.446C447.399 266.608 448.482 266.043 449.34 264.752C450.199 263.462 450.767 261.698 451.044 259.462C451.351 256.985 451.205 254.923 450.606 253.277C450.006 251.631 448.932 250.572 447.384 250.101L448.19 243.598C450.026 244.001 451.607 244.913 452.933 246.335C454.289 247.795 455.257 249.714 455.835 252.091C456.448 254.473 456.561 257.229 456.173 260.359C455.819 263.215 455.151 265.647 454.168 267.656C453.185 269.665 451.987 271.159 450.574 272.136C449.19 273.152 447.69 273.56 446.073 273.36C444.766 273.198 443.613 272.636 442.614 271.674C441.611 270.746 440.89 269.381 440.449 267.58C440.004 265.813 439.948 263.588 440.281 260.905L441.158 261.014C440.81 264.953 439.899 267.931 438.426 269.949C436.988 271.972 435.099 272.838 432.76 272.548C431.005 272.331 429.514 271.535 428.287 270.16C427.056 268.82 426.186 266.965 425.676 264.596C425.201 262.232 425.163 259.433 425.564 256.199Z" fill="#232323"/>
<path d="M411.818 314.374L422.321 317.575L425.29 320.299L429.265 320.512L438.925 325.84L436.21 332.257L423.265 325.088L409.103 320.792L411.818 314.374ZM424.561 322.023C421.976 320.214 419.911 318.155 418.366 315.845C416.821 313.536 415.897 311.094 415.593 308.519C415.276 305.975 415.651 303.443 416.718 300.92C417.839 298.27 419.422 296.174 421.468 294.63C423.545 293.1 425.897 292.212 428.522 291.968C431.147 291.723 433.865 292.195 436.675 293.383C439.516 294.585 441.748 296.206 443.369 298.247C445.022 300.301 446.007 302.6 446.324 305.143C446.673 307.7 446.287 310.303 445.166 312.953C444.099 315.475 442.543 317.508 440.497 319.052C438.438 320.628 436.042 321.666 433.308 322.166C430.593 322.711 427.678 322.663 424.561 322.023ZM434.001 299.705C432.181 298.935 430.413 298.62 428.698 298.761C427.001 298.946 425.476 299.525 424.124 300.496C422.804 301.481 421.786 302.82 421.071 304.512C420.341 306.236 420.049 307.994 420.194 309.787C420.371 311.593 420.91 313.346 421.81 315.044C422.729 316.788 423.957 318.379 425.493 319.82C427.596 319.919 429.578 319.684 431.437 319.116C433.314 318.592 434.947 317.758 436.334 316.614C437.754 315.483 438.828 314.055 439.557 312.331C440.273 310.639 440.508 308.969 440.264 307.323C440.051 305.689 439.405 304.193 438.324 302.832C437.262 301.517 435.821 300.475 434.001 299.705Z" fill="#232323"/>
<path d="M388.949 352.653C391.445 349.634 394.175 347.529 397.14 346.337C400.11 345.193 403.191 344.975 406.385 345.682C409.557 346.415 412.72 348.085 415.872 350.692C420.575 354.58 423.272 358.879 423.965 363.59C424.658 368.301 423.303 373.096 419.899 377.974C418.536 379.95 417.41 381.583 416.523 382.874C415.614 384.191 414.892 385.281 414.358 386.145C413.851 387.03 413.444 387.795 413.135 388.44C412.805 389.111 412.524 389.778 412.291 390.44L407.843 386.762C408.049 386.078 408.411 385.231 408.931 384.221C409.478 383.234 410.239 382.041 411.214 380.644C412.19 379.246 413.409 377.555 414.87 375.57C417.643 371.835 418.805 368.253 418.357 364.824C417.909 361.394 415.881 358.189 412.275 355.206L410.992 354.146L411.545 354.131C412.635 356.022 413.275 357.968 413.465 359.969C413.632 361.997 413.37 364.028 412.676 366.064C411.983 368.1 410.874 370.039 409.35 371.883C407.428 374.207 405.308 375.873 402.991 376.881C400.673 377.888 398.315 378.21 395.917 377.847C393.523 377.532 391.271 376.502 389.16 374.757C386.943 372.924 385.459 370.774 384.708 368.309C383.962 365.893 383.941 363.334 384.645 360.633C385.349 357.932 386.784 355.272 388.949 352.653ZM392.937 356.153C391.656 357.703 390.832 359.271 390.465 360.857C390.076 362.47 390.135 364.003 390.643 365.457C391.154 366.96 392.092 368.274 393.454 369.401C394.817 370.527 396.271 371.19 397.816 371.388C399.339 371.613 400.857 371.383 402.368 370.698C403.856 370.04 405.241 368.936 406.523 367.386C408.246 365.302 409.209 362.995 409.412 360.464C409.593 357.96 408.975 355.47 407.559 352.994C404.993 351.637 402.405 351.23 399.798 351.773C397.168 352.342 394.881 353.802 392.937 356.153Z" fill="#232323"/>
<path d="M354.392 424.034L348.688 427.663L332.889 402.831L338.592 399.202L354.392 424.034ZM366.495 381.449L382.295 406.28L376.591 409.909L361.797 386.657L365.49 388.005L354.872 394.76C353.322 395.747 352.35 396.899 351.957 398.218C351.582 399.566 351.822 400.913 352.678 402.258C353.553 403.633 354.671 404.421 356.032 404.623C357.412 404.855 358.877 404.477 360.427 403.491L370.869 396.847L373.465 400.927L362.278 408.046C360.26 409.33 358.272 410.081 356.315 410.299C354.377 410.546 352.589 410.286 350.951 409.521C349.303 408.803 347.939 407.595 346.859 405.899C345.78 404.203 345.255 402.441 345.284 400.614C345.284 398.806 345.807 397.077 346.852 395.426C347.897 393.775 349.414 392.317 351.403 391.051L366.495 381.449Z" fill="#232323"/>
<path d="M313.546 413.793L315.94 428.391L321.244 442.201L300.666 447.777C297.923 448.521 295.609 448.465 293.725 447.611C291.808 446.765 290.546 445.222 289.938 442.98C289.376 440.906 289.709 439.02 290.937 437.322C292.141 435.667 294.099 434.346 296.813 433.359L296.638 434.7C293.34 435.521 290.65 435.532 288.565 434.732C286.481 433.932 285.126 432.378 284.5 430.069C283.838 427.627 284.203 425.462 285.596 423.576C286.964 421.733 289.204 420.39 292.316 419.546L313.546 413.793ZM307.657 417.113L310.956 419.344L295.196 423.615C293.423 424.095 292.242 424.774 291.654 425.652C291.041 426.572 290.902 427.652 291.238 428.89C291.537 429.994 292.238 430.792 293.341 431.283C294.411 431.783 295.983 431.752 298.057 431.19L311.658 427.504L312.801 431.72L300.153 435.148C298.447 435.61 297.299 436.28 296.711 437.158C296.099 438.078 295.942 439.09 296.241 440.195C296.531 441.265 297.118 442.04 298.002 442.519C298.862 443.04 300.095 443.083 301.701 442.648L316.155 438.731L314.471 442.258L309.666 430.091L307.657 417.113Z" fill="#232323"/>
<path d="M252.579 435.706C256.601 435.737 259.66 436.853 261.758 439.053C263.855 441.288 264.888 444.52 264.855 448.749L264.798 456.133L258.09 456.081L258.145 448.958C258.185 443.758 255.762 441.139 250.874 441.101C248.863 441.086 246.97 441.539 245.195 442.461C243.385 443.383 241.728 444.775 240.223 446.635L239.844 441.848C241.072 439.882 242.817 438.352 245.079 437.26C247.306 436.203 249.806 435.685 252.579 435.706ZM241.21 426.518L240.983 455.949L234.223 455.897L234.45 426.466L241.21 426.518Z" fill="#232323"/>
<path d="M214.247 426.237L206.011 454.493L199.621 452.631L206.911 427.619L208.727 428.636L182.248 447.568L173.861 445.123L182.096 416.867L188.486 418.729L181.095 444.09L179.244 443.009L206.059 423.851L214.247 426.237Z" fill="#232323"/>
<path d="M163.195 410.795L154.023 422.402L147.395 435.627L129.408 424.182C127.009 422.656 125.491 420.909 124.853 418.942C124.185 416.956 124.475 414.983 125.722 413.023C126.875 411.21 128.493 410.185 130.575 409.948C132.609 409.722 134.905 410.279 137.463 411.618L136.354 412.392C133.525 410.51 131.704 408.529 130.89 406.45C130.076 404.371 130.311 402.322 131.595 400.304C132.954 398.169 134.799 396.981 137.131 396.738C139.415 396.507 141.917 397.257 144.637 398.987L163.195 410.795ZM156.774 408.682L157.348 412.622L143.572 403.857C142.022 402.871 140.725 402.456 139.68 402.613C138.587 402.781 137.696 403.405 137.008 404.488C136.394 405.453 136.277 406.508 136.657 407.654C137.008 408.782 138.09 409.922 139.904 411.076L151.793 418.641L149.448 422.326L138.392 415.292C136.901 414.342 135.632 413.946 134.588 414.103C133.495 414.271 132.641 414.837 132.027 415.802C131.432 416.738 131.255 417.694 131.497 418.67C131.691 419.656 132.49 420.596 133.894 421.49L146.529 429.529L142.788 430.662L148.539 418.912L156.774 408.682Z" fill="#232323"/>
<path d="M110.037 370.604C112.411 373.271 114.018 376.041 114.857 378.914C115.648 381.784 115.683 384.56 114.962 387.244C114.218 389.902 112.706 392.244 110.427 394.273C108.123 396.324 105.62 397.553 102.92 397.961C100.171 398.365 97.4299 397.997 94.6972 396.856C91.9154 395.712 89.3376 393.806 86.9638 391.139C84.5899 388.472 83.0077 385.703 82.2172 382.833C81.3776 379.961 81.3299 377.195 82.0739 374.538C82.769 371.877 84.2689 369.521 86.5737 367.47C88.8525 365.442 91.3665 364.226 94.1156 363.821C96.8417 363.39 99.5956 363.747 102.377 364.891C105.11 366.032 107.663 367.937 110.037 370.604ZM106.075 374.13C104.554 372.421 102.941 371.234 101.236 370.57C99.5086 369.88 97.7884 369.694 96.0756 370.012C94.337 370.353 92.6907 371.215 91.137 372.598C89.5832 373.98 88.5492 375.504 88.0349 377.168C87.4947 378.856 87.4669 380.597 87.9517 382.394C88.4134 384.164 89.4048 385.903 90.9259 387.613C92.424 389.296 94.0369 390.482 95.7646 391.172C97.4924 391.862 99.2256 392.037 100.964 391.696C102.677 391.378 104.31 390.528 105.864 389.145C107.418 387.762 108.465 386.227 109.005 384.54C109.519 382.876 109.534 381.145 109.049 379.349C108.565 377.553 107.573 375.813 106.075 374.13Z" fill="#232323"/>
<path d="M60.9715 319.112C63.3084 318.372 65.6585 318.299 68.0219 318.893C70.354 319.502 72.5148 320.674 74.5042 322.41C76.4937 324.145 78.1349 326.356 79.4278 329.043C80.9011 332.104 81.6237 335.084 81.5954 337.983C81.5209 340.866 80.7529 343.467 79.2914 345.786C77.8299 348.106 75.7248 349.927 72.9759 351.25C70.227 352.573 67.4904 353.082 64.7661 352.777C62.0418 352.472 59.5455 351.442 57.2772 349.687C54.9627 347.915 53.0688 345.499 51.5955 342.438C50.3025 339.751 49.5985 337.089 49.4832 334.452C49.368 331.814 49.8155 329.387 50.8258 327.169C51.8048 324.967 53.3281 323.176 55.3956 321.796L58.3498 327.934C56.5611 329.333 55.5028 331.132 55.1751 333.328C54.8473 335.525 55.2472 337.795 56.3747 340.138C57.2768 342.012 58.4409 343.471 59.8671 344.516C61.2621 345.576 62.8347 346.166 64.585 346.285C66.289 346.389 68.0937 345.982 69.9992 345.065C71.8734 344.163 73.3174 343.006 74.331 341.595C75.3296 340.152 75.8655 338.548 75.9387 336.781C75.9806 335.03 75.5505 333.217 74.6485 331.343C73.506 328.969 71.9584 327.232 70.0058 326.133C68.0533 325.034 66.0265 324.739 63.9256 325.25L60.9715 319.112Z" fill="#232323"/>
<path d="M35.9904 293.8L34.6731 287.17L61.2458 281.891L62.563 288.521L35.9904 293.8ZM36.0764 306.242L29.9968 275.64L35.1991 274.606L41.2787 305.208L36.0764 306.242Z" fill="#232323"/>
<path d="M56.1061 254.438L26.7056 253.075L27.0185 246.323L54.549 247.598L51.3216 249.843L51.9041 237.273C51.9892 235.438 51.6056 233.98 50.7534 232.899C49.8665 231.817 48.6266 231.239 47.0337 231.165C45.4061 231.09 44.118 231.55 43.1695 232.548C42.1864 233.543 41.6523 234.959 41.5672 236.794L40.9943 249.157L36.1635 248.933L36.7773 235.687C36.8881 233.298 37.4172 231.24 38.3648 229.514C39.2778 227.786 40.5186 226.473 42.0872 225.574C43.6228 224.639 45.3949 224.218 47.4034 224.311C49.4119 224.404 51.1547 224.988 52.6319 226.063C54.1106 227.103 55.2246 228.525 55.9739 230.33C56.7232 232.135 57.0432 234.214 56.9341 236.569L56.1061 254.438Z" fill="#232323"/>
<path d="M69.6595 175.436C68.4013 178.291 66.9163 180.63 65.2043 182.451C63.5063 184.241 61.671 185.44 59.6983 186.049C57.7395 186.625 55.7487 186.543 53.726 185.803L56.3681 179.808C58.0344 180.239 59.6014 179.907 61.0693 178.811C62.5194 177.669 63.7967 175.846 64.901 173.339C65.9635 170.929 66.478 168.901 66.4447 167.258C66.3796 165.6 65.665 164.47 64.3009 163.869C63.1906 163.38 62.1142 163.588 61.0716 164.492C60.0431 165.365 58.9906 167.022 57.9142 169.465L55.5656 174.794L51.283 172.907L53.5686 167.721C54.5332 165.532 54.9131 163.767 54.7082 162.427C54.5173 161.054 53.9302 160.152 52.9468 159.718C51.7413 159.187 50.5417 159.416 49.3481 160.405C48.1545 161.395 47.1033 162.92 46.1946 164.982C45.1881 167.266 44.7351 169.283 44.8357 171.032C44.9362 172.781 45.6602 174.104 47.0077 175.001L44.3655 180.997C42.7224 180.083 41.4704 178.755 40.6096 177.012C39.731 175.223 39.3565 173.107 39.4861 170.664C39.5839 168.206 40.2689 165.534 41.541 162.648C42.7013 160.015 44.0409 157.877 45.5599 156.236C47.0788 154.594 48.6558 153.509 50.2909 152.979C51.9082 152.404 53.4624 152.445 54.9534 153.102C56.1588 153.633 57.1014 154.503 57.781 155.711C58.4746 156.888 58.7733 158.403 58.6771 160.255C58.5948 162.075 58.0085 164.222 56.9181 166.696L56.1092 166.34C57.5759 162.667 59.3048 160.077 61.2958 158.567C63.2551 157.044 65.3134 156.758 67.4705 157.708C69.0884 158.421 70.2872 159.613 71.0668 161.282C71.8604 162.92 72.1607 164.946 71.9677 167.362C71.743 169.763 70.9736 172.454 69.6595 175.436Z" fill="#232323"/>
<path d="M99.5525 123.508L90.4076 117.432L88.3436 113.971L84.5966 112.627L76.8695 104.754L81.3096 99.3839L91.6571 109.963L103.993 118.138L99.5525 123.508ZM89.5364 112.528C91.4946 115.002 92.8827 117.566 93.7008 120.222C94.5189 122.878 94.7043 125.482 94.257 128.036C93.8317 130.564 92.7466 132.883 91.0015 134.993C89.168 137.211 87.0501 138.766 84.6478 139.658C82.2188 140.529 79.7117 140.705 77.1264 140.187C74.5411 139.669 72.0729 138.438 69.7217 136.494C67.3439 134.528 65.6709 132.335 64.7028 129.915C63.708 127.473 63.4232 124.989 63.8484 122.461C64.2469 119.912 65.3629 117.529 67.1964 115.311C68.9415 113.2 71.0152 111.699 73.4175 110.806C75.8419 109.887 78.4351 109.58 81.1971 109.884C83.9545 110.14 86.7343 111.021 89.5364 112.528ZM74.0956 131.204C75.6184 132.463 77.2217 133.271 78.9053 133.628C80.5843 133.937 82.2106 133.82 83.7842 133.277C85.3312 132.711 86.69 131.721 87.8608 130.305C89.0536 128.862 89.8375 127.261 90.2124 125.502C90.5606 123.721 90.5469 121.888 90.1712 120.003C89.7909 118.069 89.0712 116.192 88.0122 114.372C86.0254 113.674 84.06 113.331 82.1159 113.343C80.1672 113.306 78.3642 113.637 76.7068 114.336C75.0228 115.012 73.5843 116.072 72.3915 117.515C71.2207 118.931 70.5164 120.463 70.2787 122.11C70.0142 123.736 70.2047 125.355 70.8501 126.968C71.4908 128.533 72.5727 129.944 74.0956 131.204Z" fill="#232323"/>
<path d="M132.19 93.3536C128.932 95.5287 125.712 96.7615 122.53 97.052C119.357 97.2945 116.342 96.6186 113.486 95.0244C110.658 93.411 108.108 90.9032 105.837 87.501C102.449 82.4266 101.1 77.5336 101.789 72.8219C102.478 68.1102 105.153 63.9068 109.814 60.2116C111.688 58.7105 113.235 57.4691 114.455 56.4876C115.705 55.4869 116.709 54.6497 117.468 53.9762C118.208 53.2738 118.818 52.6581 119.298 52.1289C119.808 51.5806 120.269 51.0226 120.682 50.4551L123.887 55.2556C123.493 55.8519 122.902 56.559 122.114 57.3768C121.307 58.1657 120.236 59.0894 118.9 60.148C117.564 61.2065 115.911 62.4767 113.941 63.9587C110.212 66.7398 108.07 69.8372 107.515 73.2508C106.959 76.6644 107.981 80.3174 110.58 84.2097L111.504 85.5936L110.97 85.4497C110.468 83.3252 110.414 81.2773 110.807 79.306C111.229 77.3154 112.064 75.4448 113.313 73.6941C114.562 71.9434 116.181 70.4039 118.17 69.0758C120.679 67.4012 123.187 66.414 125.697 66.1143C128.206 65.8146 130.557 66.1832 132.75 67.2202C134.952 68.209 136.814 69.8423 138.334 72.12C139.932 74.5131 140.737 76.998 140.748 79.5747C140.769 82.1034 140.054 84.5605 138.604 86.9459C137.153 89.3313 135.016 91.4672 132.19 93.3536ZM129.375 88.8557C131.047 87.7393 132.287 86.4741 133.093 85.0602C133.929 83.6271 134.312 82.1413 134.244 80.603C134.185 79.0166 133.665 77.4882 132.683 76.0178C131.702 74.5473 130.499 73.4953 129.076 72.8617C127.681 72.2088 126.162 71.9934 124.518 72.2157C122.903 72.4186 121.259 73.0783 119.587 74.1947C117.338 75.6961 115.753 77.6297 114.831 79.9956C113.939 82.3422 113.815 84.9046 114.461 87.6829C116.53 89.7198 118.891 90.8528 121.545 91.0819C124.228 91.2916 126.838 90.5496 129.375 88.8557Z" fill="#232323"/>
<path d="M185.018 34.9117L191.522 33.0694L199.543 61.3875L193.038 63.2297L185.018 34.9117ZM161.218 72.2425L153.197 43.9244L159.702 42.0822L167.212 68.5991L164.06 66.249L176.168 62.8197C177.936 62.3189 179.197 61.4933 179.952 60.3426C180.698 59.1586 180.853 57.7995 180.419 56.2652C179.975 54.6975 179.13 53.6218 177.883 53.038C176.628 52.4208 175.116 52.3626 173.348 52.8633L161.441 56.236L160.123 51.5831L172.881 47.9695C175.182 47.3176 177.302 47.1677 179.239 47.5197C181.167 47.8384 182.805 48.5993 184.155 49.8024C185.528 50.9627 186.489 52.5101 187.037 54.4446C187.585 56.3792 187.583 58.2173 187.032 59.9588C186.513 61.691 185.517 63.1982 184.043 64.4805C182.568 65.7628 180.697 66.7252 178.429 67.3676L161.218 72.2425Z" fill="#232323"/>
<path d="M222.359 56.0632L224.32 41.4008L223.267 26.6452L244.577 27.3034C247.418 27.3912 249.616 28.118 251.169 29.484C252.757 30.851 253.515 32.6953 253.443 35.0168C253.377 37.1651 252.509 38.8725 250.84 40.1389C249.206 41.3717 246.948 42.065 244.064 42.2187L244.623 40.9874C248.016 41.1615 250.594 41.9348 252.355 43.3072C254.116 44.6795 254.959 46.5611 254.886 48.952C254.807 51.4814 253.828 53.4455 251.946 54.8441C250.101 56.2091 247.567 56.8418 244.344 56.7423L222.359 56.0632ZM228.959 54.6023L226.453 51.5074L242.773 52.0115C244.61 52.0682 245.937 51.7624 246.756 51.094C247.61 50.3921 248.056 49.4 248.096 48.118C248.131 46.9745 247.693 46.0072 246.781 45.216C245.904 44.4259 244.391 43.9976 242.243 43.9313L228.157 43.4962L228.292 39.1303L241.39 39.5349C243.157 39.5894 244.45 39.2825 245.268 38.6142C246.122 37.9122 246.567 36.9895 246.602 35.846C246.636 34.7372 246.3 33.8251 245.594 33.1096C244.924 32.3605 243.757 31.9603 242.094 31.909L227.125 31.4466L229.763 28.5627L230.817 41.6014L228.959 54.6023Z" fill="#232323"/>
<path d="M286.184 52.2818C282.341 51.0983 279.73 49.1518 278.352 46.4422C276.984 43.6994 276.922 40.307 278.166 36.265L280.34 29.208L286.75 31.1821L284.654 37.9906C283.124 42.9603 284.694 46.1645 289.366 47.6029C291.287 48.1947 293.231 48.3034 295.196 47.9292C297.194 47.5651 299.181 46.7079 301.157 45.3575L300.146 50.0521C298.405 51.5835 296.295 52.5477 293.815 52.9448C291.378 53.3189 288.834 53.0979 286.184 52.2818ZM294.439 64.3455L303.101 36.2168L309.561 38.2062L300.9 66.3349L294.439 64.3455Z" fill="#232323"/>
<path d="M320.394 72.1579L336.466 47.5015L342.042 51.1362L327.815 72.961L326.372 71.4615L357.201 61.0178L364.52 65.7883L348.448 90.4447L342.872 86.81L357.297 64.6803L358.755 66.2517L327.538 76.8148L320.394 72.1579Z" fill="#232323"/>
<path d="M365.377 101.895L377.497 93.4133L387.645 82.6498L401.585 98.7804C403.444 100.931 404.397 103.04 404.443 105.108C404.511 107.203 403.667 109.009 401.91 110.528C400.284 111.933 398.439 112.45 396.377 112.079C394.364 111.711 392.325 110.518 390.26 108.5L391.544 108.077C393.713 110.693 394.889 113.113 395.071 115.339C395.253 117.564 394.439 119.458 392.629 121.023C390.715 122.677 388.606 123.286 386.303 122.848C384.049 122.413 381.867 120.976 379.759 118.537L365.377 101.895ZM370.92 105.764L371.502 101.825L382.178 114.178C383.38 115.569 384.503 116.339 385.549 116.488C386.644 116.642 387.677 116.299 388.647 115.461C389.513 114.713 389.928 113.735 389.893 112.528C389.881 111.348 389.172 109.944 387.766 108.318L378.552 97.6561L381.857 94.7999L390.425 104.714C391.581 106.052 392.682 106.796 393.728 106.946C394.823 107.099 395.803 106.802 396.669 106.054C397.508 105.328 397.952 104.464 398 103.46C398.098 102.459 397.603 101.329 396.515 100.07L386.722 88.7394L390.631 88.7291L381.747 98.3312L370.92 105.764Z" fill="#232323"/>
<path d="M405.156 156.078C403.656 152.838 402.919 149.722 402.947 146.729C403.021 143.753 403.791 141.085 405.257 138.725C406.739 136.396 408.863 134.591 411.632 133.309C414.431 132.013 417.183 131.56 419.885 131.951C422.634 132.359 425.151 133.505 427.436 135.388C429.768 137.288 431.684 139.858 433.185 143.098C434.685 146.338 435.399 149.446 435.325 152.422C435.297 155.415 434.543 158.076 433.062 160.404C431.626 162.75 429.509 164.571 426.709 165.867C423.941 167.149 421.183 167.586 418.434 167.178C415.7 166.802 413.167 165.663 410.835 163.763C408.55 161.88 406.657 159.318 405.156 156.078ZM409.969 153.849C410.931 155.926 412.131 157.528 413.571 158.657C415.025 159.817 416.618 160.493 418.349 160.685C420.112 160.862 421.937 160.513 423.825 159.639C425.712 158.765 427.143 157.606 428.117 156.161C429.122 154.702 429.653 153.043 429.708 151.184C429.779 149.356 429.333 147.403 428.372 145.327C427.425 143.283 426.224 141.68 424.77 140.52C423.316 139.359 421.707 138.691 419.944 138.514C418.213 138.322 416.404 138.664 414.516 139.538C412.629 140.412 411.182 141.578 410.177 143.037C409.203 144.481 408.688 146.133 408.632 147.993C408.577 149.852 409.022 151.805 409.969 153.849Z" fill="#232323"/>
<path d="M437.111 218.674C434.66 218.713 432.388 218.11 430.294 216.863C428.234 215.612 426.5 213.869 425.091 211.636C423.683 209.403 422.744 206.815 422.275 203.87C421.741 200.515 421.903 197.453 422.761 194.684C423.659 191.943 425.14 189.671 427.205 187.868C429.27 186.065 431.809 184.924 434.822 184.445C437.835 183.965 440.602 184.262 443.125 185.334C445.648 186.407 447.744 188.109 449.414 190.441C451.124 192.802 452.245 195.66 452.779 199.015C453.248 201.959 453.16 204.711 452.514 207.271C451.868 209.831 450.744 212.029 449.14 213.863C447.571 215.693 445.598 216.972 443.222 217.702L442.151 210.974C444.266 210.146 445.795 208.727 446.739 206.716C447.683 204.705 447.95 202.416 447.541 199.849C447.214 197.794 446.518 196.062 445.451 194.653C444.418 193.237 443.08 192.222 441.438 191.606C439.835 191.018 437.989 190.891 435.901 191.223C433.847 191.55 432.132 192.244 430.756 193.306C429.386 194.401 428.413 195.785 427.836 197.456C427.294 199.122 427.187 200.982 427.514 203.037C427.928 205.638 428.913 207.746 430.468 209.359C432.024 210.972 433.881 211.834 436.04 211.947L437.111 218.674Z" fill="#232323"/>
</svg>
