<svg width="455" height="473" viewBox="0 0 455 473" fill="none" xmlns="http://www.w3.org/2000/svg">
<path d="M398.052 260.725C398.545 257.189 399.614 254.17 401.258 251.67C402.932 249.208 405.024 247.382 407.535 246.193C410.042 245.037 412.806 244.671 415.827 245.092C418.883 245.519 421.441 246.628 423.501 248.421C425.59 250.253 427.086 252.579 427.987 255.4C428.918 258.26 429.137 261.459 428.643 264.995C428.149 268.531 427.066 271.53 425.392 273.992C423.748 276.493 421.673 278.321 419.166 279.476C416.689 280.67 413.923 281.054 410.867 280.628C407.846 280.206 405.291 279.079 403.201 277.248C401.107 275.45 399.594 273.122 398.663 270.261C397.762 267.44 397.558 264.262 398.052 260.725ZM403.305 261.458C402.988 263.724 403.13 265.722 403.728 267.451C404.322 269.214 405.295 270.644 406.647 271.743C408.033 272.847 409.756 273.542 411.816 273.83C413.876 274.117 415.707 273.918 417.308 273.231C418.943 272.549 420.288 271.442 421.342 269.909C422.391 268.41 423.074 266.528 423.39 264.262C423.701 262.03 423.56 260.033 422.966 258.27C422.372 256.507 421.382 255.073 419.996 253.97C418.644 252.871 416.938 252.178 414.878 251.89C412.818 251.603 410.971 251.8 409.335 252.482C407.734 253.169 406.407 254.278 405.353 255.811C404.299 257.344 403.616 259.227 403.305 261.458Z" fill="#232323"/>
<path d="M58.4504 257.448C58.8889 260.992 58.6377 264.184 57.6968 267.025C56.7173 269.836 55.1686 272.141 53.0509 273.94C50.9289 275.705 48.3541 276.774 45.3265 277.149C42.2645 277.528 39.5067 277.118 37.0529 275.92C34.5605 274.691 32.5139 272.831 30.9131 270.339C29.2737 267.818 28.2347 264.785 27.7962 261.241C27.3577 257.698 27.6282 254.52 28.6077 251.71C29.5486 248.868 31.08 246.566 33.202 244.801C35.2854 243.006 37.858 241.919 40.92 241.54C43.9476 241.166 46.7076 241.593 49.2 242.821C51.6882 244.015 53.752 245.873 55.3914 248.395C56.9922 250.887 58.0118 253.904 58.4504 257.448ZM53.1865 258.099C52.9055 255.829 52.2521 253.936 51.2263 252.421C50.1962 250.872 48.8862 249.742 47.2961 249.03C45.6716 248.323 43.8273 248.097 41.763 248.352C39.6987 248.608 37.9823 249.274 36.6136 250.352C35.2105 251.434 34.1983 252.852 33.5769 254.605C32.9513 256.324 32.779 258.319 33.06 260.59C33.3368 262.826 33.9902 264.719 35.0202 266.268C36.0503 267.817 37.3775 268.946 39.002 269.653C40.5921 270.364 42.4193 270.592 44.4835 270.337C46.5478 270.081 48.2815 269.413 49.6845 268.331C51.0532 267.253 52.0482 265.838 52.6696 264.084C53.2909 262.331 53.4632 260.336 53.1865 258.099Z" fill="#232323"/>
<path d="M386.042 309.462C387.661 305.895 389.746 303.149 392.296 301.223C394.863 299.342 397.78 298.326 401.048 298.172C404.301 298.051 407.791 298.835 411.515 300.527C417.071 303.049 420.799 306.494 422.7 310.86C424.601 315.226 424.547 320.208 422.538 325.806C421.738 328.07 421.079 329.941 420.56 331.419C420.027 332.928 419.616 334.169 419.326 335.142C419.069 336.129 418.875 336.974 418.746 337.677C418.603 338.411 418.506 339.128 418.455 339.828L413.199 337.442C413.219 336.728 413.348 335.815 413.585 334.705C413.855 333.609 414.277 332.259 414.853 330.655C415.429 329.051 416.163 327.099 417.054 324.801C418.754 320.471 418.939 316.71 417.61 313.517C416.28 310.324 413.485 307.76 409.223 305.825L407.708 305.137L408.238 304.978C409.785 306.518 410.911 308.229 411.618 310.111C412.31 312.024 412.588 314.054 412.451 316.2C412.314 318.346 411.751 320.508 410.762 322.686C409.515 325.432 407.905 327.595 405.931 329.173C403.958 330.752 401.767 331.68 399.357 331.956C396.964 332.278 394.521 331.873 392.027 330.741C389.407 329.551 387.413 327.865 386.043 325.682C384.691 323.545 384.002 321.081 383.975 318.289C383.948 315.498 384.637 312.555 386.042 309.462ZM390.806 311.797C389.975 313.628 389.59 315.357 389.651 316.983C389.697 318.642 390.155 320.106 391.025 321.377C391.912 322.693 393.161 323.717 394.771 324.448C396.38 325.179 397.957 325.438 399.5 325.225C401.03 325.044 402.434 324.425 403.713 323.369C404.978 322.344 406.026 320.916 406.857 319.085C407.975 316.623 408.301 314.144 407.836 311.649C407.355 309.184 406.108 306.943 404.093 304.924C401.261 304.285 398.658 304.568 396.283 305.774C393.893 307.012 392.068 309.019 390.806 311.797Z" fill="#232323"/>
<path d="M57.4373 207.262C56.796 211.126 55.4932 214.319 53.5287 216.839C51.5358 219.319 48.9809 221.057 45.8642 222.051C42.7531 223.01 39.1798 223.155 35.1443 222.485C29.1253 221.487 24.6327 219.125 21.6665 215.399C18.7003 211.674 17.4631 206.848 17.9548 200.92C18.1412 198.527 18.2936 196.549 18.4122 194.987C18.5365 193.391 18.6125 192.086 18.6403 191.072C18.6339 190.052 18.6019 189.185 18.5444 188.473C18.4926 187.727 18.4009 187.009 18.2694 186.319L23.9635 187.264C24.1293 187.959 24.241 188.874 24.2988 190.008C24.3224 191.136 24.2636 192.55 24.1223 194.248C23.981 195.947 23.7773 198.021 23.5111 200.472C22.9901 205.094 23.7848 208.776 25.8954 211.515C28.006 214.255 31.3698 216.008 35.9866 216.774L37.6282 217.047L37.1582 217.338C35.2653 216.251 33.7342 214.889 32.5647 213.255C31.4009 211.586 30.6074 209.697 30.1842 207.588C29.7609 205.48 29.7451 203.246 30.1367 200.886C30.6304 197.911 31.626 195.406 33.1235 193.37C34.621 191.334 36.4978 189.871 38.754 188.98C40.9818 188.05 43.4465 187.809 46.1482 188.257C48.9867 188.728 51.3498 189.841 53.2375 191.595C55.0966 193.309 56.4004 195.511 57.1489 198.2C57.8974 200.89 57.9935 203.91 57.4373 207.262ZM52.2304 206.239C52.5596 204.256 52.4843 202.486 52.0044 200.931C51.5303 199.341 50.7087 198.045 49.5397 197.043C48.3421 196.001 46.8713 195.335 45.1271 195.046C43.383 194.756 41.793 194.914 40.3572 195.519C38.9272 196.09 37.731 197.051 36.7688 198.403C35.8123 199.72 35.1694 201.37 34.8403 203.354C34.3976 206.021 34.7242 208.5 35.82 210.79C36.9215 213.046 38.7067 214.889 41.1754 216.318C44.0762 216.202 46.5176 215.254 48.4997 213.474C50.4874 211.661 51.731 209.249 52.2304 206.239Z" fill="#232323"/>
<path d="M360.306 339.583C361.425 338.259 362.615 337.2 363.877 336.405C365.09 335.615 366.379 335.003 367.745 334.568L371.676 337.892C370.19 338.361 368.921 338.922 367.869 339.576C366.795 340.256 365.776 341.166 364.814 342.304C363.896 343.39 363.331 344.569 363.118 345.841C362.878 347.091 363.132 348.509 363.88 350.094L377.638 379.087L373.005 384.568L358.776 352.588C357.989 350.834 357.568 349.184 357.512 347.639C357.408 346.098 357.607 344.655 358.109 343.309C358.589 341.99 359.321 340.747 360.306 339.583ZM365.947 348.777L396.437 356.849L391.637 362.528L361.616 353.9L365.947 348.777Z" fill="#232323"/>
<path d="M74.5003 171.508C73.762 173.076 72.8863 174.407 71.8732 175.501C70.9062 176.578 69.8193 177.504 68.6124 178.277L63.9548 176.084C65.2686 175.246 66.3491 174.376 67.1961 173.472C68.0579 172.536 68.8063 171.394 69.4412 170.046C70.0466 168.76 70.2876 167.475 70.1642 166.19C70.0721 164.921 69.4597 163.617 68.327 162.279L47.5343 137.835L50.5908 131.342L72.6119 158.549C73.8258 160.04 74.6596 161.525 75.1132 163.003C75.6131 164.464 75.7946 165.91 75.6578 167.34C75.5358 168.738 75.15 170.128 74.5003 171.508ZM66.6717 164.086L35.1311 164.181L38.2984 157.454L69.5288 158.017L66.6717 164.086Z" fill="#232323"/>
<path d="M338.918 388.184C342.221 385.89 345.363 385.037 348.346 385.625C351.349 386.241 354.056 388.286 356.468 391.76L360.68 397.825L355.17 401.652L351.107 395.8C348.141 391.529 344.65 390.787 340.635 393.575C338.984 394.722 337.699 396.184 336.781 397.961C335.834 399.758 335.282 401.851 335.125 404.239L332.055 400.546C331.925 398.231 332.468 395.975 333.686 393.779C334.896 391.631 336.64 389.766 338.918 388.184ZM324.331 387.234L341.118 411.409L335.565 415.265L318.778 391.09L324.331 387.234Z" fill="#232323"/>
<path d="M82.5811 119.027C79.9842 122.097 77.1692 123.734 74.1361 123.939C71.0765 124.12 67.9321 122.846 64.7028 120.115L59.0649 115.346L63.3968 110.224L68.8362 114.825C72.8065 118.183 76.37 117.996 79.5265 114.264C80.8249 112.729 81.6877 110.984 82.1147 109.029C82.5642 107.049 82.5556 104.885 82.0889 102.538L86.0102 105.309C86.7354 107.512 86.794 109.831 86.1858 112.268C85.5736 114.656 84.372 116.909 82.5811 119.027ZM96.9169 116.168L74.4447 97.162L78.8101 92.0005L101.282 111.007L96.9169 116.168Z" fill="#232323"/>
<path d="M288.86 405.506C292.096 404.361 295.185 403.947 298.13 404.266C301.086 404.617 303.67 405.633 305.883 407.314C308.096 408.994 309.717 411.289 310.747 414.197C311.764 417.073 311.985 419.827 311.409 422.458C310.811 425.133 309.533 427.498 307.576 429.551C305.597 431.649 303.055 433.247 299.951 434.346C296.846 435.445 293.918 435.691 291.165 435.084C288.392 434.521 285.939 433.201 283.806 431.124C281.674 429.047 280.006 426.309 278.803 422.911L304.931 413.663L306.649 418.516L283.707 426.636L286.252 423.694C286.997 425.49 287.994 426.902 289.241 427.932C290.455 428.973 291.837 429.605 293.387 429.829C294.916 430.097 296.563 429.919 298.328 429.294C300.191 428.635 301.692 427.68 302.831 426.431C303.937 425.194 304.64 423.75 304.939 422.1C305.249 420.483 305.074 418.742 304.415 416.88C303.686 414.821 302.598 413.202 301.151 412.022C299.671 410.854 297.937 410.163 295.948 409.947C293.939 409.776 291.757 410.107 289.405 410.94C287.28 411.691 285.223 412.787 283.232 414.228C281.253 415.7 279.627 417.342 278.356 419.153L276.725 414.545C277.962 412.636 279.672 410.872 281.857 409.253C284.01 407.645 286.344 406.396 288.86 405.506Z" fill="#232323"/>
<path d="M126.449 89.3363C123.62 91.2797 120.743 92.4786 117.816 92.933C114.87 93.3589 112.111 93.0465 109.538 91.9958C106.966 90.9452 104.806 89.1484 103.059 86.6055C101.331 84.091 100.405 81.4885 100.281 78.7978C100.166 76.059 100.788 73.4444 102.148 70.9541C103.516 68.4157 105.557 66.214 108.272 64.349C110.986 62.4841 113.751 61.4887 116.567 61.3628C119.392 61.1887 122.103 61.8287 124.7 63.2828C127.297 64.7369 129.617 66.9498 131.658 69.9213L108.814 85.6163L105.899 81.3732L125.957 67.5923L124.261 71.0921C123.076 69.5509 121.748 68.4445 120.277 67.7727C118.835 67.0813 117.336 66.8282 115.781 67.0134C114.234 67.1504 112.69 67.7489 111.147 68.809C109.518 69.928 108.315 71.2381 107.538 72.7394C106.79 74.2211 106.485 75.7975 106.624 77.4687C106.743 79.1114 107.362 80.747 108.481 82.3756C109.717 84.1757 111.187 85.4581 112.89 86.2228C114.622 86.9678 116.476 87.1871 118.453 86.8806C120.438 86.5259 122.46 85.6419 124.517 84.2285C126.374 82.9524 128.078 81.3613 129.628 79.4549C131.159 77.52 132.304 75.5135 133.063 73.4355L135.831 77.4643C135.131 79.628 133.935 81.7746 132.243 83.9041C130.58 86.0139 128.649 87.8247 126.449 89.3363Z" fill="#232323"/>
<path d="M261.264 445.763L254.569 446.176L252.754 416.801L259.449 416.387L261.264 445.763ZM236.3 447.306L229.605 447.72L227.789 418.344L234.484 417.93L236.3 447.306ZM256.741 434.112L232.763 435.594L232.442 430.404L256.42 428.921L256.741 434.112Z" fill="#232323"/>
<path d="M142.685 43.3089L149.045 41.1764L158.402 69.0814L152.042 71.214L142.685 43.3089ZM166.399 35.3572L172.759 33.2246L182.116 61.1297L175.756 63.2622L166.399 35.3572ZM150.07 53.3923L172.847 45.7547L174.501 50.6849L151.723 58.3225L150.07 53.3923Z" fill="#232323"/>
<path d="M209.11 419.067L202.497 447.746L196.011 446.251L201.865 420.865L203.736 421.777L178.378 442.185L169.865 440.222L176.478 411.542L182.964 413.038L177.028 438.778L175.118 437.804L200.8 417.151L209.11 419.067Z" fill="#232323"/>
<path d="M199.972 55.5982L198.937 26.1844L205.589 25.9504L206.505 51.9863L204.462 51.5899L223.674 25.3141L232.404 25.0069L233.439 54.4207L226.787 54.6547L225.858 28.2551L227.955 28.7016L208.495 55.2984L199.972 55.5982Z" fill="#232323"/>
<path d="M146.02 398.475C149.013 400.155 151.359 402.208 153.059 404.633C154.742 407.088 155.68 409.702 155.873 412.474C156.067 415.246 155.408 417.977 153.898 420.667C152.405 423.328 150.478 425.307 148.119 426.607C145.713 427.92 143.092 428.516 140.257 428.396C137.376 428.289 134.499 427.43 131.627 425.818C128.755 424.206 126.641 422.164 125.285 419.694C123.881 417.236 123.258 414.521 123.416 411.549C123.574 408.576 124.535 405.518 126.3 402.374L150.469 415.94L147.949 420.429L126.728 408.518L130.617 408.494C129.757 410.238 129.351 411.918 129.398 413.535C129.414 415.134 129.849 416.591 130.702 417.904C131.508 419.231 132.727 420.352 134.359 421.269C136.082 422.236 137.789 422.737 139.479 422.771C141.139 422.788 142.688 422.366 144.126 421.503C145.547 420.671 146.742 419.394 147.709 417.67C148.778 415.766 149.279 413.881 149.213 412.015C149.117 410.132 148.495 408.372 147.348 406.734C146.153 405.109 144.467 403.686 142.29 402.464C140.325 401.361 138.145 400.535 135.75 399.986C133.338 399.467 131.032 399.326 128.833 399.562L131.225 395.299C133.476 394.972 135.93 395.098 138.587 395.675C141.215 396.235 143.692 397.169 146.02 398.475Z" fill="#232323"/>
<path d="M266.242 59.1613C262.916 58.3133 260.118 56.938 257.849 55.0356C255.588 53.0995 254.005 50.8177 253.101 48.1902C252.197 45.5626 252.126 42.754 252.888 39.7644C253.642 36.8083 254.99 34.3973 256.933 32.5315C258.918 30.6406 261.295 29.3863 264.064 28.7687C266.875 28.1261 269.876 28.2117 273.067 29.0254C276.259 29.8392 278.829 31.2638 280.779 33.2993C282.77 35.3098 284.074 37.771 284.691 40.6831C285.308 43.5951 285.171 46.7979 284.281 50.2915L257.424 43.4431L258.696 38.4548L282.277 44.4679L278.527 45.4971C278.906 43.5903 278.863 41.8622 278.4 40.313C277.97 38.7723 277.173 37.4779 276.009 36.4299C274.887 35.3568 273.42 34.589 271.606 34.1264C269.691 33.6382 267.913 33.5962 266.271 34.0005C264.664 34.4133 263.277 35.2224 262.111 36.4277C260.953 37.5993 260.13 39.1425 259.642 41.0573C259.103 43.1736 259.106 45.1242 259.653 46.9093C260.233 48.7029 261.289 50.2423 262.822 51.5276C264.397 52.7877 266.393 53.7262 268.812 54.3429C270.995 54.8997 273.315 55.1334 275.77 55.0441C278.234 54.9211 280.498 54.4609 282.562 53.6634L281.354 58.3999C279.265 59.2981 276.862 59.8123 274.146 59.9425C271.463 60.0812 268.828 59.8208 266.242 59.1613Z" fill="#232323"/>
</svg>
