<svg width="67" height="67" viewBox="0 0 67 67" fill="none" xmlns="http://www.w3.org/2000/svg">
<rect width="67" height="67" rx="33.5" fill="#F2F1F1"/>
<path d="M23.6557 38.8026C23.0403 39.3329 22.6865 40.1049 22.6865 40.9172V41.1716C22.6865 43.6734 25.7239 44.9122 27.4736 43.124L29.8471 40.6981L25.1971 37.4741L23.6557 38.8026Z" fill="#232323"/>
<path d="M48.3307 21.6329C48.6835 19.4879 46.5576 17.7805 44.5392 18.5878L16.9193 29.6358C14.2684 30.6962 14.7304 34.5816 17.5562 34.9907L21.0092 35.4905C21.6942 35.5897 22.3915 35.4309 22.966 35.0449L45.8713 19.6569L25.1971 37.4741L29.8471 40.6981L39.9952 47.7341C41.6802 48.9024 44.0077 47.9162 44.3405 45.893L48.3307 21.6329Z" fill="#232323"/>
</svg>
