<svg width="439" height="441" viewBox="0 0 439 441" fill="none" xmlns="http://www.w3.org/2000/svg">
<path d="M399.983 230.509C400.315 228.611 401.039 226.974 402.156 225.598C403.292 224.252 404.687 223.273 406.339 222.661C408.016 222.053 409.828 221.919 411.777 222.26C413.751 222.605 415.411 223.346 416.757 224.483C418.103 225.62 419.07 227.012 419.657 228.66C420.244 230.307 420.37 232.093 420.033 234.017C419.692 235.965 418.966 237.615 417.854 238.966C416.738 240.341 415.356 241.322 413.709 241.91C412.057 242.522 410.244 242.655 408.27 242.31C406.321 241.969 404.661 241.228 403.29 240.087C401.94 238.975 400.961 237.581 400.353 235.904C399.77 234.231 399.647 232.433 399.983 230.509ZM402.344 230.922C402.095 232.347 402.187 233.663 402.619 234.871C403.076 236.084 403.825 237.104 404.865 237.929C405.926 238.784 407.218 239.345 408.742 239.612C410.291 239.883 411.697 239.794 412.96 239.345C414.218 238.922 415.256 238.215 416.073 237.225C416.915 236.239 417.458 235.047 417.703 233.648C417.948 232.249 417.842 230.943 417.384 229.73C416.952 228.521 416.218 227.491 415.182 226.641C414.147 225.79 412.854 225.229 411.305 224.958C409.781 224.692 408.375 224.781 407.087 225.225C405.824 225.673 404.772 226.39 403.93 227.376C403.113 228.366 402.585 229.548 402.344 230.922Z" fill="white"/>
<path d="M395.177 262.043C395.823 260.173 396.81 258.636 398.139 257.431C399.483 256.259 401.02 255.501 402.748 255.159C404.5 254.825 406.311 254.981 408.181 255.627C410.075 256.282 411.596 257.277 412.745 258.613C413.893 259.949 414.622 261.489 414.932 263.233C415.234 265.001 415.061 266.82 414.415 268.69C413.861 270.296 413.048 271.639 411.977 272.718C410.907 273.797 409.62 274.493 408.116 274.805L407.48 272.452C408.663 272.136 409.647 271.578 410.434 270.776C411.221 269.974 411.809 269.01 412.198 267.884C412.662 266.541 412.769 265.223 412.518 263.929C412.292 262.643 411.735 261.498 410.847 260.493C409.96 259.489 408.773 258.73 407.287 258.217C405.8 257.703 404.398 257.567 403.08 257.81C401.762 258.052 400.605 258.605 399.609 259.468C398.637 260.34 397.919 261.447 397.455 262.79C397.066 263.916 396.933 265.038 397.057 266.154C397.181 267.271 397.599 268.314 398.31 269.284L396.357 270.743C395.392 269.577 394.809 268.235 394.609 266.717C394.433 265.207 394.622 263.649 395.177 262.043Z" fill="white"/>
<path d="M386.851 289.339C387.788 287.655 389.01 286.347 390.516 285.414C392.031 284.516 393.67 284.049 395.431 284.013C397.215 283.99 398.971 284.459 400.7 285.421C402.451 286.395 403.775 287.64 404.674 289.156C405.572 290.672 406.028 292.304 406.041 294.053C406.055 295.802 405.587 297.53 404.637 299.237C403.675 300.965 402.447 302.285 400.954 303.196C399.448 304.128 397.82 304.601 396.071 304.615C394.31 304.651 392.554 304.181 390.803 303.207C389.074 302.245 387.749 301 386.829 299.472C385.919 297.978 385.452 296.34 385.428 294.556C385.427 292.785 385.901 291.046 386.851 289.339ZM388.945 290.505C388.242 291.768 387.897 293.042 387.908 294.325C387.942 295.621 388.314 296.83 389.025 297.951C389.746 299.107 390.783 300.061 392.135 300.813C393.509 301.578 394.866 301.956 396.206 301.947C397.534 301.96 398.746 301.633 399.843 300.966C400.962 300.312 401.867 299.364 402.557 298.123C403.248 296.882 403.577 295.613 403.543 294.317C403.531 293.034 403.176 291.82 402.477 290.677C401.779 289.533 400.742 288.579 399.368 287.815C398.016 287.062 396.659 286.684 395.297 286.681C393.956 286.69 392.727 287.022 391.608 287.676C390.511 288.343 389.624 289.286 388.945 290.505Z" fill="white"/>
<path d="M373.534 315.272C374.423 314.131 375.463 313.125 376.656 312.254C377.849 311.383 379.111 310.774 380.442 310.428L381.495 312.358C380.342 312.682 379.226 313.227 378.147 313.994C377.087 314.776 376.176 315.657 375.412 316.638C374.668 317.634 374.146 318.593 373.845 319.516C373.544 320.439 373.468 321.28 373.617 322.039C373.765 322.798 374.129 323.403 374.71 323.855C375.55 324.51 376.497 324.636 377.549 324.234C378.622 323.848 379.672 322.994 380.701 321.673L382.805 318.972L384.366 320.188L382.379 322.739C381.771 323.519 381.333 324.288 381.066 325.044C380.798 325.8 380.73 326.486 380.861 327.103C380.976 327.739 381.294 328.26 381.814 328.665C382.374 329.101 383.01 329.275 383.722 329.187C384.419 329.118 385.132 328.822 385.862 328.297C386.592 327.773 387.292 327.08 387.962 326.22C388.55 325.424 389.061 324.52 389.495 323.508C389.95 322.512 390.287 321.44 390.505 320.292L392.624 320.978C392.387 322.272 392.038 323.463 391.577 324.551C391.12 325.674 390.533 326.695 389.816 327.616C388.874 328.908 387.844 329.921 386.724 330.657C385.589 331.413 384.468 331.841 383.36 331.943C382.272 332.06 381.288 331.776 380.407 331.09C379.627 330.482 379.134 329.712 378.927 328.78C378.721 327.847 378.77 326.856 379.073 325.807C379.376 324.757 379.925 323.722 380.72 322.701L381.22 323.235C379.818 325.036 378.376 326.164 376.897 326.619C375.402 327.094 374.054 326.864 372.853 325.929C371.913 325.197 371.324 324.24 371.087 323.058C370.869 321.892 370.974 320.623 371.399 319.251C371.81 317.899 372.521 316.572 373.534 315.272Z" fill="white"/>
<path d="M362.082 334.898L375.306 349.867L373.282 351.656L367.438 345.041L358 353.379L363.845 359.993L361.82 361.782L348.595 346.813L350.62 345.025L356.464 351.639L365.901 343.302L360.057 336.687L362.082 334.898Z" fill="white"/>
<path d="M327.543 365.588L329.885 369.329L330.365 369.881L334.281 376.137C335.183 377.578 336.284 378.429 337.586 378.692C338.866 378.968 340.301 378.608 341.892 377.612C342.989 376.926 343.917 376.09 344.677 375.106C345.437 374.121 345.973 373.112 346.284 372.08L348.386 373.143C347.984 374.412 347.302 375.617 346.34 376.758C345.392 377.92 344.251 378.918 342.918 379.753C340.725 381.125 338.694 381.634 336.826 381.277C334.949 380.956 333.317 379.688 331.931 377.474L325.35 366.961L327.543 365.588ZM333.279 361.773C334.547 360.979 335.782 360.49 336.984 360.307C338.178 360.158 339.25 360.294 340.202 360.716C341.168 361.158 341.953 361.864 342.559 362.831C343.111 363.713 343.405 364.636 343.44 365.601C343.468 366.601 343.143 367.612 342.466 368.634C341.782 369.691 340.633 370.725 339.021 371.734L333.184 375.388L332.114 373.679L337.886 370.065C339.52 369.042 340.478 368.039 340.759 367.055C341.02 366.084 340.88 365.169 340.342 364.309C339.736 363.341 338.876 362.803 337.76 362.693C336.644 362.584 335.409 362.953 334.055 363.801C332.765 364.609 331.839 365.592 331.278 366.751C330.709 367.945 330.559 369.236 330.829 370.623L329.324 369.366C329.054 367.979 329.248 366.615 329.906 365.276C330.542 363.95 331.666 362.782 333.279 361.773Z" fill="white"/>
<path d="M314.328 377.196L321.625 395.79L319.111 396.777L315.886 388.56L304.163 393.16L307.388 401.377L304.873 402.364L297.577 383.77L300.091 382.783L303.316 391L315.038 386.4L311.814 378.183L314.328 377.196Z" fill="white"/>
<path d="M283.922 392.136L287.664 411.757L285.011 412.263L283.357 403.592L270.987 405.952L272.641 414.622L269.987 415.128L266.245 395.508L268.899 395.002L270.552 403.672L282.922 401.313L281.269 392.642L283.922 392.136Z" fill="white"/>
<path d="M231.342 401.586L230.956 421.556L228.256 421.504L228.641 401.533L231.342 401.586ZM242.161 414.732C239.651 414.659 237.747 414.064 236.45 412.948C235.152 411.832 234.523 410.247 234.563 408.193C234.604 406.063 235.346 404.441 236.788 403.327C238.23 402.213 240.269 401.695 242.906 401.771L250.817 401.962L250.432 421.932L247.731 421.88L247.866 414.919L242.161 414.732ZM243.057 403.829C241.181 403.767 239.766 404.107 238.813 404.85C237.834 405.618 237.33 406.75 237.302 408.246C237.273 409.742 237.721 410.841 238.646 411.544C239.57 412.272 240.983 412.667 242.885 412.73L247.905 412.903L248.076 404.002L243.057 403.829Z" fill="white"/>
<path d="M204.558 401.804C206.6 402.201 208.31 402.973 209.689 404.12C211.063 405.292 212.04 406.71 212.62 408.373C213.196 410.062 213.295 411.877 212.917 413.819C212.539 415.761 211.793 417.398 210.681 418.732C209.544 420.061 208.171 421.008 206.562 421.574C204.923 422.159 203.195 422.275 201.378 421.921C199.535 421.562 197.987 420.822 196.733 419.699C195.449 418.596 194.544 417.205 194.018 415.527C193.487 413.873 193.413 412.063 193.796 410.096C193.821 409.971 193.86 409.837 193.914 409.692C193.938 409.568 193.965 409.431 193.994 409.282L211.06 412.604L210.675 414.584L195.027 411.537L196.226 410.957C195.949 412.376 196.016 413.694 196.425 414.91C196.804 416.147 197.456 417.178 198.381 418.004C199.305 418.83 200.452 419.376 201.821 419.643C203.166 419.905 204.434 419.829 205.626 419.415C206.817 419.001 207.821 418.292 208.637 417.288C209.452 416.284 210.001 415.06 210.282 413.616L210.362 413.205C210.653 411.711 210.586 410.329 210.161 409.057C209.707 407.806 208.958 406.743 207.914 405.868C206.84 405.013 205.544 404.437 204.025 404.142C202.83 403.909 201.681 403.905 200.578 404.13C199.45 404.349 198.428 404.822 197.511 405.548L196.352 403.539C197.427 402.663 198.678 402.08 200.104 401.789C201.505 401.493 202.99 401.498 204.558 401.804Z" fill="white"/>
<path d="M155.662 390.813C157.438 391.684 158.842 392.853 159.874 394.32C160.872 395.798 161.435 397.416 161.562 399.173C161.678 400.954 161.3 402.732 160.429 404.508C159.546 406.307 158.372 407.694 156.904 408.67C155.437 409.645 153.819 410.179 152.05 410.272C150.259 410.354 148.475 409.959 146.699 409.088C145.173 408.34 143.94 407.368 143.001 406.173C142.062 404.978 141.53 403.615 141.404 402.084L143.818 401.743C143.986 402.955 144.419 404.001 145.118 404.88C145.817 405.76 146.701 406.462 147.772 406.987C149.047 407.612 150.342 407.88 151.657 407.791C152.961 407.724 154.166 407.312 155.272 406.555C156.378 405.798 157.277 404.714 157.969 403.302C158.662 401.89 158.969 400.515 158.891 399.177C158.812 397.839 158.406 396.623 157.672 395.528C156.926 394.456 155.916 393.607 154.64 392.982C153.57 392.457 152.473 392.188 151.35 392.174C150.227 392.159 149.14 392.446 148.09 393.032L146.883 390.915C148.158 390.099 149.562 389.686 151.093 389.674C152.613 389.685 154.136 390.065 155.662 390.813Z" fill="white"/>
<path d="M136.028 384.517L124.044 400.496L121.883 398.875L127.179 391.814L117.104 384.258L111.808 391.319L109.647 389.699L121.632 373.719L123.793 375.34L118.497 382.401L128.571 389.957L133.867 382.896L136.028 384.517Z" fill="white"/>
<path d="M94.1776 352.595L79.2088 365.82L77.4203 363.795L92.3891 350.57L94.1776 352.595ZM91.8138 369.456C90.1702 367.558 89.3205 365.753 89.2646 364.043C89.2087 362.332 89.9506 360.797 91.4902 359.437C93.0869 358.026 94.7831 357.475 96.5789 357.784C98.3747 358.092 100.136 359.244 101.864 361.237L107.075 367.193L92.106 380.418L90.3176 378.393L95.5353 373.784L91.8138 369.456ZM100.45 362.74C99.2264 361.317 98.0188 360.505 96.8272 360.306C95.5998 360.104 94.4254 360.499 93.3039 361.489C92.1824 362.48 91.6758 363.554 91.7839 364.711C91.873 365.884 92.5378 367.192 93.7783 368.635L97.0464 372.448L103.718 366.554L100.45 362.74Z" fill="white"/>
<path d="M39.0693 192.829C38.544 194.684 37.6556 196.238 36.4043 197.492C35.1354 198.714 33.6479 199.545 31.9418 199.984C30.2112 200.417 28.3942 200.364 26.4907 199.824C24.5628 199.278 22.9877 198.371 21.7654 197.102C20.5431 195.833 19.7245 194.349 19.3095 192.65C18.8945 190.951 18.9531 189.162 19.4853 187.282C20.0244 185.379 20.9162 183.813 22.1607 182.583C23.4121 181.33 24.8874 180.495 26.5866 180.08C28.2928 179.641 30.1098 179.694 32.0377 180.24C33.9412 180.78 35.5163 181.687 36.763 182.963C37.9922 184.207 38.823 185.695 39.2555 187.425C39.6636 189.149 39.6015 190.95 39.0693 192.829ZM36.7631 192.176C37.1571 190.785 37.2012 189.466 36.8952 188.22C36.5648 186.966 35.9248 185.876 34.975 184.948C34.0077 183.988 32.7798 183.298 31.2912 182.876C29.7781 182.448 28.3705 182.392 27.0682 182.708C25.7728 183 24.668 183.597 23.7538 184.498C22.8152 185.392 22.1523 186.522 21.7652 187.889C21.3781 189.255 21.3498 190.565 21.6801 191.819C21.9861 193.065 22.6105 194.165 23.5534 195.117C24.4962 196.07 25.7242 196.76 27.2372 197.189C28.7258 197.61 30.1335 197.666 31.4602 197.357C32.7625 197.04 33.8829 196.435 34.8216 195.541C35.7358 194.64 36.383 193.518 36.7631 192.176Z" fill="white"/>
<path d="M47.1316 161.714C46.2936 163.506 45.1509 164.931 43.7036 165.991C42.2441 167.016 40.637 167.609 38.8824 167.768C37.1048 167.917 35.32 167.572 33.5279 166.734C31.7128 165.885 30.304 164.737 29.3015 163.288C28.299 161.839 27.7348 160.231 27.609 158.465C27.494 156.675 27.8555 154.884 28.6935 153.092C29.4133 151.552 30.362 150.302 31.5396 149.341C32.7171 148.379 34.0698 147.822 35.5976 147.668L35.9842 150.075C34.775 150.266 33.7373 150.718 32.871 151.433C32.0047 152.148 31.3191 153.045 30.8141 154.125C30.2125 155.412 29.9686 156.712 30.0825 158.025C30.1734 159.328 30.6076 160.525 31.3852 161.616C32.1627 162.708 33.2637 163.587 34.6882 164.253C36.1127 164.919 37.4931 165.2 38.8293 165.097C40.1656 164.994 41.3741 164.565 42.455 163.811C43.5128 163.045 44.3426 162.019 44.9443 160.733C45.4492 159.653 45.6983 158.551 45.6915 157.428C45.6847 156.305 45.3784 155.224 44.7724 154.184L46.8672 152.938C47.7059 154.198 48.1454 155.594 48.1855 157.125C48.2027 158.645 47.8514 160.174 47.1316 161.714Z" fill="white"/>
<path d="M58.4717 134.976C57.3607 136.551 56.0069 137.723 54.4104 138.49C52.8079 139.222 51.1289 139.512 49.3737 139.36C47.5976 139.194 45.9013 138.541 44.2846 137.4C42.6471 136.246 41.4624 134.867 40.7305 133.264C39.9985 131.662 39.7187 129.99 39.8912 128.249C40.0636 126.509 40.7126 124.84 41.8382 123.244C42.9785 121.628 44.3396 120.446 45.9214 119.699C47.5179 118.932 49.1864 118.635 50.9271 118.807C52.6824 118.959 54.3787 119.612 56.0162 120.767C57.6329 121.907 58.8176 123.286 59.5703 124.903C60.3169 126.485 60.607 128.164 60.4407 129.94C60.2537 131.701 59.5973 133.38 58.4717 134.976ZM56.513 133.595C57.3462 132.413 57.8254 131.184 57.9505 129.906C58.0548 128.614 57.813 127.373 57.225 126.182C56.6309 124.956 55.7017 123.897 54.4373 123.005C53.1523 122.099 51.843 121.579 50.5094 121.446C49.1905 121.291 47.9504 121.487 46.789 122.034C45.6068 122.566 44.6064 123.412 43.7878 124.573C42.9691 125.734 42.5076 126.96 42.4033 128.252C42.2783 129.529 42.5024 130.774 43.0758 131.985C43.6491 133.197 44.5783 134.256 45.8634 135.162C47.1278 136.054 48.4371 136.574 49.7913 136.722C51.1249 136.855 52.3827 136.656 53.5648 136.124C54.7262 135.578 55.7089 134.735 56.513 133.595Z" fill="white"/>
<path d="M74.2967 110.746C73.2931 111.787 72.1523 112.677 70.8742 113.418C69.5962 114.159 68.2774 114.631 66.9178 114.835L66.0737 112.806C67.254 112.605 68.4212 112.18 69.5753 111.531C70.7113 110.865 71.7106 110.084 72.5733 109.19C73.4177 108.278 74.0382 107.378 74.4346 106.492C74.8311 105.606 74.9954 104.778 74.9276 104.008C74.8598 103.238 74.5612 102.597 74.0317 102.087C73.2649 101.347 72.337 101.122 71.248 101.411C70.1408 101.682 69.0062 102.42 67.8442 103.625L65.4674 106.09L64.0433 104.717L66.2881 102.389C66.9747 101.677 67.4908 100.959 67.8364 100.235C68.182 99.5114 68.3222 98.8362 68.257 98.2096C68.2094 97.5647 67.9483 97.0133 67.4736 96.5556C66.9624 96.0626 66.3481 95.8226 65.6309 95.8357C64.9312 95.8305 64.1908 96.0502 63.4096 96.4949C62.6284 96.9396 61.8593 97.5545 61.1022 98.3396C60.4338 99.0692 59.8303 99.9143 59.2917 100.875C58.7348 101.818 58.2872 102.848 57.9487 103.967L55.9143 103.062C56.286 101.799 56.7584 100.652 57.3316 99.6189C57.9041 98.5501 58.5953 97.5958 59.4052 96.756C60.4779 95.5705 61.6096 94.671 62.8002 94.0574C64.0085 93.4256 65.1689 93.1175 66.2813 93.1332C67.3755 93.1312 68.3243 93.5176 69.1276 94.2923C69.8396 94.9789 70.2491 95.7966 70.3561 96.7454C70.463 97.6941 70.3104 98.6745 69.8983 99.6865C69.4862 100.699 68.8311 101.67 67.9332 102.601L67.4921 102.017C69.0767 100.374 70.6286 99.4042 72.1479 99.1075C73.6849 98.7926 75.001 99.1633 76.0965 100.22C76.9546 101.047 77.4394 102.061 77.5509 103.261C77.6441 104.443 77.4068 105.694 76.8388 107.014C76.2884 108.315 75.4411 109.559 74.2967 110.746Z" fill="white"/>
<path d="M87.0742 92.9701L75.4429 76.7322L77.6389 75.1592L82.7788 82.3348L93.0164 75.0016L87.8765 67.8259L90.0725 66.2529L101.704 82.4909L99.5078 84.0639L94.3679 76.8882L84.1302 84.2215L89.2702 91.3971L87.0742 92.9701Z" fill="white"/>
<path d="M124.757 65.7419L122.814 61.7795L122.393 61.1807L119.143 54.554C118.395 53.0282 117.387 52.0677 116.119 51.6723C114.875 51.2657 113.41 51.4757 111.725 52.3022C110.563 52.8718 109.554 53.607 108.696 54.5079C107.839 55.4088 107.202 56.3568 106.786 57.3518L104.805 56.0775C105.336 54.8565 106.139 53.7283 107.213 52.693C108.276 51.6348 109.513 50.7595 110.925 50.0671C113.248 48.9279 115.32 48.6318 117.142 49.1789C118.976 49.6921 120.468 51.1214 121.619 53.467L127.08 64.6026L124.757 65.7419ZM118.658 68.945C117.315 69.6039 116.036 69.9628 114.822 70.0215C113.619 70.0463 112.566 69.8001 111.663 69.2827C110.748 68.7425 110.039 67.9601 109.537 66.9353C109.079 66.0017 108.882 65.053 108.946 64.0893C109.022 63.0917 109.449 62.1194 110.227 61.1725C111.018 60.1917 112.267 59.2825 113.975 58.4448L120.157 55.4125L121.045 57.2229L114.931 60.2217C113.2 61.0705 112.144 61.9699 111.762 62.9198C111.404 63.8586 111.448 64.7834 111.894 65.6943C112.397 66.719 113.198 67.3434 114.296 67.5673C115.395 67.7913 116.661 67.5514 118.096 66.8478C119.462 66.1777 120.484 65.2951 121.162 64.2C121.851 63.0709 122.133 61.8026 122.008 60.3951L123.375 61.8008C123.501 63.2083 123.167 64.5443 122.375 65.8087C121.605 67.0619 120.366 68.1073 118.658 68.945Z" fill="white"/>
<path d="M139.44 55.3253L134.142 36.0666L136.747 35.3502L139.088 43.8607L151.23 40.5208L148.889 32.0103L151.494 31.2939L156.791 50.5525L154.187 51.2689L151.846 42.7584L139.703 46.0984L142.044 54.6089L139.44 55.3253Z" fill="white"/>
<path d="M170.476 43.7356L168.783 23.8335L171.475 23.6046L172.223 32.3994L184.771 31.3322L184.023 22.5373L186.714 22.3084L188.407 42.2105L185.715 42.4394L184.967 33.6446L172.42 34.7118L173.168 43.5067L170.476 43.7356Z" fill="white"/>
<path d="M224.119 39.5877L226.576 19.7655L229.257 20.0977L226.8 39.92L224.119 39.5877ZM214.723 25.3886C217.212 25.7227 219.044 26.512 220.218 27.7566C221.393 29.0012 221.854 30.6429 221.601 32.6818C221.339 34.7961 220.433 36.3323 218.883 37.2903C217.333 38.2483 215.251 38.5525 212.636 38.2028L204.788 37.1917L207.245 17.3694L209.925 17.7017L209.069 24.6112L214.723 25.3886ZM212.7 36.1406C214.56 36.3966 216.002 36.2048 217.027 35.5651C218.08 34.9033 218.699 33.8299 218.883 32.3448C219.067 30.8597 218.735 29.7196 217.888 28.9246C217.044 28.1044 215.68 27.5647 213.795 27.3055L208.821 26.6123L207.726 35.4473L212.7 36.1406Z" fill="white"/>
<path d="M250.696 41.9697C248.708 41.3576 247.09 40.4081 245.841 39.1212C244.599 37.8099 243.778 36.2965 243.377 34.5808C242.984 32.8409 243.079 31.0256 243.661 29.1348C244.243 27.244 245.158 25.6946 246.406 24.4865C247.678 23.2858 249.144 22.4899 250.804 22.0986C252.495 21.6906 254.226 21.7591 255.995 22.304C257.789 22.8563 259.25 23.7573 260.378 25.007C261.537 26.2398 262.29 27.7188 262.634 29.4438C262.986 31.1445 262.867 32.9524 262.278 34.8674C262.24 34.9886 262.187 35.1182 262.118 35.2562C262.081 35.3774 262.04 35.5107 261.995 35.6561L245.378 30.5393L245.972 28.6122L261.207 33.3035L259.954 33.7536C260.379 32.3719 260.453 31.0545 260.175 29.8013C259.93 28.5313 259.391 27.4366 258.559 26.517C257.728 25.5975 256.645 24.9325 255.312 24.522C254.003 24.1189 252.734 24.0599 251.505 24.3449C250.276 24.63 249.203 25.2283 248.285 26.14C247.368 27.0517 246.692 28.2105 246.26 29.6165L246.136 30.0164C245.689 31.4709 245.608 32.8526 245.895 34.1618C246.214 35.4541 246.845 36.5909 247.791 37.5719C248.768 38.5362 249.995 39.2461 251.474 39.7014C252.638 40.0597 253.78 40.1858 254.901 40.0797C256.046 39.9811 257.112 39.6196 258.101 38.9951L259.04 41.1156C257.878 41.8724 256.573 42.3197 255.124 42.4574C253.699 42.6025 252.223 42.44 250.696 41.9697Z" fill="white"/>
<path d="M298.608 58.053C296.935 56.9971 295.663 55.6848 294.794 54.1163C293.959 52.5398 293.573 50.8712 293.634 49.1104C293.709 47.3282 294.275 45.6006 295.33 43.9276C296.4 42.2331 297.716 40.9793 299.279 40.1661C300.842 39.353 302.508 38.9946 304.276 39.0911C306.066 39.2012 307.798 39.7841 309.471 40.84C310.908 41.747 312.03 42.8448 312.836 44.1335C313.642 45.4222 314.026 46.834 313.987 48.369L311.551 48.4511C311.513 47.2276 311.194 46.1414 310.593 45.1924C309.993 44.2433 309.188 43.4507 308.18 42.8145C306.979 42.0564 305.72 41.6516 304.402 41.6001C303.099 41.5272 301.857 41.8081 300.676 42.4428C299.496 43.0775 298.486 44.0597 297.647 45.3896C296.808 46.7194 296.355 48.0537 296.29 49.3923C296.225 50.7309 296.5 51.9837 297.113 53.1505C297.74 54.2959 298.654 55.2476 299.855 56.0057C300.863 56.642 301.924 57.0271 303.04 57.161C304.155 57.2949 305.266 57.1264 306.373 56.6554L307.347 58.8899C305.992 59.5641 304.552 59.8253 303.029 59.6734C301.518 59.5001 300.045 58.9599 298.608 58.053Z" fill="white"/>
<path d="M317.014 66.0029L330.562 51.3261L332.547 53.1583L326.56 59.644L335.813 68.1858L341.8 61.7L343.785 63.5322L330.237 78.209L328.252 76.3768L334.239 69.8911L324.986 61.3493L318.999 67.8351L317.014 66.0029Z" fill="white"/>
<path d="M356.137 102.722L372.417 91.1501L373.982 93.3519L357.702 104.924L356.137 102.722ZM360.266 86.2039C361.7 88.2653 362.355 90.1494 362.23 91.8563C362.105 93.5632 361.205 95.0117 359.531 96.202C357.794 97.4363 356.049 97.8052 354.296 97.3088C352.543 96.8123 350.913 95.4817 349.405 93.317L344.852 86.8448L361.132 75.2729L362.697 77.4747L357.022 81.5083L360.266 86.2039ZM350.97 91.9717C352.036 93.5162 353.152 94.4505 354.315 94.7746C355.515 95.1047 356.724 94.8362 357.944 93.9692C359.164 93.1023 359.781 92.0879 359.795 90.9263C359.83 89.7499 359.307 88.3791 358.226 86.8139L355.378 82.6765L348.122 87.8343L350.97 91.9717Z" fill="white"/>
</svg>
