<svg width="65" height="65" viewBox="0 0 65 65" fill="none" xmlns="http://www.w3.org/2000/svg">
<path d="M1.79868 1.79867C-0.599556 4.19689 -0.599556 8.08519 1.79868 10.4834L23.8153 32.5L1.79867 54.5166C-0.599558 56.9148 -0.599559 60.8031 1.79867 63.2013C4.1969 65.5996 8.08521 65.5996 10.4834 63.2013L32.5 41.1847L54.5166 63.2012C56.9148 65.5995 60.8031 65.5995 63.2013 63.2012C65.5996 60.803 65.5996 56.9147 63.2013 54.5165L41.1848 32.5L63.2013 10.4835C65.5996 8.08528 65.5996 4.19699 63.2013 1.79876C60.8031 -0.599466 56.9148 -0.599467 54.5166 1.79876L32.5 23.8152L10.4834 1.79867C8.0852 -0.59956 4.19691 -0.59956 1.79868 1.79867Z" fill="#232323"/>
</svg>
