<svg width="935" height="668" viewBox="0 0 935 668" fill="none" xmlns="http://www.w3.org/2000/svg">
<path d="M807.136 338.128C676.639 226.613 667.017 43.3146 698.575 23.0385C698.575 23.0385 725.512 -16.7051 791.122 8.20847C856.733 33.122 934.213 184.295 934.995 337.663C935.782 491.702 832.983 624.569 791.059 654.344C749.134 684.12 701.799 654.669 701.799 654.669C662.708 639.16 685.167 457.425 807.136 338.128Z" fill="#7DA6FF"/>
<path d="M807.136 338.128C676.639 226.613 667.017 43.3146 698.575 23.0385C698.575 23.0385 725.512 -16.7051 791.122 8.20847C856.733 33.122 934.213 184.295 934.995 337.663C935.782 491.702 832.983 624.569 791.059 654.344C749.134 684.12 701.799 654.669 701.799 654.669C662.708 639.16 685.167 457.425 807.136 338.128Z" fill="#7DA6FF"/>
<path d="M127.864 338.465C258.361 226.95 267.983 43.652 236.425 23.3759C236.425 23.3759 209.488 -16.3677 143.878 8.54587C78.2673 33.4594 0.787169 184.633 0.00448348 338C-0.781634 492.04 102.017 624.906 143.941 654.682C185.866 684.457 233.201 655.006 233.201 655.006C272.292 639.498 249.833 457.762 127.864 338.465Z" fill="#7DA6FF"/>
<path d="M127.864 338.465C258.361 226.95 267.983 43.652 236.425 23.3759C236.425 23.3759 209.488 -16.3677 143.878 8.54587C78.2673 33.4594 0.787169 184.633 0.00448348 338C-0.781634 492.04 102.017 624.906 143.941 654.682C185.866 684.457 233.201 655.006 233.201 655.006C272.292 639.498 249.833 457.762 127.864 338.465Z" fill="#7DA6FF"/>
<path d="M585.068 71.9366C622.791 83.1385 658.217 99.2926 689.436 120.466C689.97 120.824 690.503 121.182 691.053 121.551C708.704 133.411 725.052 146.827 737.225 162.991C737.453 163.291 737.681 163.591 737.916 163.901C741.452 168.575 744.552 173.382 747.404 178.38C747.578 178.684 747.753 178.988 747.933 179.301C761.06 202.243 762.692 228.3 753.19 252.465C750.279 259.514 746.783 266.555 741.819 272.754C741.132 273.641 740.446 274.529 739.761 275.417C739.01 276.382 738.259 277.348 737.508 278.313C737.145 278.779 736.783 279.246 736.409 279.726C719.734 301.077 699.259 317.429 669.663 324.584C668.853 324.787 668.044 324.99 667.234 325.193C661.485 326.606 655.7 327.654 649.797 328.475C649.328 328.542 648.859 328.609 648.376 328.679C631.824 330.995 614.667 330.464 598.331 327.285C597.933 327.211 597.535 327.137 597.125 327.061C592.055 326.041 587.183 324.467 582.3 322.947C581.822 322.798 581.344 322.649 580.851 322.496C573.081 320.062 565.646 317.387 558.509 313.797C558.028 313.556 557.547 313.315 557.052 313.067C527.731 298.158 501.74 275.823 483.803 251.191C483.432 250.683 483.061 250.174 482.679 249.65C476.778 241.177 471.474 231.795 468.381 222.293C468.042 221.267 467.673 220.251 467.298 219.235C464.771 212.248 462.906 204.979 462.111 197.692C454.945 202.978 451.387 214.084 450.727 221.83C450.146 234.118 456.938 246.682 465.182 256.532C465.449 256.853 465.717 257.175 465.993 257.505C471.374 263.869 477.557 269.582 483.83 275.315C485.356 276.718 486.854 278.141 488.346 279.57C497.127 287.969 506.485 295.925 515.93 303.784C523.972 310.483 531.739 317.404 539.497 324.337C540.717 325.426 541.94 326.513 543.163 327.599C548.248 332.135 553.124 336.815 557.94 341.555C558.941 342.539 559.947 343.519 560.954 344.497C564.287 347.753 567.412 351.102 570.429 354.572C572.224 356.634 574.063 358.654 575.958 360.65C582.79 367.853 588.886 375.474 594.442 383.423C594.8 383.93 595.159 384.438 595.528 384.961C599.664 390.865 603.588 396.867 607.246 402.994C607.904 404.091 608.572 405.184 609.252 406.271C611.941 410.587 614.367 415.002 616.777 419.433C616.951 419.751 617.125 420.07 617.304 420.398C619.122 423.73 620.883 427.064 622.383 430.511C623.079 432.101 623.857 433.659 624.627 435.224C626.31 438.695 627.803 442.202 629.174 445.77C629.327 446.164 629.48 446.558 629.638 446.965C631.643 452.147 633.5 457.328 635.014 462.63C635.709 465.045 636.52 467.392 637.433 469.754C649.439 501.425 646.997 538.302 634.515 569.574C634.311 570.101 634.106 570.627 633.895 571.17C624.771 593.347 607.829 614.143 582.512 624.744C565.507 631.539 549.39 633.608 530.682 632.782C527.137 632.628 523.595 632.519 520.046 632.458C499.885 632.096 480.402 629.635 460.945 625.137C460.523 625.04 460.1 624.942 459.666 624.842C450.234 622.647 441.068 619.921 431.914 617.017C430.624 616.608 429.332 616.201 428.04 615.795C415.096 611.719 402.32 607.45 389.94 602.254C388.652 601.714 387.361 601.18 386.07 600.646C347.722 584.75 311.456 565.385 277.755 543.22C277.243 542.884 277.243 542.884 276.722 542.541C268.726 537.274 260.984 531.784 253.382 526.115C250.486 523.955 247.556 521.829 244.616 519.712C232.242 510.795 219.903 501.821 209.014 491.574C207.841 490.478 206.65 489.396 205.46 488.313C192.166 476.152 180.802 462.967 171.403 448.436C171.085 447.944 170.766 447.453 170.438 446.946C166.479 440.696 162.983 434.302 160.513 427.514C160.389 427.181 160.265 426.849 160.138 426.506C153.452 408.42 153.103 388.982 163.295 371.715C172.171 357.376 186.217 346.796 202.515 338.662C202.876 338.481 203.236 338.301 203.608 338.114C212.354 333.764 221.515 329.96 231.225 327.441C231.597 327.342 231.969 327.242 232.353 327.139C267.249 317.845 304.125 319.592 339.21 326.95C339.623 327.037 340.035 327.123 340.46 327.212C350.558 329.347 360.409 332.059 370.165 335.115C370.639 335.264 371.112 335.412 371.6 335.564C415.105 349.218 458.181 369.442 484.516 402.757C485.157 403.564 485.157 403.564 485.811 404.387C494.79 415.936 501.893 428.422 506.945 441.563C507.164 442.133 507.164 442.133 507.388 442.714C507.519 443.056 507.65 443.398 507.784 443.75C508.166 444.727 508.166 444.727 508.847 445.928C515.733 431.277 516.016 419.761 509.155 405.135C508.969 404.73 508.782 404.324 508.589 403.907C503.239 393.225 493.564 384.112 484.469 375.66C484.131 375.345 483.792 375.03 483.444 374.705C463.46 356.301 437.113 342.064 410.325 331.815C409.948 331.667 409.57 331.52 409.181 331.367C403.572 329.179 397.807 327.313 392.024 325.48C391.242 325.232 390.461 324.983 389.68 324.731C376.382 320.463 362.613 317.157 348.902 313.981C348.467 313.88 348.032 313.78 347.585 313.676C346.701 313.471 345.818 313.267 344.935 313.062C344.495 312.96 344.055 312.858 343.601 312.753C342.939 312.6 342.939 312.6 342.264 312.444C327.539 309.03 312.948 305.465 298.625 300.978C298.027 300.792 297.429 300.607 296.813 300.416C286.496 297.194 276.384 293.29 267.327 287.959C266.841 287.675 266.355 287.39 265.855 287.097C251.56 278.485 241.416 267.294 233.661 254.114C232.859 252.768 232.018 251.458 231.138 250.149C218.099 229.812 216.307 204.507 223.928 182.539C234.16 154.206 258.846 132.551 285.566 114.461C286.055 114.128 286.544 113.795 287.047 113.452C300.278 104.464 314.388 96.3771 329.146 89.2936C329.489 89.1272 329.832 88.9607 330.186 88.7892C339.367 84.3404 348.807 80.4139 358.4 76.6495C358.773 76.5029 359.145 76.3563 359.529 76.2053C363.838 74.5119 368.159 72.9144 372.62 71.5278C373.411 71.2706 374.201 71.0126 374.991 70.7536C381.514 68.6466 388.119 66.8458 394.814 65.1774C395.333 65.0481 395.852 64.9188 396.386 64.7856C409.146 61.6316 421.992 59.4075 435.098 57.5677C435.571 57.501 436.044 57.4344 436.531 57.3657C457.71 54.4516 484.621 52.2755 505.542 57.0354C509.095 57.8047 512.717 58.0569 516.356 58.3954C539.741 60.7099 562.854 65.3848 585.068 71.9366Z" fill="#7DA6FF"/>
</svg>
