<svg width="130" height="130" viewBox="0 0 130 130" fill="none" xmlns="http://www.w3.org/2000/svg">
<path fill-rule="evenodd" clip-rule="evenodd" d="M65 0C29.1015 0 0 29.1015 0 65C0 100.899 29.1015 130 65 130C100.899 130 130 100.899 130 65C130 29.1015 100.899 0 65 0ZM95.1359 36.4332C96.5859 35.902 98.0653 37.1447 97.7924 38.6647L88.1707 92.2408C87.9195 93.6398 86.33 94.3375 85.1301 93.5756L60.7301 78.0819L50.1078 88.0246C48.8301 89.2206 46.7411 88.3146 46.7411 86.5645V77.1543C46.7411 76.5421 47.0215 75.9637 47.502 75.5844L51.6459 72.3135L92.0348 40.4353L46.1492 68.6675C45.7573 68.9086 45.2943 69.0072 44.8382 68.9468L24.6517 66.2705C22.5803 65.9959 22.2645 63.1287 24.2266 62.4099L95.1359 36.4332Z" fill="#F2F1F1"/>
</svg>
