<svg width="54" height="46" viewBox="0 0 54 46" fill="none" xmlns="http://www.w3.org/2000/svg">
<path d="M26.7458 41.5813L6.48005 21.3781C6.47839 21.3765 6.47674 21.3748 6.47509 21.3731C4.50352 19.387 3.40037 16.7102 3.40037 13.9239C3.40037 11.1389 4.50243 8.46336 6.47216 6.47756C8.45964 4.50854 11.1526 3.40037 13.963 3.40037C16.7763 3.40037 19.472 4.51084 21.46 6.48368C21.4607 6.48429 21.4613 6.4849 21.4619 6.48551L24.3466 9.35768L26.7458 11.7464L29.145 9.35768L32.0297 6.48551C32.03 6.4852 32.0303 6.48489 32.0307 6.48457C34.0188 4.51118 36.7148 3.40037 39.5286 3.40037C42.3391 3.40037 45.0321 4.50861 47.0196 6.47773C48.9892 8.46351 50.0912 11.139 50.0912 13.9239C50.0912 16.7101 48.9882 19.3868 47.0167 21.3729C47.015 21.3746 47.0133 21.3764 47.0115 21.3781L26.7458 41.5813Z" fill="#F2F1F1" stroke="#F2F1F1" stroke-width="6.80075"/>
</svg>
