<svg width="35" height="35" viewBox="0 0 35 35" fill="none" xmlns="http://www.w3.org/2000/svg">
<path fill-rule="evenodd" clip-rule="evenodd" d="M29.1648 11.6674C32.3861 11.6674 34.9975 9.05555 34.9975 5.83369C34.9975 2.61183 32.3861 0 29.1648 0C25.9434 0 23.332 2.61183 23.332 5.83369C23.332 5.86151 23.3322 5.88928 23.3326 5.917C23.3387 6.35461 23.1192 6.77744 22.7234 6.96436L10.2824 12.8409C9.92144 13.0114 9.49794 12.9442 9.17074 12.7154C8.22503 12.0542 7.07418 11.6663 5.83275 11.6663C2.61141 11.6663 0 14.2781 0 17.5C0 20.7219 2.61141 23.3337 5.83275 23.3337C7.1336 23.3337 8.33499 22.9078 9.30511 22.1878C9.63512 21.9428 10.0716 21.8664 10.4432 22.0419L22.7295 27.8453C23.1357 28.0372 23.3552 28.4765 23.3369 28.9253C23.3337 29.0053 23.332 29.0856 23.332 29.1663C23.332 32.3882 25.9434 35 29.1648 35C32.3861 35 34.9975 32.3882 34.9975 29.1663C34.9975 25.9444 32.3861 23.3326 29.1648 23.3326C27.6366 23.3326 26.2457 23.9204 25.2058 24.8822C24.8705 25.1923 24.3837 25.3088 23.9708 25.1138L12.1973 19.5526C11.7497 19.3412 11.5338 18.8346 11.6048 18.3447C11.6448 18.0689 11.6655 17.7869 11.6655 17.5C11.6655 17.1618 11.6367 16.8302 11.5815 16.5078C11.4959 16.0084 11.7102 15.4843 12.1682 15.268L23.8358 9.75678C24.2591 9.55685 24.7584 9.68439 25.0935 10.0112C26.1446 11.036 27.581 11.6674 29.1648 11.6674Z" fill="#F2F1F1"/>
</svg>
