<svg width="1559" height="1756" viewBox="0 0 1559 1756" fill="none" xmlns="http://www.w3.org/2000/svg">
<g opacity="0.39">
<mask id="path-1-outside-1_2005_125" maskUnits="userSpaceOnUse" x="0.628906" y="0.292969" width="1558" height="1756" fill="black">
<rect fill="white" x="0.628906" y="0.292969" width="1558" height="1756"/>
<path d="M1090.59 95.2628C1182.41 127.543 1268.64 174.094 1344.63 235.109C1345.93 236.141 1347.23 237.173 1348.56 238.236C1391.53 272.414 1431.32 311.074 1460.95 357.653C1461.5 358.518 1462.06 359.384 1462.63 360.275C1471.24 373.746 1478.78 387.599 1485.72 402.002C1486.15 402.877 1486.57 403.752 1487.01 404.654C1518.96 470.766 1522.93 545.854 1499.81 615.49C1492.72 635.803 1484.21 656.095 1472.13 673.958C1470.46 676.514 1468.79 679.071 1467.12 681.63C1465.29 684.413 1463.47 687.195 1461.64 689.976C1460.75 691.32 1459.87 692.665 1458.96 694.05C1418.37 755.576 1368.54 802.698 1296.5 823.316C1294.53 823.901 1292.56 824.486 1290.59 825.071C1276.6 829.143 1262.51 832.163 1248.15 834.528C1247 834.722 1245.86 834.916 1244.69 835.115C1204.4 841.791 1162.64 840.261 1122.88 831.099C1121.91 830.886 1120.94 830.672 1119.94 830.453C1107.6 827.514 1095.74 822.979 1083.86 818.598C1082.69 818.169 1081.53 817.74 1080.33 817.298C1061.42 810.284 1043.32 802.577 1025.95 792.232C1024.78 791.537 1023.61 790.842 1022.4 790.126C951.032 747.164 887.771 682.801 844.111 611.82C843.209 610.354 842.306 608.888 841.376 607.378C827.011 582.962 814.101 555.926 806.574 528.543C805.747 525.588 804.849 522.661 803.938 519.731C797.788 499.598 793.247 478.65 791.312 457.652C773.869 472.883 765.208 504.889 763.602 527.21C762.188 562.62 778.72 598.825 798.786 627.212C799.438 628.137 800.089 629.062 800.761 630.015C813.859 648.354 828.907 664.815 844.178 681.336C847.892 685.381 851.538 689.48 855.169 693.599C876.542 717.802 899.32 740.729 922.31 763.376C941.883 782.681 960.788 802.625 979.672 822.605C982.641 825.743 985.619 828.874 988.596 832.005C1000.97 845.074 1012.84 858.562 1024.56 872.221C1027 875.056 1029.45 877.879 1031.9 880.7C1040.01 890.082 1047.62 899.734 1054.96 909.733C1059.33 915.673 1063.81 921.495 1068.42 927.247C1085.05 948.004 1099.89 969.964 1113.41 992.871C1114.28 994.333 1115.15 995.796 1116.05 997.303C1126.12 1014.32 1135.67 1031.61 1144.58 1049.27C1146.18 1052.43 1147.8 1055.58 1149.46 1058.71C1156 1071.15 1161.91 1083.87 1167.78 1096.64C1168.2 1097.56 1168.62 1098.48 1169.06 1099.42C1173.48 1109.03 1177.77 1118.63 1181.42 1128.56C1183.11 1133.15 1185.01 1137.64 1186.88 1142.15C1190.98 1152.15 1194.61 1162.25 1197.95 1172.54C1198.32 1173.67 1198.69 1174.81 1199.08 1175.98C1203.96 1190.91 1208.48 1205.84 1212.16 1221.12C1213.85 1228.08 1215.83 1234.84 1218.05 1241.65C1247.28 1332.92 1241.33 1439.19 1210.95 1529.3C1210.45 1530.82 1209.95 1532.34 1209.44 1533.9C1187.23 1597.81 1146 1657.74 1084.37 1688.29C1042.98 1707.87 1003.75 1713.83 958.216 1711.45C949.587 1711 940.967 1710.69 932.328 1710.51C883.256 1709.47 835.833 1702.38 788.473 1689.42C787.446 1689.14 786.418 1688.86 785.36 1688.57C762.402 1682.24 740.092 1674.39 717.812 1666.02C714.671 1664.84 711.527 1663.67 708.383 1662.5C676.877 1650.75 645.78 1638.45 615.645 1623.47C612.51 1621.92 609.368 1620.38 606.225 1618.84C512.886 1573.03 424.613 1517.23 342.582 1453.36C341.338 1452.39 341.338 1452.39 340.069 1451.4C320.606 1436.22 301.761 1420.4 283.259 1404.07C276.209 1397.84 269.078 1391.72 261.921 1385.61C231.804 1359.92 201.769 1334.06 175.266 1304.53C172.41 1301.37 169.512 1298.25 166.615 1295.13C134.256 1260.09 106.596 1222.09 83.7197 1180.22C82.9442 1178.8 82.1686 1177.39 81.3697 1175.93C71.7335 1157.92 63.2238 1139.49 57.2127 1119.93C56.9112 1118.97 56.6096 1118.01 56.2989 1117.02C40.0257 1064.91 39.1767 1008.89 63.9846 959.134C85.5885 917.812 119.776 887.324 159.448 863.884C160.325 863.363 161.203 862.842 162.107 862.306C183.396 849.77 205.693 838.809 229.329 831.549C230.234 831.262 231.14 830.975 232.072 830.68C317.01 803.895 406.769 808.931 492.168 830.134C493.172 830.383 494.175 830.632 495.209 830.888C519.789 837.042 543.767 844.856 567.513 853.664C568.666 854.091 569.818 854.517 571.006 854.957C676.897 894.303 781.746 952.582 845.845 1048.59C847.406 1050.91 847.406 1050.91 848.999 1053.28C870.854 1086.56 888.143 1122.54 900.438 1160.41C900.973 1162.06 900.972 1162.06 901.518 1163.73C901.836 1164.72 902.154 1165.7 902.482 1166.72C903.412 1169.53 903.412 1169.53 905.069 1172.99C921.829 1130.77 922.519 1097.59 905.819 1055.44C905.365 1054.27 904.91 1053.1 904.441 1051.9C891.418 1021.12 867.869 994.858 845.733 970.501C844.909 969.593 844.085 968.685 843.237 967.749C794.595 914.716 730.466 873.688 665.264 844.153C664.345 843.728 663.426 843.302 662.48 842.863C648.826 836.556 634.793 831.181 620.718 825.899C618.814 825.184 616.912 824.465 615.012 823.74C582.645 811.441 549.129 801.913 515.756 792.761C514.699 792.471 513.641 792.181 512.551 791.882C510.401 791.292 508.251 790.703 506.101 790.113C505.03 789.82 503.959 789.526 502.855 789.224C501.244 788.782 501.244 788.782 499.6 788.332C463.76 778.494 428.245 768.221 393.383 755.289C391.927 754.755 390.472 754.221 388.972 753.671C363.86 744.387 339.247 733.137 317.202 717.774C316.019 716.954 314.836 716.134 313.617 715.289C278.825 690.474 254.133 658.225 235.256 620.243C233.305 616.363 231.258 612.59 229.116 608.817C197.379 550.212 193.016 477.29 211.567 413.984C236.471 332.337 296.558 269.935 361.595 217.805C362.785 216.845 363.975 215.886 365.201 214.898C397.406 188.997 431.75 165.693 467.67 145.281C468.506 144.801 469.341 144.321 470.202 143.827C492.549 131.007 515.526 119.692 538.876 108.844C539.783 108.422 540.689 107.999 541.623 107.564C552.112 102.684 562.63 98.0806 573.487 94.0848C575.412 93.3437 577.337 92.6001 579.26 91.8538C595.137 85.7822 611.214 80.5929 627.51 75.7849C628.772 75.4123 630.035 75.0396 631.336 74.6557C662.392 65.5669 693.66 59.1579 725.561 53.856C726.712 53.6639 727.863 53.4718 729.05 53.2739C780.599 44.8764 846.101 38.6056 897.025 52.3222C905.671 54.539 914.49 55.2657 923.346 56.2413C980.266 62.911 1036.52 76.3824 1090.59 95.2628Z"/>
</mask>
<path d="M1090.59 95.2628C1182.41 127.543 1268.64 174.094 1344.63 235.109C1345.93 236.141 1347.23 237.173 1348.56 238.236C1391.53 272.414 1431.32 311.074 1460.95 357.653C1461.5 358.518 1462.06 359.384 1462.63 360.275C1471.24 373.746 1478.78 387.599 1485.72 402.002C1486.15 402.877 1486.57 403.752 1487.01 404.654C1518.96 470.766 1522.93 545.854 1499.81 615.49C1492.72 635.803 1484.21 656.095 1472.13 673.958C1470.46 676.514 1468.79 679.071 1467.12 681.63C1465.29 684.413 1463.47 687.195 1461.64 689.976C1460.75 691.32 1459.87 692.665 1458.96 694.05C1418.37 755.576 1368.54 802.698 1296.5 823.316C1294.53 823.901 1292.56 824.486 1290.59 825.071C1276.6 829.143 1262.51 832.163 1248.15 834.528C1247 834.722 1245.86 834.916 1244.69 835.115C1204.4 841.791 1162.64 840.261 1122.88 831.099C1121.91 830.886 1120.94 830.672 1119.94 830.453C1107.6 827.514 1095.74 822.979 1083.86 818.598C1082.69 818.169 1081.53 817.74 1080.33 817.298C1061.42 810.284 1043.32 802.577 1025.95 792.232C1024.78 791.537 1023.61 790.842 1022.4 790.126C951.032 747.164 887.771 682.801 844.111 611.82C843.209 610.354 842.306 608.888 841.376 607.378C827.011 582.962 814.101 555.926 806.574 528.543C805.747 525.588 804.849 522.661 803.938 519.731C797.788 499.598 793.247 478.65 791.312 457.652C773.869 472.883 765.208 504.889 763.602 527.21C762.188 562.62 778.72 598.825 798.786 627.212C799.438 628.137 800.089 629.062 800.761 630.015C813.859 648.354 828.907 664.815 844.178 681.336C847.892 685.381 851.538 689.48 855.169 693.599C876.542 717.802 899.32 740.729 922.31 763.376C941.883 782.681 960.788 802.625 979.672 822.605C982.641 825.743 985.619 828.874 988.596 832.005C1000.97 845.074 1012.84 858.562 1024.56 872.221C1027 875.056 1029.45 877.879 1031.9 880.7C1040.01 890.082 1047.62 899.734 1054.96 909.733C1059.33 915.673 1063.81 921.495 1068.42 927.247C1085.05 948.004 1099.89 969.964 1113.41 992.871C1114.28 994.333 1115.15 995.796 1116.05 997.303C1126.12 1014.32 1135.67 1031.61 1144.58 1049.27C1146.18 1052.43 1147.8 1055.58 1149.46 1058.71C1156 1071.15 1161.91 1083.87 1167.78 1096.64C1168.2 1097.56 1168.62 1098.48 1169.06 1099.42C1173.48 1109.03 1177.77 1118.63 1181.42 1128.56C1183.11 1133.15 1185.01 1137.64 1186.88 1142.15C1190.98 1152.15 1194.61 1162.25 1197.95 1172.54C1198.32 1173.67 1198.69 1174.81 1199.08 1175.98C1203.96 1190.91 1208.48 1205.84 1212.16 1221.12C1213.85 1228.08 1215.83 1234.84 1218.05 1241.65C1247.28 1332.92 1241.33 1439.19 1210.95 1529.3C1210.45 1530.82 1209.95 1532.34 1209.44 1533.9C1187.23 1597.81 1146 1657.74 1084.37 1688.29C1042.98 1707.87 1003.75 1713.83 958.216 1711.45C949.587 1711 940.967 1710.69 932.328 1710.51C883.256 1709.47 835.833 1702.38 788.473 1689.42C787.446 1689.14 786.418 1688.86 785.36 1688.57C762.402 1682.24 740.092 1674.39 717.812 1666.02C714.671 1664.84 711.527 1663.67 708.383 1662.5C676.877 1650.75 645.78 1638.45 615.645 1623.47C612.51 1621.92 609.368 1620.38 606.225 1618.84C512.886 1573.03 424.613 1517.23 342.582 1453.36C341.338 1452.39 341.338 1452.39 340.069 1451.4C320.606 1436.22 301.761 1420.4 283.259 1404.07C276.209 1397.84 269.078 1391.72 261.921 1385.61C231.804 1359.92 201.769 1334.06 175.266 1304.53C172.41 1301.37 169.512 1298.25 166.615 1295.13C134.256 1260.09 106.596 1222.09 83.7197 1180.22C82.9442 1178.8 82.1686 1177.39 81.3697 1175.93C71.7335 1157.92 63.2238 1139.49 57.2127 1119.93C56.9112 1118.97 56.6096 1118.01 56.2989 1117.02C40.0257 1064.91 39.1767 1008.89 63.9846 959.134C85.5885 917.812 119.776 887.324 159.448 863.884C160.325 863.363 161.203 862.842 162.107 862.306C183.396 849.77 205.693 838.809 229.329 831.549C230.234 831.262 231.14 830.975 232.072 830.68C317.01 803.895 406.769 808.931 492.168 830.134C493.172 830.383 494.175 830.632 495.209 830.888C519.789 837.042 543.767 844.856 567.513 853.664C568.666 854.091 569.818 854.517 571.006 854.957C676.897 894.303 781.746 952.582 845.845 1048.59C847.406 1050.91 847.406 1050.91 848.999 1053.28C870.854 1086.56 888.143 1122.54 900.438 1160.41C900.973 1162.06 900.972 1162.06 901.518 1163.73C901.836 1164.72 902.154 1165.7 902.482 1166.72C903.412 1169.53 903.412 1169.53 905.069 1172.99C921.829 1130.77 922.519 1097.59 905.819 1055.44C905.365 1054.27 904.91 1053.1 904.441 1051.9C891.418 1021.12 867.869 994.858 845.733 970.501C844.909 969.593 844.085 968.685 843.237 967.749C794.595 914.716 730.466 873.688 665.264 844.153C664.345 843.728 663.426 843.302 662.48 842.863C648.826 836.556 634.793 831.181 620.718 825.899C618.814 825.184 616.912 824.465 615.012 823.74C582.645 811.441 549.129 801.913 515.756 792.761C514.699 792.471 513.641 792.181 512.551 791.882C510.401 791.292 508.251 790.703 506.101 790.113C505.03 789.82 503.959 789.526 502.855 789.224C501.244 788.782 501.244 788.782 499.6 788.332C463.76 778.494 428.245 768.221 393.383 755.289C391.927 754.755 390.472 754.221 388.972 753.671C363.86 744.387 339.247 733.137 317.202 717.774C316.019 716.954 314.836 716.134 313.617 715.289C278.825 690.474 254.133 658.225 235.256 620.243C233.305 616.363 231.258 612.59 229.116 608.817C197.379 550.212 193.016 477.29 211.567 413.984C236.471 332.337 296.558 269.935 361.595 217.805C362.785 216.845 363.975 215.886 365.201 214.898C397.406 188.997 431.75 165.693 467.67 145.281C468.506 144.801 469.341 144.321 470.202 143.827C492.549 131.007 515.526 119.692 538.876 108.844C539.783 108.422 540.689 107.999 541.623 107.564C552.112 102.684 562.63 98.0806 573.487 94.0848C575.412 93.3437 577.337 92.6001 579.26 91.8538C595.137 85.7822 611.214 80.5929 627.51 75.7849C628.772 75.4123 630.035 75.0396 631.336 74.6557C662.392 65.5669 693.66 59.1579 725.561 53.856C726.712 53.6639 727.863 53.4718 729.05 53.2739C780.599 44.8764 846.101 38.6056 897.025 52.3222C905.671 54.539 914.49 55.2657 923.346 56.2413C980.266 62.911 1036.52 76.3824 1090.59 95.2628Z" stroke="#C8D4FF" stroke-width="88" mask="url(#path-1-outside-1_2005_125)"/>
</g>
</svg>
