<svg width="673" height="679" viewBox="0 0 673 679" fill="none" xmlns="http://www.w3.org/2000/svg">
<path d="M593.82 317.059L628.88 317.359L628.747 332.852C628.713 336.814 627.929 339.924 626.396 342.182C624.863 344.484 622.627 345.623 619.689 345.597C616.839 345.573 614.645 344.463 613.105 342.268C611.61 340.074 610.878 337.196 610.909 333.634L612.303 334.581C612.267 338.766 611.462 341.831 609.887 343.777C608.312 345.722 606.055 346.683 603.117 346.657C600.089 346.632 597.739 345.498 596.067 343.258C594.438 341.062 593.644 337.649 593.683 333.019L593.82 317.059ZM597.52 321.699L597.425 332.851C597.399 335.834 597.847 338.086 598.769 339.608C599.735 341.174 601.287 341.967 603.424 341.985C605.561 342.003 607.125 341.327 608.116 339.955C609.107 338.583 609.616 336.406 609.641 333.423L609.741 321.803L597.52 321.699ZM613.28 321.834L613.19 332.385C613.167 335.101 613.661 337.175 614.673 338.609C615.684 340.087 617.169 340.834 619.128 340.851C621.087 340.868 622.562 340.146 623.555 338.685C624.546 337.269 625.054 335.203 625.077 332.487L625.167 321.935L613.28 321.834Z" fill="white"/>
<path d="M587.414 402.039C588.266 399.134 589.699 396.701 591.713 394.74C593.769 392.791 596.265 391.482 599.199 390.812C602.163 390.197 605.483 390.428 609.157 391.506C612.831 392.584 615.727 394.176 617.847 396.283C620.009 398.402 621.407 400.831 622.042 403.569C622.677 406.307 622.562 409.15 621.697 412.098C620.757 415.302 619.191 417.951 616.999 420.046C614.837 422.195 612.24 423.614 609.208 424.302C606.219 425.002 603.036 424.858 599.661 423.867C596.244 422.865 593.466 421.261 591.329 419.056C589.192 416.852 587.773 414.255 587.073 411.265C586.36 408.318 586.474 405.243 587.414 402.039ZM580.398 381.119L626.472 394.638L625.194 398.996L615.069 396.025L608.472 393.602L601.491 392.25L579.063 385.669L580.398 381.119ZM591.545 402.903C590.843 405.295 590.75 407.588 591.267 409.781C591.826 411.987 592.925 413.933 594.564 415.621C596.246 417.321 598.39 418.553 600.996 419.318C603.602 420.082 606.051 420.197 608.342 419.663C610.633 419.129 612.61 418.085 614.272 416.531C615.934 414.977 617.116 413.004 617.818 410.612C618.52 408.22 618.598 405.899 618.051 403.651C617.492 401.445 616.393 399.499 614.754 397.811C613.102 396.167 610.973 394.962 608.367 394.198C605.761 393.433 603.297 393.29 600.976 393.769C598.685 394.303 596.708 395.347 595.046 396.901C593.414 398.51 592.247 400.511 591.545 402.903Z" fill="white"/>
<path d="M561.137 471.123C563.07 468.026 565.409 465.707 568.155 464.167C570.938 462.65 573.875 461.938 576.967 462.03C580.096 462.146 583.133 463.123 586.079 464.961C589.025 466.8 591.243 469.05 592.731 471.71C594.196 474.409 594.887 477.254 594.804 480.246C594.735 483.3 593.84 486.205 592.12 488.962C590.376 491.757 588.19 493.83 585.562 495.182C582.948 496.595 580.101 497.206 577.019 497.014C573.975 496.846 570.961 495.831 567.977 493.969C567.788 493.851 567.592 493.703 567.389 493.524C567.2 493.406 566.992 493.276 566.766 493.135L582.924 467.243L585.926 469.117L571.112 492.856L570.912 490.527C573.065 491.87 575.267 492.589 577.518 492.682C579.784 492.836 581.884 492.414 583.818 491.417C585.752 490.42 587.367 488.883 588.664 486.805C589.937 484.766 590.608 482.639 590.677 480.426C590.746 478.213 590.214 476.122 589.08 474.155C587.946 472.188 586.284 470.521 584.093 469.154L583.47 468.765C581.203 467.35 578.895 466.592 576.545 466.49C574.209 466.449 571.996 467.01 569.906 468.172C567.83 469.396 566.074 471.16 564.636 473.464C563.504 475.277 562.776 477.158 562.452 479.107C562.104 481.094 562.238 483.067 562.853 485.025L558.832 485.665C558.071 483.353 557.899 480.937 558.318 478.416C558.712 475.934 559.652 473.503 561.137 471.123Z" fill="white"/>
<path d="M534.253 515.524L557.512 541.759L553.915 544.949L524.167 535.355L525.666 534.026L531.428 564.886L528.13 567.81L504.87 541.575L508.118 538.695L527.789 560.883L526.874 561.159L521.597 532.457L523.196 531.039L551.337 539.827L550.72 540.641L531.004 518.404L534.253 515.524Z" fill="white"/>
<path d="M446.486 581.041L451.774 592.502L450.566 591.956L461.36 586.975C465.443 585.091 469.047 584.507 472.172 585.222C475.297 585.937 477.643 587.993 479.21 591.389C480.889 595.027 480.905 598.305 479.26 601.221C477.634 604.178 474.759 606.608 470.635 608.511L457.234 614.695L442.544 582.86L446.486 581.041ZM469.771 570.296L466.691 586.574L462.204 588.645L465.101 572.451L469.771 570.296ZM452.362 593.775L460.029 610.39L458.653 609.48L468.779 604.807C471.73 603.446 473.773 601.816 474.909 599.92C476.003 598.041 475.963 595.829 474.788 593.282C472.605 588.552 468.502 587.577 462.479 590.357L452.049 595.17L452.362 593.775Z" fill="white"/>
<path d="M357.482 597.15L354.51 632.084L339.072 630.771C335.124 630.436 332.083 629.417 329.949 627.717C327.77 626.012 326.806 623.696 327.055 620.768C327.296 617.929 328.57 615.825 330.876 614.458C333.178 613.134 336.103 612.623 339.652 612.925L338.602 614.243C334.432 613.889 331.437 612.852 329.617 611.133C327.797 609.415 327.011 607.091 327.261 604.164C327.517 601.147 328.826 598.89 331.188 597.393C333.501 595.937 336.964 595.404 341.578 595.797L357.482 597.15ZM352.573 600.485L341.461 599.54C338.488 599.287 336.209 599.563 334.621 600.366C332.985 601.21 332.077 602.697 331.896 604.826C331.715 606.955 332.27 608.566 333.563 609.659C334.855 610.752 336.987 611.425 339.959 611.678L351.538 612.663L352.573 600.485ZM351.238 616.189L340.724 615.295C338.018 615.065 335.912 615.4 334.405 616.299C332.855 617.195 331.996 618.619 331.83 620.571C331.664 622.523 332.272 624.049 333.653 625.15C334.989 626.246 337.01 626.91 339.716 627.14L350.23 628.034L351.238 616.189Z" fill="white"/>
<path d="M273.819 584.409C276.653 585.473 278.974 587.081 280.782 589.233C282.574 591.428 283.697 594.012 284.149 596.988C284.545 599.99 284.07 603.283 282.725 606.868C281.38 610.452 279.579 613.224 277.322 615.183C275.05 617.184 272.525 618.4 269.747 618.832C266.97 619.264 264.143 618.94 261.267 617.861C258.14 616.688 255.614 614.931 253.686 612.591C251.701 610.277 250.477 607.583 250.014 604.508C249.535 601.476 249.913 598.313 251.149 595.02C252.4 591.685 254.204 589.033 256.56 587.064C258.915 585.094 261.61 583.87 264.642 583.392C267.634 582.897 270.692 583.236 273.819 584.409ZM295.197 578.95L278.329 623.906L274.077 622.311L277.784 612.432L280.685 606.031L282.547 599.168L290.758 577.284L295.197 578.95ZM272.653 588.466C270.319 587.59 268.039 587.329 265.814 587.683C263.573 588.079 261.551 589.032 259.748 590.543C257.929 592.095 256.543 594.143 255.588 596.685C254.634 599.228 254.339 601.662 254.704 603.986C255.068 606.31 255.964 608.358 257.391 610.13C258.819 611.902 260.7 613.226 263.034 614.102C265.368 614.978 267.677 615.226 269.959 614.846C272.2 614.45 274.222 613.497 276.025 611.986C277.787 610.46 279.145 608.425 280.099 605.882C281.053 603.339 281.376 600.893 281.069 598.543C280.705 596.219 279.809 594.171 278.382 592.399C276.897 590.653 274.987 589.342 272.653 588.466Z" fill="white"/>
<path d="M206.929 553.056C209.873 555.215 212.011 557.72 213.343 560.573C214.648 563.462 215.139 566.444 214.816 569.52C214.468 572.631 213.267 575.588 211.214 578.388C209.161 581.189 206.752 583.233 203.988 584.518C201.187 585.778 198.299 586.255 195.321 585.949C192.281 585.653 189.451 584.544 186.829 582.623C184.172 580.675 182.268 578.34 181.116 575.619C179.902 572.908 179.505 570.022 179.926 566.963C180.32 563.94 181.557 561.01 183.636 558.174C183.768 557.994 183.93 557.81 184.124 557.621C184.256 557.441 184.401 557.244 184.559 557.028L209.174 575.071L207.081 577.926L184.513 561.383L186.85 561.357C185.35 563.404 184.469 565.547 184.209 567.785C183.886 570.032 184.15 572.158 185 574.161C185.85 576.164 187.263 577.889 189.238 579.337C191.177 580.758 193.247 581.586 195.449 581.82C197.651 582.054 199.776 581.679 201.822 580.695C203.868 579.711 205.655 578.178 207.181 576.095L207.616 575.503C209.195 573.348 210.123 571.103 210.4 568.767C210.615 566.44 210.221 564.191 209.218 562.021C208.152 559.86 206.524 557.976 204.334 556.371C202.61 555.107 200.788 554.241 198.869 553.772C196.913 553.277 194.936 553.263 192.938 553.731L192.599 549.674C194.962 549.087 197.384 549.096 199.866 549.701C202.312 550.28 204.667 551.398 206.929 553.056Z" fill="white"/>
<path d="M164.817 523.08L136.922 544.32L134.009 540.495L145.793 511.545L147.007 513.139L115.803 516.585L113.133 513.078L141.028 491.838L143.658 495.291L120.067 513.255L119.859 512.321L148.875 509.198L150.169 510.898L139.31 538.306L138.543 537.63L162.187 519.626L164.817 523.08Z" fill="white"/>
<path d="M106.106 430.901L94.2888 435.336L94.9217 434.171L99.0978 445.301C100.678 449.511 100.996 453.148 100.054 456.212C99.111 459.276 96.8889 461.465 93.3875 462.779C89.6359 464.187 86.366 463.963 83.5778 462.109C80.7479 460.27 78.5353 457.225 76.9399 452.973L71.755 439.154L104.581 426.837L106.106 430.901ZM115.115 454.912L99.1067 450.647L97.3705 446.02L113.309 450.097L115.115 454.912ZM92.9757 435.828L75.8436 442.257L76.8516 440.951L80.7696 451.393C81.9114 454.436 83.3865 456.593 85.195 457.864C86.9878 459.094 89.1972 459.216 91.8233 458.23C96.7004 456.4 97.9736 452.38 95.6431 446.169L91.6078 435.414L92.9757 435.828Z" fill="white"/>
<path d="M76.93 357.959L41.9065 356.336L42.6237 340.859C42.8072 336.901 43.7075 333.823 45.3247 331.624C46.944 329.382 49.2213 328.329 52.1566 328.465C55.003 328.597 57.154 329.788 58.6096 332.04C60.0207 334.289 60.6438 337.192 60.479 340.75L59.1213 339.752C59.315 335.571 60.2355 332.538 61.8828 330.654C63.5301 328.769 65.8214 327.894 68.7567 328.031C71.7809 328.171 74.0866 329.392 75.6735 331.694C77.2181 333.949 77.8832 337.39 77.6689 342.015L76.93 357.959ZM73.4075 353.183L73.9237 342.042C74.0618 339.062 73.6989 336.795 72.835 335.239C71.9287 333.637 70.4082 332.787 68.2734 332.688C66.1387 332.589 64.5501 333.206 63.5078 334.54C62.4655 335.873 61.8753 338.03 61.7372 341.009L61.1993 352.617L73.4075 353.183ZM57.6636 352.453L58.152 341.913C58.2778 339.2 57.8621 337.108 56.9052 335.638C55.9503 334.123 54.4944 333.32 52.5375 333.229C50.5807 333.138 49.079 333.804 48.0326 335.226C46.9882 336.604 46.4031 338.65 46.2774 341.363L45.789 351.903L57.6636 352.453Z" fill="white"/>
<path d="M86.0987 274.541C85.1533 277.417 83.6427 279.803 81.5669 281.698C79.4487 283.579 76.9126 284.808 73.9583 285.383C70.9757 285.903 67.6657 285.564 64.0283 284.369C60.3908 283.173 57.5469 281.488 55.4963 279.315C53.4035 277.127 52.0838 274.654 51.5374 271.897C50.9909 269.14 51.1973 266.302 52.1566 263.384C53.1993 260.212 54.8499 257.614 57.1082 255.591C59.3381 253.513 61.9795 252.178 65.0322 251.588C68.0426 250.984 71.2185 251.232 74.5599 252.33C77.9435 253.442 80.6679 255.134 82.7329 257.407C84.7979 259.679 86.1323 262.32 86.7362 265.331C87.354 268.299 87.1415 271.369 86.0987 274.541ZM92.4379 295.676L46.8222 280.681L48.2403 276.367L58.2643 279.662L64.7799 282.296L71.7134 283.872L93.9186 291.171L92.4379 295.676ZM81.9975 273.544C82.7761 271.176 82.9426 268.887 82.4969 266.679C82.009 264.456 80.973 262.475 79.3888 260.736C77.7624 258.983 75.6592 257.682 73.0792 256.834C70.4992 255.986 68.0556 255.792 65.7486 256.252C63.4415 256.713 61.4322 257.692 59.7208 259.192C58.0094 260.691 56.7644 262.625 55.9858 264.994C55.2072 267.363 55.055 269.679 55.529 271.944C56.017 274.166 57.053 276.147 58.6371 277.887C60.2351 279.583 62.3241 280.856 64.9042 281.704C67.4842 282.552 69.9419 282.774 72.2774 282.37C74.5845 281.91 76.5937 280.93 78.3051 279.431C79.9882 277.875 81.219 275.913 81.9975 273.544Z" fill="white"/>
<path d="M114.676 206.121C112.638 209.15 110.22 211.387 107.423 212.832C104.59 214.252 101.63 214.863 98.5433 214.664C95.4202 214.441 92.418 213.36 89.5369 211.421C86.6558 209.482 84.5172 207.158 83.1212 204.447C81.7501 201.7 81.1574 198.833 81.3432 195.845C81.5169 192.796 82.511 189.923 84.3255 187.227C86.1648 184.493 88.4208 182.497 91.0935 181.236C93.7541 179.914 96.6211 179.402 99.6946 179.699C102.731 179.971 105.708 181.089 108.626 183.053C108.811 183.177 109.002 183.332 109.199 183.519C109.383 183.643 109.586 183.78 109.808 183.929L92.7692 209.249L89.8327 207.273L105.455 184.058L105.574 186.392C103.469 184.976 101.293 184.182 99.0462 184.012C96.7874 183.78 94.6744 184.129 92.707 185.059C90.7396 185.989 89.0723 187.47 87.7053 189.501C86.363 191.496 85.6192 193.598 85.4739 195.808C85.3285 198.017 85.7886 200.125 86.8543 202.13C87.9199 204.135 89.5239 205.858 91.6663 207.3L92.2757 207.71C94.492 209.201 96.7728 210.038 99.1182 210.221C101.451 210.343 103.682 209.858 105.811 208.769C107.928 207.617 109.744 205.915 111.26 203.661C112.453 201.888 113.245 200.033 113.637 198.096C114.053 196.122 113.987 194.146 113.44 192.168L117.48 191.667C118.161 194.004 118.25 196.425 117.745 198.929C117.265 201.397 116.242 203.794 114.676 206.121Z" fill="white"/>
<path d="M142.206 163.224L119.865 136.203L123.571 133.139L152.97 143.753L151.426 145.029L146.732 113.989L150.129 111.18L172.47 138.202L169.125 140.968L150.23 118.116L151.155 117.871L155.438 146.738L153.791 148.1L125.971 138.347L126.615 137.554L145.552 160.458L142.206 163.224Z" fill="white"/>
<path d="M231.681 100.55L226.764 88.9246L227.954 89.5091L217.006 94.1398C212.864 95.8915 209.243 96.3596 206.143 95.5439C203.042 94.7283 200.764 92.5983 199.307 89.1539C197.746 85.4634 197.834 82.1871 199.573 79.3249C201.293 76.4217 204.245 74.0856 208.428 72.3166L222.021 66.5672L235.679 98.8585L231.681 100.55ZM208.062 110.539L211.664 94.3688L216.216 92.4436L212.798 108.536L208.062 110.539ZM226.218 87.633L219.089 70.78L220.435 71.7334L210.164 76.078C207.17 77.3441 205.076 78.9067 203.88 80.766C202.726 82.6078 202.695 84.8204 203.787 87.4038C205.817 92.2013 209.886 93.308 215.996 90.7238L226.575 86.2492L226.218 87.633Z" fill="white"/>
<path d="M311.989 76.5045L312.124 41.4437L327.618 41.5035C331.58 41.5188 334.694 42.2877 336.958 43.8102C339.268 45.3329 340.417 47.5634 340.405 50.5018C340.394 53.3512 339.295 55.5508 337.107 57.1007C334.92 58.606 332.045 59.3518 328.484 59.338L329.424 57.9392C333.609 57.9554 336.678 58.7463 338.631 60.3122C340.584 61.878 341.555 64.1301 341.543 67.0685C341.532 70.096 340.41 72.4514 338.177 74.1346C335.989 75.7735 332.58 76.584 327.95 76.5661L311.989 76.5045ZM316.611 72.7824L327.764 72.8255C330.747 72.837 332.997 72.3782 334.514 71.4491C336.076 70.4756 336.861 68.9204 336.87 66.7834C336.878 64.6463 336.194 63.0854 334.818 62.1006C333.441 61.1158 331.261 60.6176 328.279 60.6061L316.658 60.5613L316.611 72.7824ZM316.672 57.0218L327.224 57.0625C329.939 57.073 332.012 56.569 333.44 55.5505C334.914 54.5322 335.654 53.0435 335.661 51.0846C335.669 49.1256 334.94 47.6536 333.475 46.6684C332.054 45.6835 329.985 45.1857 327.27 45.1752L316.718 45.1345L316.672 57.0218Z" fill="white"/>
<path d="M398.49 82.4617C395.58 81.6257 393.139 80.2062 391.167 78.2035C389.207 76.158 387.883 73.67 387.197 70.7396C386.565 67.7787 386.778 64.4583 387.836 60.7783C388.893 57.0983 390.469 54.1927 392.564 52.0615C394.671 49.8875 397.092 48.4754 399.826 47.8252C402.561 47.1749 405.404 47.2739 408.357 48.1223C411.566 49.0445 414.224 50.5957 416.331 52.776C418.492 54.9258 419.926 57.5148 420.631 60.5431C421.348 63.5286 421.221 66.7115 420.249 70.092C419.266 73.5152 417.678 76.3015 415.485 78.4509C413.292 80.6003 410.703 82.0336 407.718 82.7508C404.775 83.4802 401.699 83.3839 398.49 82.4617ZM377.61 89.5948L390.87 43.4452L395.235 44.6993L392.321 54.8407L389.935 61.4511L388.622 68.4392L382.167 90.9043L377.61 89.5948ZM399.331 78.3258C401.727 79.0143 404.02 79.0942 406.211 78.5655C408.413 77.9939 410.353 76.8838 412.031 75.2351C413.722 73.5436 414.942 71.3928 415.692 68.7825C416.442 66.1723 416.544 63.7232 415.997 61.4351C415.45 59.1471 414.395 57.1763 412.832 55.5227C411.268 53.8692 409.289 52.6982 406.893 52.0096C404.496 51.3211 402.176 51.2564 399.93 51.8157C397.728 52.3873 395.787 53.4974 394.109 55.1461C392.474 56.8071 391.281 58.9427 390.531 61.5529C389.781 64.1631 389.652 66.6275 390.144 68.946C390.691 71.2341 391.746 73.2049 393.309 74.8584C394.927 76.4815 396.935 77.6373 399.331 78.3258Z" fill="white"/>
<path d="M466.87 107.866C463.762 105.952 461.429 103.627 459.872 100.89C458.339 98.1158 457.609 95.1828 457.683 92.0911C457.781 88.9615 458.74 85.9182 460.561 82.9612C462.382 80.0042 464.618 77.7736 467.27 76.2694C469.959 74.7886 472.801 74.0807 475.793 74.1458C478.847 74.1964 481.758 75.0738 484.525 76.778C487.33 78.5056 489.417 80.6793 490.784 83.2989C492.212 85.904 492.84 88.748 492.667 91.831C492.517 94.876 491.52 97.8959 489.676 100.891C489.559 101.08 489.411 101.277 489.234 101.481C489.117 101.671 488.988 101.879 488.848 102.107L462.861 86.1032L464.717 83.0894L488.543 97.7623L486.216 97.9759C487.547 95.815 488.252 93.6088 488.331 91.3571C488.472 89.0908 488.038 86.9935 487.029 85.0653C486.021 83.137 484.474 81.5308 482.389 80.2468C480.342 78.9861 478.211 78.3277 475.997 78.2716C473.784 78.2155 471.697 78.7603 469.736 79.9059C467.776 81.0516 466.119 82.7238 464.764 84.9226L464.379 85.5481C462.979 87.8227 462.234 90.1354 462.146 92.4863C462.119 94.8226 462.693 97.0322 463.867 99.1151C465.103 101.183 466.878 102.93 469.19 104.354C471.01 105.474 472.895 106.191 474.847 106.504C476.836 106.84 478.807 106.695 480.762 106.068L481.426 110.085C479.118 110.86 476.703 111.046 474.18 110.642C471.695 110.262 469.259 109.337 466.87 107.866Z" fill="white"/>
<path d="M512.329 135.01L538.52 111.701L541.717 115.293L532.179 145.059L530.847 143.562L561.696 137.742L564.626 141.035L538.436 164.344L535.55 161.101L557.7 141.388L557.977 142.303L529.285 147.634L527.865 146.037L536.599 117.88L537.415 118.495L515.215 138.253L512.329 135.01Z" fill="white"/>
<path d="M578.081 222.254L589.515 216.908L588.975 218.118L583.939 207.35C582.035 203.277 581.432 199.676 582.132 196.547C582.831 193.419 584.875 191.062 588.263 189.478C591.892 187.781 595.17 187.747 598.095 189.378C601.06 190.989 603.504 193.852 605.428 197.965L611.68 211.335L579.92 226.186L578.081 222.254ZM567.218 199.024L583.512 202.021L585.605 206.498L569.396 203.682L567.218 199.024ZM590.785 216.314L607.361 208.562L606.458 209.943L601.734 199.84C600.357 196.896 598.717 194.861 596.815 193.736C594.931 192.651 592.719 192.702 590.178 193.89C585.46 196.097 584.505 200.205 587.315 206.214L592.181 216.619L590.785 216.314Z" fill="white"/>
</svg>
