<svg width="473" height="475" viewBox="0 0 473 475" fill="none" xmlns="http://www.w3.org/2000/svg">
<path d="M419.593 245.424C419.768 243.758 420.174 242.131 420.813 240.543C421.451 238.955 422.319 237.582 423.415 236.426L425.633 237.677C424.699 238.703 423.936 239.923 423.345 241.339C422.783 242.758 422.427 244.183 422.277 245.616C422.157 247.051 422.232 248.315 422.502 249.407C422.772 250.499 423.212 251.372 423.824 252.027C424.435 252.682 425.164 253.054 426.012 253.142C427.24 253.271 428.248 252.814 429.036 251.774C429.854 250.736 430.363 249.253 430.565 247.324L430.977 243.378L433.257 243.616L432.868 247.343C432.749 248.483 432.79 249.506 432.99 250.414C433.191 251.321 433.545 252.038 434.051 252.564C434.555 253.119 435.186 253.436 435.946 253.515C436.765 253.601 437.497 253.382 438.143 252.858C438.785 252.364 439.305 251.635 439.701 250.672C440.097 249.708 440.361 248.598 440.492 247.341C440.582 246.198 440.53 244.996 440.337 243.735C440.173 242.477 439.846 241.216 439.358 239.953L441.861 239.328C442.422 240.746 442.809 242.131 443.023 243.483C443.262 244.868 443.312 246.232 443.171 247.577C443.037 249.425 442.646 251.053 441.996 252.463C441.343 253.902 440.503 255.011 439.476 255.79C438.479 256.572 437.337 256.896 436.05 256.762C434.91 256.643 433.953 256.188 433.179 255.398C432.404 254.608 431.844 253.604 431.499 252.386C431.153 251.168 431.058 249.813 431.214 248.322L432.034 248.541C431.759 251.172 431.033 253.165 429.858 254.519C428.679 255.903 427.212 256.503 425.459 256.32C424.085 256.177 422.919 255.597 421.961 254.581C421.033 253.568 420.357 252.256 419.934 250.646C419.509 249.065 419.395 247.324 419.593 245.424Z" fill="white"/>
<path d="M411.2 292.864L416.014 294.589L416.847 294.747L424.899 297.631C426.753 298.295 428.366 298.279 429.739 297.585C431.102 296.918 432.15 295.56 432.883 293.513C433.388 292.102 433.634 290.676 433.619 289.234C433.605 287.793 433.369 286.491 432.911 285.328L435.587 284.788C436.131 286.232 436.375 287.817 436.318 289.545C436.288 291.283 435.967 293.01 435.352 294.725C434.341 297.547 432.858 299.467 430.902 300.483C428.963 301.537 426.569 301.553 423.719 300.533L410.189 295.686L411.2 292.864ZM413.683 285.278C414.268 283.645 415.041 282.315 416.003 281.285C416.982 280.294 418.056 279.648 419.225 279.349C420.421 279.059 421.642 279.138 422.887 279.584C424.022 279.99 424.951 280.619 425.676 281.472C426.419 282.363 426.849 283.516 426.966 284.931C427.101 286.384 426.797 288.149 426.054 290.224L423.363 297.736L421.163 296.948L423.824 289.519C424.577 287.416 424.729 285.816 424.279 284.718C423.82 283.648 423.036 282.915 421.93 282.519C420.685 282.073 419.515 282.2 418.421 282.901C417.327 283.602 416.468 284.824 415.844 286.567C415.249 288.227 415.112 289.786 415.433 291.243C415.772 292.738 416.561 294.02 417.802 295.089L415.53 295.024C414.29 293.955 413.488 292.576 413.126 290.885C412.754 289.222 412.94 287.353 413.683 285.278Z" fill="white"/>
<path d="M393.473 331.701C394.535 330.149 395.735 328.94 397.074 328.075C398.396 327.234 399.869 326.746 401.493 326.61C403.117 326.474 404.842 326.71 406.669 327.318C408.521 327.943 410.465 328.952 412.503 330.345C414.323 331.589 415.796 332.846 416.923 334.114C418.074 335.399 418.939 336.685 419.519 337.972C420.099 339.258 420.455 340.534 420.587 341.799C420.727 343.105 420.68 344.372 420.445 345.601C420.218 346.87 419.866 348.088 419.388 349.257L415.518 359.214L412.817 358.009L416.521 348.685C416.748 348.093 417.001 347.358 417.28 346.481C417.543 345.628 417.713 344.676 417.79 343.625C417.851 342.599 417.709 341.505 417.364 340.343C417.019 339.182 416.36 337.984 415.388 336.75C414.424 335.557 413.032 334.338 411.212 333.094C410.824 332.829 410.5 332.625 410.241 332.483C410.006 332.358 409.747 332.217 409.463 332.059C409.187 331.941 408.799 331.729 408.297 331.421L410.014 330.94C411.312 332.219 412.225 333.644 412.752 335.215C413.305 336.803 413.461 338.423 413.222 340.075C412.99 341.768 412.352 343.379 411.307 344.907C410.096 346.678 408.63 347.99 406.908 348.842C405.21 349.711 403.417 350.069 401.527 349.917C399.621 349.789 397.77 349.111 395.975 347.884C394.204 346.673 392.897 345.174 392.053 343.387C391.193 341.624 390.869 339.729 391.08 337.702C391.315 335.691 392.113 333.691 393.473 331.701ZM395.421 333.46C394.493 334.819 393.975 336.227 393.868 337.685C393.786 339.16 394.079 340.553 394.749 341.865C395.402 343.202 396.395 344.326 397.73 345.238C399.04 346.134 400.412 346.627 401.846 346.717C403.263 346.831 404.619 346.566 405.915 345.921C407.234 345.292 408.367 344.286 409.312 342.903C410.241 341.544 410.771 340.144 410.902 338.703C411.057 337.278 410.833 335.914 410.228 334.611C409.607 333.332 408.63 332.236 407.295 331.324C405.961 330.412 404.561 329.882 403.095 329.735C401.613 329.611 400.2 329.856 398.856 330.468C397.495 331.104 396.35 332.102 395.421 333.46Z" fill="white"/>
<path d="M355.793 376.205L370.735 393.881L368.345 395.901L353.403 378.226L355.793 376.205ZM375.267 379.37C373.026 381.226 370.914 382.165 368.931 382.186C366.948 382.208 365.188 381.309 363.651 379.491C362.057 377.606 361.462 375.627 361.865 373.554C362.268 371.482 363.646 369.47 366 367.519L373.031 361.633L387.973 379.308L385.583 381.329L380.374 375.168L375.267 379.37ZM367.705 369.195C366.025 370.577 365.054 371.955 364.793 373.331C364.529 374.747 364.956 376.118 366.075 377.442C367.195 378.766 368.426 379.381 369.769 379.284C371.13 379.211 372.662 378.474 374.365 377.073L378.866 373.384L372.206 365.505L367.705 369.195Z" fill="white"/>
<path d="M331.089 395.469L340.658 416.543L331.345 420.772C328.964 421.853 326.884 422.249 325.106 421.959C323.301 421.681 321.998 420.659 321.196 418.892C320.418 417.18 320.472 415.557 321.358 414.025C322.256 412.52 323.776 411.281 325.917 410.309L325.737 411.407C323.222 412.55 321.163 412.92 319.56 412.518C317.957 412.116 316.755 411.032 315.953 409.265C315.127 407.446 315.152 405.724 316.028 404.099C316.889 402.514 318.712 401.089 321.495 399.825L331.089 395.469ZM329.34 398.974L322.636 402.018C320.843 402.833 319.619 403.727 318.965 404.702C318.295 405.716 318.252 406.866 318.836 408.15C319.419 409.435 320.259 410.183 321.356 410.395C322.453 410.607 323.898 410.306 325.691 409.492L332.675 406.32L329.34 398.974ZM333.641 408.448L327.299 411.328C325.667 412.069 324.562 412.942 323.985 413.946C323.382 414.962 323.347 416.059 323.882 417.237C324.416 418.414 325.259 419.097 326.409 419.285C327.533 419.485 328.911 419.214 330.544 418.473L336.886 415.593L333.641 408.448Z" fill="white"/>
<path d="M275.413 426.33C276.644 425.518 277.909 424.819 279.209 424.234C280.485 423.682 281.789 423.29 283.12 423.057C285.813 422.586 288.047 422.822 289.823 423.764C291.604 424.736 292.72 426.51 293.171 429.086L294.477 436.556L291.437 437.087L290.161 429.792C289.857 428.055 289.065 426.851 287.784 426.18C286.503 425.509 284.907 425.34 282.996 425.674C281.838 425.877 280.648 426.234 279.424 426.747C278.206 427.288 276.997 427.962 275.795 428.769L275.413 426.33ZM273.987 416.643L277.975 439.442L274.892 439.981L270.904 417.183L273.987 416.643Z" fill="white"/>
<path d="M241.41 421.942L239.005 444.962L235.892 444.637L237.802 426.353L220.502 443.029L217.74 442.74L220.144 419.721L223.258 420.046L221.343 438.374L238.604 421.649L241.41 421.942Z" fill="white"/>
<path d="M188.072 415.197L179.536 436.71L170.029 432.938C167.598 431.973 165.87 430.75 164.845 429.269C163.793 427.776 163.625 426.128 164.34 424.325C165.034 422.577 166.239 421.49 167.957 421.065C169.665 420.668 171.611 420.902 173.796 421.769L172.881 422.402C170.313 421.383 168.618 420.157 167.795 418.724C166.973 417.291 166.919 415.673 167.634 413.87C168.371 412.013 169.629 410.836 171.407 410.34C173.146 409.86 175.437 410.184 178.278 411.311L188.072 415.197ZM184.334 416.37L177.49 413.654C175.66 412.928 174.167 412.668 173.01 412.873C171.816 413.095 170.958 413.861 170.438 415.172C169.918 416.484 169.962 417.608 170.57 418.545C171.178 419.482 172.398 420.313 174.228 421.04L181.358 423.869L184.334 416.37ZM180.497 426.04L174.022 423.472C172.356 422.81 170.961 422.621 169.837 422.902C168.686 423.173 167.873 423.909 167.396 425.111C166.919 426.313 167.012 427.393 167.675 428.352C168.311 429.3 169.462 430.104 171.128 430.766L177.603 433.334L180.497 426.04Z" fill="white"/>
<path d="M137.287 391.481C139.088 392.801 140.417 394.394 141.272 396.26C142.086 398.132 142.387 400.084 142.174 402.114C141.944 404.168 141.151 406.12 139.795 407.969C138.423 409.841 136.8 411.185 134.928 411.999C133.056 412.813 131.113 413.102 129.1 412.865C127.087 412.628 125.168 411.841 123.343 410.503C121.494 409.148 120.154 407.546 119.322 405.698C118.467 403.832 118.158 401.892 118.395 399.879C118.608 397.849 119.4 395.897 120.773 394.025C122.128 392.176 123.751 390.832 125.64 389.995C127.489 389.163 129.44 388.863 131.494 389.093C133.531 389.347 135.462 390.143 137.287 391.481ZM135.645 393.721C134.294 392.73 132.88 392.149 131.402 391.977C129.907 391.829 128.464 392.083 127.072 392.739C125.639 393.401 124.393 394.455 123.333 395.901C122.256 397.371 121.626 398.877 121.443 400.419C121.236 401.944 121.437 403.385 122.045 404.742C122.637 406.123 123.596 407.3 124.923 408.273C126.251 409.246 127.662 409.806 129.157 409.955C130.634 410.126 132.081 409.893 133.496 409.254C134.912 408.616 136.158 407.562 137.235 406.092C138.295 404.646 138.925 403.14 139.126 401.574C139.309 400.032 139.105 398.571 138.513 397.19C137.905 395.833 136.949 394.676 135.645 393.721Z" fill="white"/>
<path d="M101.604 361.489C103.058 363.261 103.977 365.168 104.361 367.211C104.703 369.249 104.519 371.225 103.808 373.139C103.075 375.072 101.822 376.765 100.05 378.219C98.2553 379.692 96.3501 380.591 94.3344 380.914C92.3187 381.238 90.3559 381.024 88.4461 380.272C86.5177 379.497 84.8263 378.224 83.3719 376.452C82.1227 374.929 81.29 373.313 80.8739 371.601C80.4577 369.889 80.5513 368.197 81.1547 366.523L83.8638 367.322C83.4585 368.681 83.4129 369.993 83.7271 371.256C84.0412 372.519 84.6364 373.684 85.5128 374.752C86.5569 376.024 87.7938 376.929 89.2235 377.466C90.6306 378.023 92.099 378.167 93.6288 377.9C95.1587 377.633 96.6279 376.922 98.0364 375.766C99.445 374.61 100.429 373.308 100.99 371.859C101.55 370.411 101.706 368.933 101.458 367.426C101.187 365.938 100.529 364.557 99.4849 363.285C98.6085 362.217 97.5816 361.406 96.4042 360.852C95.2267 360.297 93.9432 360.077 92.5538 360.19L92.2983 357.377C94.035 357.131 95.7134 357.369 97.3337 358.093C98.9312 358.835 100.355 359.967 101.604 361.489Z" fill="white"/>
<path d="M76.6419 328.004L57.4949 337.219L57.9055 336.141L62.0542 344.761L59.5913 345.946L50.6247 327.315L53.0877 326.13L57.2363 334.75L56.1374 334.398L75.2845 325.183L76.6419 328.004Z" fill="white"/>
<path d="M44.7602 289.506C44.1784 286.655 44.3481 284.364 45.2693 282.633C46.1843 280.873 47.8056 279.744 50.1332 279.245C52.5471 278.727 54.5732 279.133 56.2117 280.465C57.8439 281.768 58.9694 283.931 59.5882 286.955L61.506 296.102L38.8763 300.958L38.2196 297.898L46.1076 296.205L44.7602 289.506ZM57.2976 287.627C56.8761 285.523 56.1203 284.032 55.0301 283.154C53.9049 282.253 52.4946 281.984 50.7992 282.348C49.1038 282.712 47.9822 283.509 47.4345 284.738C46.858 285.974 46.7836 287.659 47.2112 289.791L48.3922 295.715L58.4786 293.551L57.2976 287.627Z" fill="white"/>
<path d="M54.157 216.201C53.8684 217.851 53.3506 219.446 52.6038 220.986C51.857 222.526 50.8971 223.835 49.7239 224.913L47.5971 223.512C48.6001 222.553 49.4454 221.389 50.1329 220.017C50.7914 218.64 51.2447 217.243 51.4929 215.824C51.7121 214.4 51.7246 213.135 51.5306 212.027C51.3365 210.918 50.9572 210.017 50.3926 209.321C49.828 208.626 49.126 208.205 48.2864 208.058C47.0705 207.845 46.0334 208.23 45.175 209.214C44.2878 210.193 43.677 211.637 43.3428 213.548L42.6591 217.456L40.401 217.061L41.0467 213.37C41.2442 212.241 41.2741 211.217 41.1366 210.298C40.999 209.379 40.6957 208.639 40.2266 208.08C39.7627 207.492 39.1543 207.132 38.4016 207C37.591 206.858 36.8455 207.026 36.1652 207.504C35.49 207.953 34.9215 208.644 34.4598 209.577C33.9981 210.511 33.6584 211.6 33.4406 212.845C33.2721 213.979 33.2407 215.182 33.3465 216.454C33.4233 217.721 33.6618 219.001 34.0622 220.294L31.5218 220.745C31.06 219.291 30.7693 217.883 30.6497 216.519C30.5063 215.122 30.5511 213.757 30.7841 212.425C31.0452 210.591 31.5485 208.994 32.2938 207.632C33.0443 206.242 33.9587 205.193 35.037 204.487C36.0864 203.775 37.248 203.531 38.5219 203.754C39.6509 203.951 40.5745 204.471 41.2925 205.313C42.0106 206.154 42.4999 207.195 42.7605 208.434C43.0212 209.673 43.0224 211.031 42.7641 212.507L41.9618 212.232C42.4176 209.627 43.2787 207.689 44.5452 206.419C45.8167 205.119 47.321 204.622 49.0581 204.926C50.4187 205.164 51.5417 205.822 52.4269 206.902C53.2832 207.977 53.8667 209.332 54.1773 210.968C54.493 212.575 54.4862 214.319 54.157 216.201Z" fill="white"/>
<path d="M65.6443 169.851L60.9569 167.806L60.1363 167.592L52.2971 164.173C50.4922 163.385 48.8816 163.292 47.4653 163.893C46.0607 164.466 44.9236 165.75 44.054 167.743C43.4547 169.117 43.1137 170.524 43.0311 171.963C42.9485 173.402 43.0963 174.717 43.4745 175.908L40.7688 176.267C40.323 174.789 40.1866 173.191 40.3598 171.471C40.5061 169.739 40.9435 168.038 41.6721 166.368C42.8707 163.62 44.4801 161.805 46.5003 160.923C48.5053 160.002 50.8952 160.146 53.6699 161.357L66.8429 167.103L65.6443 169.851ZM62.6558 177.253C61.9625 178.842 61.1014 180.118 60.0725 181.08C59.0284 182.003 57.9132 182.575 56.7271 182.795C55.5139 183.003 54.3012 182.843 53.089 182.314C51.9845 181.832 51.0994 181.142 50.4337 180.242C49.7528 179.304 49.4015 178.124 49.3798 176.704C49.3429 175.245 49.7651 173.505 50.6465 171.485L53.837 164.171L55.9786 165.105L52.8234 172.338C51.9303 174.386 51.6711 175.972 52.0459 177.098C52.4325 178.196 53.1645 178.98 54.2421 179.45C55.4543 179.979 56.6297 179.931 57.7684 179.305C58.907 178.68 59.8465 177.518 60.5869 175.821C61.2919 174.205 61.5335 172.659 61.3114 171.183C61.0742 169.669 60.3727 168.337 59.2069 167.187L61.469 167.404C62.6347 168.554 63.3414 169.985 63.5889 171.696C63.8482 173.38 63.5372 175.232 62.6558 177.253Z" fill="white"/>
<path d="M85.7193 132.509C84.558 133.989 83.281 135.116 81.8883 135.891C80.5137 136.643 79.0117 137.033 77.3825 137.062C75.7532 137.091 74.047 136.742 72.2638 136.015C70.4575 135.27 68.5832 134.136 66.6411 132.612C64.907 131.251 63.5196 129.901 62.4788 128.561C61.415 127.203 60.6359 125.863 60.1415 124.541C59.6472 123.219 59.3757 121.923 59.327 120.652C59.2734 119.339 59.4039 118.078 59.7185 116.868C60.0281 115.616 60.4599 114.424 61.0138 113.289L65.5294 103.608L68.145 104.988L63.837 114.048C63.5716 114.624 63.2708 115.341 62.9345 116.197C62.6164 117.031 62.3842 117.97 62.2379 119.013C62.1098 120.033 62.1798 121.134 62.4479 122.316C62.716 123.498 63.2945 124.736 64.1834 126.032C65.0672 127.286 66.3762 128.593 68.1103 129.954C68.4802 130.244 68.7899 130.469 69.0392 130.627C69.2655 130.767 69.5148 130.925 69.7873 131.102C70.0548 131.237 70.4288 131.475 70.9094 131.814L69.1639 132.182C67.9532 130.821 67.136 129.339 66.7125 127.736C66.2658 126.116 66.2161 124.489 66.5635 122.856C66.9058 121.182 67.6486 119.617 68.7916 118.16C70.1162 116.472 71.6655 115.26 73.4396 114.522C75.1905 113.767 77.0037 113.527 78.8791 113.804C80.7726 114.057 82.5749 114.855 84.2858 116.197C85.9737 117.522 87.1796 119.103 87.9037 120.942C88.646 122.757 88.8452 124.669 88.5014 126.678C88.1345 128.669 87.2071 130.613 85.7193 132.509ZM83.8908 130.626C84.9069 129.331 85.516 127.96 85.7182 126.512C85.8972 125.046 85.6958 123.636 85.114 122.283C84.5503 120.907 83.6326 119.719 82.3609 118.721C81.1124 117.742 79.7758 117.16 78.3511 116.976C76.9446 116.769 75.5737 116.944 74.2386 117.503C72.8804 118.044 71.6842 118.973 70.65 120.291C69.6339 121.586 69.0132 122.948 68.7879 124.377C68.5395 125.789 68.674 127.165 69.1915 128.505C69.7271 129.822 70.6307 130.979 71.9024 131.977C73.174 132.975 74.5362 133.596 75.989 133.839C77.4599 134.06 78.8861 133.909 80.2674 133.386C81.6669 132.841 82.8747 131.92 83.8908 130.626Z" fill="white"/>
<path d="M125.621 90.9512L111.87 72.3344L114.387 70.4747L128.139 89.0915L125.621 90.9512ZM106.396 86.5167C108.754 84.8117 110.923 84.0134 112.903 84.1219C114.883 84.2304 116.581 85.2421 117.995 87.157C119.462 89.1428 119.926 91.1565 119.388 93.1982C118.85 95.2399 117.343 97.1569 114.867 98.9493L107.465 104.362L93.7138 85.7452L96.2315 83.8855L101.025 90.3748L106.396 86.5167ZM113.275 97.1654C115.042 95.8969 116.101 94.585 116.452 93.2297C116.809 91.8332 116.472 90.4377 115.442 89.0429C114.412 87.6481 113.224 86.9546 111.877 86.9624C110.514 86.9465 108.937 87.5816 107.146 88.8676L102.413 92.2542L108.542 100.552L113.275 97.1654Z" fill="white"/>
<path d="M151.322 73.2133L143.11 51.5743L152.673 47.9453C155.118 47.0172 157.219 46.7544 158.975 47.1568C160.758 47.5488 161.994 48.6516 162.682 50.4651C163.35 52.2237 163.193 53.8394 162.211 55.3121C161.219 56.7573 159.624 57.897 157.426 58.7313L157.675 57.6468C160.258 56.6665 162.336 56.4278 163.91 56.9307C165.484 57.4336 166.615 58.5918 167.303 60.4054C168.013 62.2739 167.878 63.9909 166.901 65.5565C165.94 67.0842 164.031 68.3903 161.173 69.4748L151.322 73.2133ZM153.29 69.8258L160.174 67.2136C162.015 66.5149 163.293 65.6997 164.008 64.7681C164.74 63.7986 164.856 62.6544 164.356 61.3355C163.855 60.0165 163.064 59.2164 161.983 58.9352C160.902 58.6539 159.441 58.8627 157.6 59.5614L150.428 62.2831L153.29 69.8258ZM149.599 60.0986L156.111 57.6271C157.787 56.991 158.945 56.1901 159.585 55.2244C160.251 54.2483 160.356 53.1557 159.897 51.9467C159.438 50.7376 158.64 50.0029 157.504 49.7425C156.395 49.4717 155.003 49.6544 153.327 50.2905L146.815 52.762L149.599 60.0986Z" fill="white"/>
<path d="M209.827 45.6659C208.543 46.391 207.233 47.0007 205.896 47.495C204.585 47.957 203.257 48.2582 201.912 48.3987C199.194 48.6827 196.981 48.2933 195.274 47.2305C193.565 46.1385 192.574 44.2917 192.302 41.6901L191.514 34.1484L194.583 33.8278L195.353 41.1941C195.536 42.9479 196.244 44.2038 197.475 44.9616C198.707 45.7195 200.287 45.9976 202.217 45.7961C203.386 45.6739 204.598 45.3995 205.854 44.9728C207.106 44.5169 208.36 43.9279 209.614 43.2059L209.827 45.6659ZM210.581 55.4273L208.176 32.4078L211.289 32.0825L213.694 55.1021L210.581 55.4273Z" fill="white"/>
<path d="M243.176 52.2122L247.077 29.3984L250.162 29.9259L247.064 48.0466L265.415 32.5338L268.152 33.0019L264.251 55.8157L261.166 55.2882L264.272 37.1241L245.957 52.6877L243.176 52.2122Z" fill="white"/>
<path d="M296.323 62.4959L306.282 41.6036L315.515 46.0048C317.876 47.1304 319.518 48.4667 320.441 50.0137C321.39 51.5734 321.448 53.2287 320.613 54.9797C319.804 56.6776 318.528 57.681 316.785 57.9898C315.055 58.2721 313.129 57.9074 311.007 56.8956L311.962 56.3255C314.456 57.5143 316.065 58.8513 316.79 60.3363C317.514 61.8213 317.459 63.4393 316.625 65.1903C315.765 66.9943 314.431 68.0842 312.624 68.46C310.856 68.8219 308.593 68.3452 305.834 67.0299L296.323 62.4959ZM300.131 61.5764L306.777 64.7445C308.554 65.5919 310.027 65.952 311.194 65.8248C312.401 65.6838 313.308 64.9766 313.915 63.7032C314.522 62.4297 314.553 61.3051 314.009 60.3294C313.465 59.3537 312.304 58.4422 310.527 57.5948L303.602 54.2939L300.131 61.5764ZM304.608 52.1848L310.895 55.1821C312.514 55.9536 313.893 56.2366 315.033 56.0311C316.199 55.8383 317.06 55.1582 317.617 53.9909C318.173 52.8236 318.153 51.7394 317.556 50.7384C316.985 49.75 315.891 48.8701 314.272 48.0986L307.985 45.1013L304.608 52.1848Z" fill="white"/>
<path d="M345.191 89.3275C343.48 87.8917 342.259 86.2148 341.528 84.297C340.838 82.3754 340.666 80.4086 341.011 78.3966C341.376 76.362 342.295 74.4667 343.768 72.7106C345.261 70.932 346.968 69.6979 348.889 69.0083C350.811 68.3187 352.768 68.1579 354.761 68.526C356.755 68.894 358.618 69.8054 360.352 71.2601C362.108 72.7337 363.34 74.42 364.048 76.319C364.779 78.2369 364.961 80.1924 364.593 82.1856C364.247 84.1977 363.328 86.093 361.836 87.8716C360.362 89.6277 358.655 90.8618 356.715 91.5739C354.816 92.2824 352.849 92.4544 350.814 92.09C348.799 91.703 346.924 90.7822 345.191 89.3275ZM346.976 87.1999C348.259 88.2768 349.632 88.9494 351.095 89.2178C352.577 89.4637 354.034 89.305 355.466 88.7417C356.939 88.1747 358.252 87.2046 359.404 85.8312C360.576 84.4354 361.303 82.974 361.587 81.4472C361.893 79.9392 361.787 78.4882 361.269 77.0941C360.769 75.6775 359.889 74.4402 358.628 73.3822C357.368 72.3243 355.996 71.6723 354.515 71.4265C353.052 71.158 351.593 71.2961 350.139 71.8405C348.684 72.3849 347.371 73.3551 346.2 74.751C345.048 76.1243 344.32 77.5857 344.017 79.135C343.734 80.6618 343.842 82.1336 344.341 83.5502C344.859 84.9443 345.738 86.1609 346.976 87.1999Z" fill="white"/>
<path d="M378.634 121.175C377.299 119.312 376.507 117.348 376.258 115.285C376.05 113.228 376.364 111.269 377.198 109.405C378.057 107.525 379.418 105.918 381.281 104.583C383.169 103.231 385.129 102.459 387.162 102.269C389.194 102.078 391.139 102.42 392.995 103.296C394.869 104.195 396.473 105.577 397.808 107.441C398.954 109.042 399.679 110.71 399.982 112.445C400.285 114.18 400.081 115.863 399.369 117.494L396.718 116.518C397.212 115.189 397.343 113.883 397.112 112.602C396.882 111.321 396.364 110.119 395.56 108.997C394.602 107.658 393.427 106.674 392.035 106.044C390.668 105.397 389.212 105.156 387.668 105.322C386.124 105.488 384.611 106.102 383.13 107.163C381.648 108.224 380.581 109.459 379.927 110.867C379.272 112.276 379.02 113.74 379.169 115.26C379.342 116.764 379.907 118.184 380.866 119.522C381.67 120.645 382.642 121.522 383.78 122.152C384.919 122.783 386.185 123.087 387.579 123.065L387.649 125.888C385.9 126.02 384.241 125.672 382.672 124.844C381.126 123.999 379.78 122.776 378.634 121.175Z" fill="white"/>
<path d="M401.421 156.062L421.113 148.078L420.635 149.128L417.041 140.263L419.574 139.236L427.342 158.397L424.809 159.424L421.215 150.558L422.289 150.979L402.597 158.963L401.421 156.062Z" fill="white"/>
<path d="M430.96 197.014C431.355 199.897 431.037 202.172 430.005 203.839C428.978 205.535 427.286 206.557 424.931 206.904C422.489 207.264 420.493 206.727 418.945 205.291C417.401 203.885 416.418 201.653 415.997 198.596L414.678 189.343L437.575 185.968L438.032 189.065L430.05 190.241L430.96 197.014ZM418.327 198.074C418.61 200.201 419.268 201.738 420.299 202.685C421.363 203.657 422.753 204.017 424.468 203.764C426.184 203.511 427.355 202.789 427.981 201.597C428.637 200.402 428.82 198.726 428.532 196.57L427.739 190.582L417.533 192.086L418.327 198.074Z" fill="white"/>
</svg>
